<svg width="18" height="18" viewBox="0 0 18 18" fill="none" xmlns="http://www.w3.org/2000/svg">
<g id="pin 1">
<g id="Icons">
<path id="Vector" d="M8.99831 1.79858C7.47067 1.79858 6.00559 2.40544 4.92538 3.48565C3.84517 4.56586 3.23831 6.03094 3.23831 7.55858C3.23357 8.992 3.76817 10.3748 4.73591 11.4322L8.72471 16.0726C8.75851 16.1121 8.80047 16.1438 8.8477 16.1656C8.89493 16.1873 8.94631 16.1986 8.99831 16.1986C9.05031 16.1986 9.1017 16.1873 9.14893 16.1656C9.19616 16.1438 9.23812 16.1121 9.27191 16.0726L13.2607 11.4322C14.2285 10.3748 14.7631 8.992 14.7583 7.55858C14.7583 6.03094 14.1515 4.56586 13.0712 3.48565C11.991 2.40544 10.526 1.79858 8.99831 1.79858ZM12.7135 10.9642L8.99831 15.2878L5.28311 10.9678C4.62212 10.2467 4.18524 9.3489 4.02575 8.38381C3.86627 7.41871 3.99107 6.42807 4.38494 5.53269C4.77881 4.63731 5.42473 3.87589 6.24391 3.34131C7.06309 2.80672 8.02013 2.52207 8.99831 2.52207C9.97649 2.52207 10.9335 2.80672 11.7527 3.34131C12.5719 3.87589 13.2178 4.63731 13.6117 5.53269C14.0056 6.42807 14.1304 7.41871 13.9709 8.38381C13.8114 9.3489 13.3745 10.2467 12.7135 10.9678V10.9642Z" fill="white"/>
<path id="Vector_2" d="M8.99656 5.03857C8.49815 5.03857 8.01094 5.18637 7.59653 5.46327C7.18211 5.74017 6.85912 6.13374 6.66839 6.59421C6.47765 7.05468 6.42775 7.56137 6.52498 8.0502C6.62222 8.53903 6.86223 8.98805 7.21465 9.34048C7.56708 9.69291 8.0161 9.93292 8.50494 10.0302C8.99377 10.1274 9.50046 10.0775 9.96093 9.88675C10.4214 9.69602 10.815 9.37302 11.0919 8.95861C11.3688 8.5442 11.5166 8.05698 11.5166 7.55857C11.5166 6.89023 11.2511 6.24926 10.7785 5.77667C10.3059 5.30407 9.66491 5.03857 8.99656 5.03857ZM8.99656 9.35857C8.64056 9.35857 8.29255 9.25301 7.99654 9.05522C7.70053 8.85743 7.46982 8.57631 7.33358 8.2474C7.19734 7.9185 7.1617 7.55658 7.23115 7.20741C7.3006 6.85825 7.47204 6.53752 7.72377 6.28578C7.97551 6.03405 8.29623 5.86261 8.6454 5.79316C8.99457 5.72371 9.35649 5.75935 9.68539 5.89559C10.0143 6.03183 10.2954 6.26254 10.4932 6.55855C10.691 6.85456 10.7966 7.20257 10.7966 7.55857C10.7966 8.03596 10.6069 8.4938 10.2694 8.83137C9.93179 9.16893 9.47395 9.35857 8.99656 9.35857Z" fill="white"/>
</g>
</g>
</svg>
