<svg width="18" height="18" viewBox="0 0 18 18" fill="none" xmlns="http://www.w3.org/2000/svg">
<g id="call 1">
<g id="Icons">
<path id="Vector" d="M16.0891 13.2863L12.4891 9.81945C12.4422 9.77442 12.3839 9.74294 12.3205 9.72836C12.2571 9.71378 12.191 9.71665 12.1291 9.73665L10.1815 10.3847L7.61468 7.82145L8.28068 5.87025C8.30069 5.80836 8.30356 5.74221 8.28898 5.67882C8.2744 5.61544 8.24292 5.55718 8.19788 5.51025L4.73108 1.91025C4.69774 1.87624 4.65798 1.84918 4.61411 1.83064C4.57023 1.8121 4.52311 1.80245 4.47548 1.80225C4.4281 1.80198 4.38114 1.81106 4.33728 1.82897C4.29341 1.84689 4.25352 1.87329 4.21988 1.90665L2.78348 3.31785C2.15409 3.9506 1.80078 4.80678 1.80078 5.69925C1.80078 6.59172 2.15409 7.4479 2.78348 8.08065L9.91868 15.2159C10.5508 15.845 11.4064 16.1982 12.2983 16.1982C13.1902 16.1982 14.0457 15.845 14.6779 15.2159L16.0963 13.7975C16.1296 13.7638 16.156 13.7239 16.174 13.6801C16.1919 13.6362 16.201 13.5892 16.2007 13.5419C16.2 13.494 16.1898 13.4467 16.1706 13.4028C16.1515 13.3589 16.1237 13.3193 16.0891 13.2863ZM14.1703 14.7263C13.6737 15.2211 13.0012 15.499 12.3001 15.499C11.599 15.499 10.9265 15.2211 10.4299 14.7263L3.29108 7.55865C2.79798 7.06111 2.52133 6.38895 2.52133 5.68845C2.52133 4.98795 2.79798 4.3158 3.29108 3.81825L4.45028 2.65905L7.51028 5.83785L6.85868 7.79265C6.83913 7.85486 6.83684 7.92121 6.85206 7.98461C6.86727 8.04802 6.89943 8.1061 6.94508 8.15265L9.82508 11.0327C9.87126 11.0789 9.92917 11.1118 9.99259 11.1276C10.056 11.1435 10.1226 11.1418 10.1851 11.1227L12.1363 10.4711L15.3151 13.5311L14.1703 14.7263Z" fill="white"/>
</g>
</g>
</svg>
