<svg width="16" height="17" viewBox="0 0 16 17" fill="none" xmlns="http://www.w3.org/2000/svg">
<g id="lock (1) 1" clip-path="url(#clip0_1871_216347)">
<path id="Vector" d="M12.6654 5.35482V4.68815C12.6654 3.45047 12.1737 2.26349 11.2985 1.38832C10.4234 0.51315 9.23637 0.0214844 7.9987 0.0214844C6.76102 0.0214844 5.57404 0.51315 4.69887 1.38832C3.8237 2.26349 3.33203 3.45047 3.33203 4.68815V5.35482H1.33203V14.0215C1.33203 14.5519 1.54274 15.0606 1.91782 15.4357C2.29289 15.8108 2.8016 16.0215 3.33203 16.0215H12.6654C13.1958 16.0215 13.7045 15.8108 14.0796 15.4357C14.4547 15.0606 14.6654 14.5519 14.6654 14.0215V5.35482H12.6654ZM8.66536 12.0215H7.33203V9.35482H8.66536V12.0215ZM11.332 5.35482H4.66536V4.68815C4.66536 3.8041 5.01655 2.95625 5.64168 2.33113C6.2668 1.70601 7.11464 1.35482 7.9987 1.35482C8.88275 1.35482 9.7306 1.70601 10.3557 2.33113C10.9808 2.95625 11.332 3.8041 11.332 4.68815V5.35482Z" fill="black"/>
</g>
<defs>
<clipPath id="clip0_1871_216347">
<rect width="16" height="16" fill="white" transform="translate(0 0.0214844)"/>
</clipPath>
</defs>
</svg>
