<svg width="18" height="18" viewBox="0 0 18 18" fill="none" xmlns="http://www.w3.org/2000/svg">
<g id="gmail 1">
<g id="Icons">
<path id="Vector" d="M15.8408 3.77856H1.80078V11.6986C1.80078 12.3669 2.06628 13.0079 2.53887 13.4805C3.01146 13.9531 3.65244 14.2186 4.32078 14.2186H13.6808C14.3491 14.2186 14.9901 13.9531 15.4627 13.4805C15.9353 13.0079 16.2008 12.3669 16.2008 11.6986V3.77856H15.8408ZM15.4808 4.49856V6.07176L9.00078 9.13896L2.52078 6.07176V4.49856H15.4808ZM13.6808 13.4986H4.32078C3.84339 13.4986 3.38555 13.3089 3.04799 12.9714C2.71042 12.6338 2.52078 12.176 2.52078 11.6986V6.86736L9.00078 9.93816L15.4808 6.86736V11.6986C15.4808 12.176 15.2911 12.6338 14.9536 12.9714C14.616 13.3089 14.1582 13.4986 13.6808 13.4986Z" fill="white"/>
</g>
</g>
</svg>
