<svg width="60" height="61" viewBox="0 0 60 61" fill="none" xmlns="http://www.w3.org/2000/svg">
<g clip-path="url(#clip0_1871_213259)">
<path d="M30 60.0215C46.5685 60.0215 60 46.59 60 30.0215C60 13.4529 46.5685 0.0214844 30 0.0214844C13.4315 0.0214844 0 13.4529 0 30.0215C0 46.59 13.4315 60.0215 30 60.0215Z" fill="white"/>
<path d="M41.0309 16.1934H18.9691C17.8242 16.1934 16.7261 16.6478 15.916 17.4568C15.1059 18.2658 14.65 19.3633 14.6484 20.5082V35.0781C14.6486 36.0537 14.9789 37.0005 15.5855 37.7645C16.1921 38.5286 17.0393 39.0649 17.9895 39.2863C17.8323 39.6881 17.6499 40.0795 17.4434 40.4582C17.1891 40.9216 16.9037 41.3671 16.5891 41.7918C16.4719 41.9523 16.3723 42.0707 16.309 42.1434C16.275 42.1867 16.2527 42.2113 16.2352 42.2301L16.2176 42.2488C16.0924 42.3896 16.0113 42.5641 15.9843 42.7506C15.9574 42.9371 15.9858 43.1274 16.0661 43.2979C16.1463 43.4684 16.2749 43.6115 16.4358 43.7096C16.5966 43.8077 16.7828 43.8564 16.9711 43.8496C18.6902 43.7758 20.3953 43.1629 21.8098 42.4844C23.373 41.7355 24.6926 40.3082 25.5598 39.3941H41.0285C42.174 39.3948 43.2729 38.9405 44.0836 38.1311C44.8942 37.3218 45.3503 36.2236 45.3516 35.0781V20.5082C45.35 19.3633 44.8941 18.2658 44.084 17.4568C43.2739 16.6478 42.1758 16.1934 41.0309 16.1934Z" fill="#CD4279"/>
</g>
<defs>
<clipPath id="clip0_1871_213259">
<rect width="60" height="60" fill="white" transform="translate(0 0.0214844)"/>
</clipPath>
</defs>
</svg>
