<svg width="60" height="61" viewBox="0 0 60 61" fill="none" xmlns="http://www.w3.org/2000/svg">
<g clip-path="url(#clip0_1871_213248)">
<path d="M30 60.0215C46.5685 60.0215 60 46.59 60 30.0215C60 13.4529 46.5685 0.0214844 30 0.0214844C13.4315 0.0214844 0 13.4529 0 30.0215C0 46.59 13.4315 60.0215 30 60.0215Z" fill="white"/>
<path d="M40.8215 16.6504H35.0289C35.0005 15.3359 34.4584 14.0848 33.5187 13.1651C32.579 12.2455 31.3164 11.7305 30.0016 11.7305C28.6867 11.7305 27.4242 12.2455 26.4845 13.1651C25.5447 14.0848 25.0026 15.3359 24.9742 16.6504H19.1816C18.7118 16.6504 18.2611 16.8367 17.9283 17.1684C17.5955 17.5 17.4078 17.9501 17.4062 18.42V46.5121C17.4063 46.983 17.5933 47.4346 17.9262 47.7675C18.2592 48.1005 18.7108 48.2875 19.1816 48.2875H40.8215C41.2923 48.2875 41.7439 48.1005 42.0769 47.7675C42.4098 47.4346 42.5969 46.983 42.5969 46.5121V18.42C42.5953 17.9501 42.4076 17.5 42.0748 17.1684C41.742 16.8367 41.2913 16.6504 40.8215 16.6504ZM30.0016 15.2746C30.3761 15.2749 30.7367 15.4169 31.0108 15.6721C31.285 15.9273 31.4524 16.2768 31.4793 16.6504H28.5238C28.5508 16.2768 28.7181 15.9273 28.9923 15.6721C29.2664 15.4169 29.627 15.2749 30.0016 15.2746ZM26.7648 20.1965H33.2383V21.55H26.7648V20.1965ZM30.7305 41.0829H24.884C24.4134 41.0829 23.9622 40.8959 23.6294 40.5632C23.2967 40.2305 23.1098 39.7792 23.1098 39.3086C23.1098 38.8381 23.2967 38.3868 23.6294 38.0541C23.9622 37.7213 24.4134 37.5344 24.884 37.5344H30.7305C31.201 37.5344 31.6523 37.7213 31.985 38.0541C32.3178 38.3868 32.5047 38.8381 32.5047 39.3086C32.5047 39.7792 32.3178 40.2305 31.985 40.5632C31.6523 40.8959 31.201 41.0829 30.7305 41.0829ZM34.8848 36.1047H24.884C24.4212 36.0928 23.9813 35.9006 23.6582 35.5691C23.335 35.2375 23.1542 34.7929 23.1542 34.3299C23.1542 33.867 23.335 33.4223 23.6582 33.0908C23.9813 32.7592 24.4212 32.567 24.884 32.5551H34.8848C35.3476 32.567 35.7874 32.7592 36.1106 33.0908C36.4337 33.4223 36.6145 33.867 36.6145 34.3299C36.6145 34.7929 36.4337 35.2375 36.1106 35.5691C35.7874 35.9006 35.3476 36.0928 34.8848 36.1047ZM34.8848 31.1254H24.884C24.4212 31.1135 23.9813 30.9213 23.6582 30.5898C23.335 30.2582 23.1542 29.8136 23.1542 29.3506C23.1542 28.8877 23.335 28.443 23.6582 28.1115C23.9813 27.7799 24.4212 27.5877 24.884 27.5758H34.8848C35.3476 27.5877 35.7874 27.7799 36.1106 28.1115C36.4337 28.443 36.6145 28.8877 36.6145 29.3506C36.6145 29.8136 36.4337 30.2582 36.1106 30.5898C35.7874 30.9213 35.3476 31.1135 34.8848 31.1254Z" fill="#009A06"/>
</g>
<defs>
<clipPath id="clip0_1871_213248">
<rect width="60" height="60" fill="white" transform="translate(0 0.0214844)"/>
</clipPath>
</defs>
</svg>
