<svg width="60" height="61" viewBox="0 0 60 61" fill="none" xmlns="http://www.w3.org/2000/svg">
<g clip-path="url(#clip0_1871_213270)">
<path d="M30 60.0215C46.5685 60.0215 60 46.59 60 30.0215C60 13.4529 46.5685 0.0214844 30 0.0214844C13.4315 0.0214844 0 13.4529 0 30.0215C0 46.59 13.4315 60.0215 30 60.0215Z" fill="white"/>
<path d="M40.2035 32.8504C40.5459 33.6408 40.7451 34.608 40.7891 35.7264C41.9447 35.9912 42.8095 37.0248 42.8095 38.2592C42.8095 39.6928 41.6431 40.8592 40.2095 40.8592C38.7759 40.8592 37.6095 39.6928 37.6095 38.2592C37.6095 37.0388 38.4555 36.016 39.5907 35.7364C39.5407 34.6256 39.2751 32.9356 38.1879 32.1012C37.6331 31.9576 37.0627 31.8536 36.4775 31.8C36.4343 33.746 30.0023 38.5484 30.0023 38.5484C30.0023 38.5484 23.5683 33.7468 23.5247 31.8008C22.8747 31.86 22.2423 31.9788 21.6315 32.15C20.8383 32.778 20.4279 33.948 20.4067 35.6488C20.6399 35.7828 20.8283 35.992 20.9439 36.2452C21.7983 36.6488 22.5531 37.4976 23.1311 38.706C23.2279 38.9092 23.2407 39.1388 23.1695 39.3484C23.5159 40.24 23.7139 41.2144 23.7139 42.0328C23.7139 43.1796 23.7139 44.264 22.4639 44.5424C22.3287 44.6548 22.1591 44.7168 21.9811 44.7168H21.1459C20.7271 44.7168 20.3863 44.3752 20.3863 43.9576L20.3871 43.928C20.4031 43.524 20.7411 43.198 21.1459 43.198H21.9811C22.0667 43.198 22.1503 43.2124 22.2311 43.2404C22.2815 43.2264 22.2975 43.2148 22.2979 43.2144C22.3907 43.0496 22.3907 42.3632 22.3907 42.0336C22.3907 41.3688 22.2243 40.566 21.9327 39.82C21.7815 39.734 21.6591 39.604 21.5839 39.4468C21.0775 38.3864 20.3887 37.7016 19.8295 37.7016C19.2575 37.7016 18.5343 38.4424 18.0299 39.5432C17.9475 39.7228 17.8031 39.8688 17.6255 39.9564C17.3619 40.67 17.2171 41.4048 17.2171 42.0332C17.2171 42.31 17.2171 43.0444 17.3227 43.2172C17.3239 43.2172 17.3475 43.2316 17.4139 43.248C17.5003 43.2148 17.5931 43.1976 17.6859 43.1976H18.5227C18.9127 43.1976 19.2387 43.4944 19.2779 43.8804L19.2819 43.9272C19.2819 44.3756 18.9411 44.7172 18.5227 44.7172H17.6859C17.5199 44.7172 17.3595 44.6616 17.2275 44.5608C16.7495 44.4708 16.4127 44.26 16.1995 43.9168C15.9411 43.502 15.8939 42.9572 15.8939 42.0332C15.8939 41.2228 16.0811 40.2892 16.4211 39.3976C16.3711 39.2068 16.3879 39.0076 16.4711 38.828C16.8251 38.0536 17.2755 37.3904 17.7731 36.9108C18.0467 36.6472 18.3407 36.4352 18.6483 36.2804C18.7635 36.0108 18.9635 35.7896 19.2079 35.65C19.2207 34.584 19.3847 33.6636 19.6879 32.9048C16.2167 34.6656 13.8379 38.2668 13.8379 42.4256C13.8379 47.74 17.7207 48 22.8035 48C23.3583 48 23.9263 47.9968 24.5067 47.9968H35.4935C36.0731 47.9968 36.6411 48 37.1959 48C42.2795 48 46.1639 47.74 46.1639 42.4256C46.1635 38.2228 43.7339 34.59 40.2035 32.8504Z" fill="#FFC133"/>
<path d="M30.003 33.1968C34.9166 33.1968 38.8994 25.8084 38.8994 20.8952C38.8994 15.9828 34.9166 12 30.003 12C25.0902 12 21.1074 15.9828 21.1074 20.8952C21.1074 25.8084 25.0902 33.1968 30.003 33.1968Z" fill="#FFC133"/>
<path d="M40.2098 39.4592C40.8725 39.4592 41.4098 38.9219 41.4098 38.2592C41.4098 37.5965 40.8725 37.0592 40.2098 37.0592C39.547 37.0592 39.0098 37.5965 39.0098 38.2592C39.0098 38.9219 39.547 39.4592 40.2098 39.4592Z" fill="#FFC133"/>
</g>
<defs>
<clipPath id="clip0_1871_213270">
<rect width="60" height="60" fill="white" transform="translate(0 0.0214844)"/>
</clipPath>
</defs>
</svg>
