<svg width="60" height="61" viewBox="0 0 60 61" fill="none" xmlns="http://www.w3.org/2000/svg">
<path d="M30 60.0215C46.5685 60.0215 60 46.59 60 30.0215C60 13.4529 46.5685 0.0214844 30 0.0214844C13.4315 0.0214844 0 13.4529 0 30.0215C0 46.59 13.4315 60.0215 30 60.0215Z" fill="white"/>
<path d="M26.9375 37V47.0625H20.8125V37C20.8125 36.884 20.8586 36.7727 20.9406 36.6906C21.0227 36.6086 21.134 36.5625 21.25 36.5625H26.5C26.616 36.5625 26.7273 36.6086 26.8094 36.6906C26.8914 36.7727 26.9375 36.884 26.9375 37ZM34.8125 16V45.75C34.808 46.0967 34.6682 46.4279 34.4231 46.6731C34.1779 46.9182 33.8467 47.058 33.5 47.0625H29.5625V37C29.5579 36.1892 29.2338 35.4129 28.6604 34.8396C28.0871 34.2662 27.3108 33.9421 26.5 33.9375H21.25C20.4392 33.9421 19.6629 34.2662 19.0896 34.8396C18.5162 35.4129 18.1921 36.1892 18.1875 37V47.0625H14.25C13.9033 47.058 13.5721 46.9182 13.3269 46.6731C13.0818 46.4279 12.942 46.0967 12.9375 45.75V16C12.9421 15.1892 13.2662 14.4129 13.8396 13.8396C14.4129 13.2662 15.1892 12.9421 16 12.9375H31.75C32.5608 12.9421 33.3371 13.2662 33.9104 13.8396C34.4838 14.4129 34.8079 15.1892 34.8125 16ZM28.6875 24.75C28.683 24.4033 28.5432 24.0721 28.2981 23.8269C28.0529 23.5818 27.7217 23.442 27.375 23.4375H25.1875V21.25C25.1875 20.9019 25.0492 20.5681 24.8031 20.3219C24.5569 20.0758 24.2231 19.9375 23.875 19.9375C23.5269 19.9375 23.1931 20.0758 22.9469 20.3219C22.7008 20.5681 22.5625 20.9019 22.5625 21.25V23.4375H20.375C20.0269 23.4375 19.6931 23.5758 19.4469 23.8219C19.2008 24.0681 19.0625 24.4019 19.0625 24.75C19.0625 25.0981 19.2008 25.4319 19.4469 25.6781C19.6931 25.9242 20.0269 26.0625 20.375 26.0625H22.5625V28.25C22.5625 28.5981 22.7008 28.9319 22.9469 29.1781C23.1931 29.4242 23.5269 29.5625 23.875 29.5625C24.2231 29.5625 24.5569 29.4242 24.8031 29.1781C25.0492 28.9319 25.1875 28.5981 25.1875 28.25V26.0625H27.375C27.7217 26.058 28.0529 25.9182 28.2981 25.6731C28.5432 25.4279 28.683 25.0967 28.6875 24.75ZM47.0625 26.5V45.75C47.058 46.0967 46.9182 46.4279 46.6731 46.6731C46.4279 46.9182 46.0967 47.058 45.75 47.0625H37.21C37.3576 46.6405 37.4344 46.197 37.4375 45.75V23.4375H44C44.8108 23.4421 45.5871 23.7662 46.1604 24.3396C46.7338 24.9129 47.0579 25.6892 47.0625 26.5ZM44.4375 40.5C44.433 40.1533 44.2932 39.8221 44.0481 39.5769C43.8029 39.3318 43.4717 39.192 43.125 39.1875H41.375C41.0269 39.1875 40.6931 39.3258 40.4469 39.5719C40.2008 39.8181 40.0625 40.1519 40.0625 40.5C40.0625 40.8481 40.2008 41.1819 40.4469 41.4281C40.6931 41.6742 41.0269 41.8125 41.375 41.8125H43.125C43.4717 41.808 43.8029 41.6682 44.0481 41.4231C44.2932 41.1779 44.433 40.8467 44.4375 40.5ZM44.4375 35.25C44.433 34.9033 44.2932 34.5721 44.0481 34.3269C43.8029 34.0818 43.4717 33.942 43.125 33.9375H41.375C41.0269 33.9375 40.6931 34.0758 40.4469 34.3219C40.2008 34.5681 40.0625 34.9019 40.0625 35.25C40.0625 35.5981 40.2008 35.9319 40.4469 36.1781C40.6931 36.4242 41.0269 36.5625 41.375 36.5625H43.125C43.4717 36.558 43.8029 36.4182 44.0481 36.1731C44.2932 35.9279 44.433 35.5967 44.4375 35.25ZM44.4375 30C44.433 29.6533 44.2932 29.3221 44.0481 29.0769C43.8029 28.8318 43.4717 28.692 43.125 28.6875H41.375C41.0269 28.6875 40.6931 28.8258 40.4469 29.0719C40.2008 29.3181 40.0625 29.6519 40.0625 30C40.0625 30.3481 40.2008 30.6819 40.4469 30.9281C40.6931 31.1742 41.0269 31.3125 41.375 31.3125H43.125C43.4717 31.308 43.8029 31.1682 44.0481 30.9231C44.2932 30.6779 44.433 30.3467 44.4375 30Z" fill="#3B56A6"/>
</svg>
