<svg width="16" height="16" viewBox="0 0 16 16" fill="none" xmlns="http://www.w3.org/2000/svg">
<path d="M16 6.48268V12.6667C15.9989 13.5504 15.6474 14.3976 15.0225 15.0225C14.3976 15.6474 13.5504 15.999 12.6667 16H12C11.8232 16 11.6536 15.9298 11.5286 15.8047C11.4036 15.6797 11.3333 15.5102 11.3333 15.3333C11.3333 15.1565 11.4036 14.987 11.5286 14.8619C11.6536 14.7369 11.8232 14.6667 12 14.6667H12.6667C13.1971 14.6667 13.7058 14.456 14.0809 14.0809C14.456 13.7058 14.6667 13.1971 14.6667 12.6667V6.48268C14.6667 6.15529 14.5863 5.8329 14.4327 5.54382C14.279 5.25473 14.0567 5.00779 13.7853 4.82468L9.11867 1.67601C8.78892 1.45121 8.39909 1.33098 8 1.33098C7.60092 1.33098 7.21109 1.45121 6.88134 1.67601L2.21467 4.82468C1.94328 5.00779 1.721 5.25473 1.56733 5.54382C1.41367 5.8329 1.33332 6.15529 1.33334 6.48268V12.6667C1.33334 13.1971 1.54405 13.7058 1.91912 14.0809C2.2942 14.456 2.8029 14.6667 3.33334 14.6667H4C4.17681 14.6667 4.34638 14.7369 4.47141 14.8619C4.59643 14.987 4.66667 15.1565 4.66667 15.3333C4.66667 15.5102 4.59643 15.6797 4.47141 15.8047C4.34638 15.9298 4.17681 16 4 16H3.33334C2.44961 15.999 1.60237 15.6474 0.977483 15.0225C0.352591 14.3976 0.00106118 13.5504 2.61138e-06 12.6667V6.48268C-0.000680639 5.93715 0.132722 5.39983 0.388472 4.91797C0.644222 4.43611 1.01448 4.0245 1.46667 3.71934L6.13334 0.570008C6.68351 0.196644 7.3331 -0.00296021 7.998 -0.00296021C8.6629 -0.00296021 9.3125 0.196644 9.86267 0.570008L14.5293 3.71934C14.982 4.02434 15.3528 4.43582 15.6092 4.91764C15.8656 5.39945 15.9998 5.93687 16 6.48268ZM12.6667 10.0047C12.6684 10.6177 12.5485 11.2249 12.3139 11.7913C12.0793 12.3576 11.7347 12.8718 11.3 13.304L8.95667 15.596C8.70014 15.8444 8.35707 15.9832 8 15.9832C7.64294 15.9832 7.29987 15.8444 7.04334 15.596L4.70534 13.3093C4.1616 12.7673 3.76 12.0995 3.53613 11.3651C3.31226 10.6307 3.27304 9.8524 3.42196 9.09922C3.57087 8.34604 3.90331 7.64124 4.38981 7.04729C4.8763 6.45334 5.50183 5.98859 6.21093 5.69425C6.92002 5.39991 7.69079 5.28507 8.45489 5.35991C9.219 5.43475 9.95283 5.69695 10.5913 6.12328C11.2299 6.54961 11.7533 7.12689 12.1153 7.80395C12.4774 8.481 12.6667 9.23691 12.6667 10.0047ZM11.3333 10.0047C11.3333 9.45652 11.1982 8.91683 10.9398 8.43339C10.6814 7.94995 10.3078 7.5377 9.85202 7.23314C9.39626 6.92859 8.87243 6.74113 8.32692 6.68737C7.78141 6.63361 7.23106 6.71521 6.72462 6.92494C6.21817 7.13467 5.77127 7.46606 5.42349 7.88976C5.07571 8.31346 4.83778 8.81639 4.73079 9.35399C4.62379 9.8916 4.65103 10.4473 4.81009 10.9719C4.96915 11.4964 5.25512 11.9737 5.64267 12.3613L7.976 14.6427L10.3627 12.356C10.6717 12.0476 10.9167 11.681 11.0833 11.2775C11.2499 10.8739 11.3349 10.4413 11.3333 10.0047ZM10 10C10 10.3956 9.88271 10.7823 9.66294 11.1111C9.44318 11.44 9.13082 11.6964 8.76537 11.8478C8.39992 11.9991 7.99779 12.0388 7.60982 11.9616C7.22186 11.8844 6.86549 11.6939 6.58579 11.4142C6.30608 11.1345 6.1156 10.7782 6.03843 10.3902C5.96126 10.0022 6.00087 9.60009 6.15224 9.23464C6.30362 8.86919 6.55996 8.55683 6.88886 8.33707C7.21776 8.11731 7.60444 8.00001 8 8.00001C8.53044 8.00001 9.03914 8.21072 9.41422 8.58579C9.78929 8.96087 10 9.46958 10 10Z" fill="#1470F5"/>
</svg>
