<svg width="1440" height="201" viewBox="0 0 1440 201" fill="none" xmlns="http://www.w3.org/2000/svg">
<rect width="1440" height="200" rx="5" fill="#1470F5"/>
<g style="mix-blend-mode:color-dodge" opacity="0.2">
<path d="M1065.74 39.3135C974.039 27.5127 982.665 19.3213 1012.57 14.1128C1026.89 11.6216 1046.16 9.80713 1061.87 8.61704C1076.26 7.52565 1087.6 6.96123 1089.39 6.87344C1089.48 6.8692 1089.49 6.77127 1089.42 6.72508C1089.4 6.71462 1089.41 6.70839 1089.39 6.70935C1088.71 6.74268 1040.44 9.01719 1011.6 14.0301C981.182 19.3169 972.879 27.6367 1064.81 39.4397C1157.88 51.4123 1171.39 67.4208 1100.12 79.8178C1034.19 91.29 895.458 99.7012 679.401 98.9397C394.598 97.9302 224.119 112.927 125.03 130.169C42.1368 144.585 9.15019 160.563 0.643258 170.07C0.372163 170.372 0.600968 170.83 1.00749 170.827C1.15531 170.826 1.28798 170.766 1.38106 170.651C8.99767 161.254 41.5743 144.933 125.981 130.25C224.844 113.058 394.678 98.0977 679.175 99.1028C895.458 99.8665 1034.69 91.4489 1101.08 79.9048C1172.85 67.4187 1159.13 51.3122 1065.74 39.3135Z" fill="url(#paint0_linear_413_35585)"/>
</g>
<g style="mix-blend-mode:color-dodge" opacity="0.4">
<path d="M675.034 132.986C675.034 132.985 675.034 132.984 675.035 132.984C692.979 111.961 725.482 100.245 766.545 93.1024C853.252 77.9816 979.572 83.2771 1089.59 64.1639C1126.53 57.7348 1161.56 48.5535 1192.58 34.9143C1239.51 14.2906 1222.63 2.39573 1219.1 0.368988C1218.73 0.152553 1218.3 0.0677253 1217.86 0.086304C1217.93 0.074687 1217.92 -0.000177105 1217.86 0.00135769C1217.74 0.00405425 1217.62 0.0107289 1217.51 0.0210341C1217.29 0.0437353 1217.17 0.0801395 1217.18 0.113535C1217.18 0.117362 1217.18 0.12127 1217.18 0.125466C1217.18 0.125466 1217.19 0.135611 1217.19 0.137792C1217.2 0.142965 1217.23 0.152681 1217.25 0.160277C1217.3 0.184209 1217.36 0.221195 1217.46 0.264708C1217.62 0.356086 1217.88 0.497504 1218.18 0.684611C1218.78 1.05883 1219.59 1.62015 1220.39 2.35987C1221.99 3.84585 1223.6 6.06285 1223.59 8.99129C1223.59 14.8482 1217.1 23.5443 1191.28 34.8947C1160.29 48.5187 1125.33 57.6783 1088.54 64.0747C979.297 83.1031 853.22 77.7901 765.497 93.0154C724.143 100.208 691.64 111.959 673.696 132.998C663.877 144.507 643.998 151.85 617.541 156.449C566.433 165.35 490.238 164.062 412.963 162.861C335.817 161.664 257.591 160.559 203.306 169.995C184.762 173.225 169.053 177.679 157.136 183.774C156.845 183.923 156.95 184.357 157.277 184.36C157.33 184.36 157.381 184.348 157.428 184.323C169.415 177.97 185.415 173.376 204.338 170.086C257.945 160.757 335.333 161.834 412.608 163.035C489.738 164.231 566.723 165.554 618.573 156.538C645.287 151.891 665.182 144.516 675.033 132.988C675.034 132.987 675.034 132.986 675.034 132.986Z" fill="url(#paint1_linear_413_35585)"/>
</g>
<g style="mix-blend-mode:color-dodge" opacity="0.8">
<path d="M454.838 128.753C454.837 128.753 454.837 128.752 454.838 128.752C468.284 126.416 487.645 124.554 515.37 123.262C669.243 116.099 749.259 106.99 804.784 97.3298C857.989 88.0746 888.75 78.3211 940.729 69.2855C972.893 63.6897 1013.2 58.3637 1071.97 53.5925C1136.6 48.347 1181.7 42.7773 1212.91 37.3446C1308.37 20.7367 1273.98 5.46961 1272.48 4.82855C1272.44 4.8084 1272.41 4.80922 1272.35 4.81224C1272.06 4.82953 1271.98 5.26823 1272.24 5.40308C1273.11 5.8531 1274.37 6.58604 1275.51 7.56418C1277.54 9.28078 1279.24 11.7436 1277.9 14.7352C1275.21 20.7204 1260.42 28.8139 1211.88 37.2554C1180.79 42.662 1135.88 48.2143 1071.42 53.4467C1012.43 58.2354 971.942 63.5831 939.681 69.1963C887.589 78.2623 856.812 88.0136 803.769 97.2406C748.388 106.872 668.775 115.943 515.112 123.098C487.155 124.397 467.47 126.29 453.83 128.662C372.525 142.87 505.979 174.073 358.604 200.725C358.451 200.753 358.407 200.986 358.561 200.999C358.573 201 358.585 200.999 358.597 200.997C508.034 174.192 373.924 142.775 454.837 128.754C454.838 128.754 454.839 128.753 454.838 128.753Z" fill="url(#paint2_linear_413_35585)"/>
</g>
<g style="mix-blend-mode:color-dodge" opacity="0.5">
<path d="M1075.51 74.9706C1075.51 74.972 1075.52 74.973 1075.52 74.9734C1213.93 86.0226 1410.06 77.5531 1436.53 77.3246C1437.44 77.3201 1438.2 77.3162 1438.78 77.3322C1439.58 77.3538 1439.68 77.6464 1438.89 77.7455C1438.26 77.8248 1437.39 77.9124 1436.3 78.0238C1436.29 78.0247 1436.28 78.0244 1436.28 78.0228C1436.17 78.0035 1436.18 77.8502 1436.28 77.8396C1437.76 77.6921 1438.59 77.579 1438.77 77.5313C1438.8 77.5226 1438.79 77.5089 1438.76 77.5068C1438.71 77.5024 1438.59 77.4955 1438.34 77.4878C1437.93 77.4791 1437.3 77.4769 1436.45 77.4835C1434.76 77.4965 1432.27 77.5487 1429.08 77.627C1422.7 77.7837 1413.56 78.0578 1402.19 78.3798C1379.46 79.0238 1347.86 79.8615 1311.69 80.3619C1239.4 81.3648 1148.87 81.0233 1074.77 75.1076C934.218 63.8899 776.653 61.0463 603.417 70.8107C534.155 74.716 462.394 80.6403 388.214 88.8513C267.779 102.186 228.327 114.911 193.841 125.74C159.388 136.561 129.787 145.508 29.1503 151.177C20.1774 151.684 10.6733 152.162 0.493276 152.614C0.477103 152.615 0.46104 152.611 0.447285 152.602C0.380157 152.561 0.407525 152.457 0.486454 152.454C10.514 152.007 19.9241 151.532 28.7795 151.034C128.932 145.384 158.195 136.524 192.713 125.696C227.183 114.868 266.796 102.095 387.488 88.7338C461.765 80.512 533.639 74.5789 603.062 70.6671C776.666 60.879 934.744 63.731 1075.49 74.9677C1075.5 74.9682 1075.5 74.9691 1075.51 74.9706Z" fill="url(#paint3_linear_413_35585)"/>
</g>
<g style="mix-blend-mode:color-dodge" opacity="0.1">
<path d="M950.84 66.9815C950.836 66.9815 950.835 66.9874 950.838 66.9895C980.328 83.367 979.872 91.6934 955.016 96.0505C923.673 101.437 857.055 100.337 767.398 100.659C677.677 100.965 564.916 102.599 441.708 113.158C315.55 123.971 227.263 135.33 168.029 145.632C98.502 157.726 69.0229 168.371 65.2986 174.938C64.9924 175.477 64.4789 175.93 63.8583 175.941C63.0353 175.957 62.4432 175.212 62.9217 174.542C67.709 167.842 97.6376 157.343 165.998 145.449C225.473 135.104 314.05 123.708 440.515 112.873C564.4 102.255 677.902 100.609 767.769 100.306C857.7 100.019 923.948 100.978 953 95.8634C976.749 91.7601 977.845 83.4687 948.244 67.1098C912.565 47.3635 954.758 32.4211 1016.18 21.7473C1059.05 14.2913 1111.21 8.90871 1152.69 5.38196C1173.43 3.62185 1191.52 2.3208 1204.4 1.46359C1210.86 1.03281 1216.02 0.712987 1219.57 0.499773C1220.56 0.439447 1221.41 0.389788 1222.13 0.348685C1222.14 0.34824 1222.14 0.33856 1222.13 0.333399C1222.13 0.32822 1222.13 0.318495 1222.14 0.318098C1223.16 0.26649 1223.91 0.231983 1224.41 0.206058C1224.66 0.195527 1224.85 0.184995 1224.99 0.178412C1225 0.177983 1225.01 0.17754 1225.02 0.177087C1225.03 0.17637 1225.06 0.175197 1225.08 0.17409C1225.15 0.171421 1225.21 0.169797 1225.28 0.166897C1225.28 0.166896 1225.28 0.166896 1225.28 0.166896C1225.28 0.166892 1225.29 0.166136 1225.32 0.165071C1225.35 0.163387 1225.39 0.16213 1225.43 0.16124C1225.46 0.160614 1225.49 0.159819 1225.52 0.158984C1225.54 0.158468 1225.56 0.15804 1225.58 0.157839C1225.63 0.157329 1225.74 0.156613 1225.86 0.158194C1226.03 0.162401 1226.19 0.168642 1226.33 0.180852C1226.34 0.181684 1226.34 0.181888 1226.35 0.18306C1226.37 0.185808 1226.4 0.18764 1226.42 0.190213C1226.46 0.194695 1226.53 0.202787 1226.59 0.21214C1226.62 0.216493 1226.64 0.222382 1226.67 0.226832C1226.68 0.227212 1226.68 0.227546 1226.68 0.227814C1226.68 0.227815 1226.68 0.227814 1226.68 0.227815C1226.7 0.230451 1226.73 0.238887 1226.74 0.2438C1226.76 0.248101 1226.77 0.252538 1226.78 0.257066C1226.81 0.268438 1226.83 0.302482 1226.81 0.322124C1226.8 0.338275 1226.77 0.354118 1226.73 0.369233C1226.69 0.381613 1226.64 0.393993 1226.59 0.405205C1226.56 0.410378 1226.56 0.41299 1226.53 0.417029C1226.51 0.420148 1226.48 0.423266 1226.46 0.426512C1226.39 0.437928 1226.31 0.449208 1226.23 0.459431C1226.2 0.463206 1226.16 0.466406 1226.13 0.469018C1226.11 0.471287 1226.08 0.473665 1226.07 0.473665C1225.99 0.482367 1225.87 0.49107 1225.78 0.495421C1224.34 0.580272 1216.97 0.989297 1204.85 1.80517C1166.17 4.38551 1081.79 10.8712 1018.23 21.93C957.346 32.5262 915.414 47.3137 950.841 66.9732C950.845 66.9753 950.844 66.9815 950.84 66.9815ZM1226.7 0.371408C1226.65 0.386638 1226.61 0.401868 1226.52 0.414922C1226.58 0.401868 1226.65 0.386638 1226.7 0.371408ZM1226.68 0.238693C1226.74 0.249571 1226.78 0.266977 1226.78 0.288733C1226.78 0.273504 1226.74 0.253923 1226.68 0.238693Z" fill="url(#paint4_linear_413_35585)"/>
</g>
<defs>
<linearGradient id="paint0_linear_413_35585" x1="1115.09" y1="10.6847" x2="1089.17" y2="278.04" gradientUnits="userSpaceOnUse">
<stop stop-color="#2B328B"/>
<stop offset="0.27" stop-color="#D6EACA"/>
<stop offset="0.57" stop-color="#3B56A6"/>
<stop offset="0.82" stop-color="white"/>
<stop offset="1" stop-color="#4F63AE"/>
</linearGradient>
<linearGradient id="paint1_linear_413_35585" x1="1253.47" y1="4.97053" x2="1225.87" y2="289.719" gradientUnits="userSpaceOnUse">
<stop stop-color="#2B328B"/>
<stop offset="0.27" stop-color="#D6EACA"/>
<stop offset="0.57" stop-color="#3B56A6"/>
<stop offset="0.82" stop-color="white"/>
<stop offset="1" stop-color="#4F63AE"/>
</linearGradient>
<linearGradient id="paint2_linear_413_35585" x1="1257.52" y1="4.8843" x2="1230.07" y2="288.12" gradientUnits="userSpaceOnUse">
<stop stop-color="#2B328B"/>
<stop offset="0.27" stop-color="#D6EACA"/>
<stop offset="0.57" stop-color="#3B56A6"/>
<stop offset="0.82" stop-color="white"/>
<stop offset="1" stop-color="#4F63AE"/>
</linearGradient>
<linearGradient id="paint3_linear_413_35585" x1="1368.72" y1="56.9426" x2="1184.23" y2="576.556" gradientUnits="userSpaceOnUse">
<stop stop-color="#2B328B"/>
<stop offset="0.27" stop-color="#D6EACA"/>
<stop offset="0.57" stop-color="#3B56A6"/>
<stop offset="0.82" stop-color="white"/>
<stop offset="1" stop-color="#4F63AE"/>
</linearGradient>
<linearGradient id="paint4_linear_413_35585" x1="606.559" y1="178.784" x2="607.958" y2="-4.96867" gradientUnits="userSpaceOnUse">
<stop stop-color="#2B328B"/>
<stop offset="0.27" stop-color="#D6EACA"/>
<stop offset="0.57" stop-color="#3B56A6"/>
<stop offset="0.82" stop-color="white"/>
<stop offset="1" stop-color="#4F63AE"/>
</linearGradient>
</defs>
</svg>
