<svg width="100" height="100" viewBox="0 0 100 100" fill="none" xmlns="http://www.w3.org/2000/svg">
<g clip-path="url(#clip0_545_12388)">
<path d="M91.5255 18.1785L80.3207 94.3771C79.8143 97.8254 76.7043 100.28 73.2302 99.9741L14.4088 94.7737C10.8959 94.4612 8.29886 91.4568 8.40877 88.0172C8.42342 87.4564 7.70704 92.512 19.3226 13.2194C19.814 9.85951 22.7817 7.42632 26.1718 7.60088L85.3531 10.6505C89.2367 10.8487 92.0876 14.3492 91.5255 18.1785Z" fill="#A3A3F5"/>
<path d="M88.144 11.4306C88.1294 12.0039 88.8723 6.78299 76.8724 88.3857C76.366 91.8361 73.256 94.2909 69.7819 93.9849L10.9605 88.7844C10.0359 88.7025 9.17386 88.4331 8.40877 88.0172C8.42342 87.4564 7.70704 92.512 19.3226 13.2194C19.814 9.85951 22.7817 7.42632 26.1718 7.60088L85.3531 10.6505C86.366 10.7022 87.3121 10.9802 88.144 11.4306Z" fill="#C5C5FE"/>
<path d="M31.029 11.0037L75.2165 13.2039C77.7348 13.3294 79.6295 15.5466 79.3605 18.0535L72.2025 84.7969C71.946 87.1885 69.8117 88.9277 67.4176 88.6959L21.8771 84.2872C19.4061 84.048 17.6257 81.8081 17.9503 79.3469L26.4611 14.8119C26.7601 12.5468 28.7471 10.8901 31.029 11.0037Z" fill="#FBF5F7"/>
<path d="M73.7351 6.05778L73.2049 10.0233L68.8342 9.79702L68.0734 15.1052C67.7501 17.3789 65.7243 19.0169 63.4333 18.8596L42.2371 17.4134C39.6649 17.2384 37.8338 14.8985 38.1961 12.4091L39.4461 3.76036C39.7672 1.5319 41.7242 -0.0909542 43.9742 0.00387379C70.087 1.11509 65.6928 0.927585 69.5734 1.0944C72.151 1.20431 74.0777 3.49958 73.7351 6.05778Z" fill="#52528C"/>
<path d="M73.7344 6.05778L73.2042 10.0233L68.8335 9.79702L68.0727 15.1052C67.7495 17.3789 65.7236 19.0169 63.4326 18.8596L42.2364 17.4134C40.273 17.2798 38.7192 15.8768 38.2773 14.0837C45.5851 14.6897 40.873 14.3423 60.6848 15.6936C62.9779 15.8509 65.0016 14.213 65.327 11.9371C66.227 5.63148 65.8859 8.16253 66.8141 0.975861L69.5727 1.0944C72.1044 1.19116 74.0827 3.4651 73.7344 6.05778Z" fill="#404077"/>
<path d="M73.7349 6.05778L73.2047 10.0233L68.834 9.79702L70.0711 1.14397C72.3943 1.50604 74.056 3.66768 73.7349 6.05778Z" fill="#303060"/>
<path d="M31.9611 33.6995L30.6912 42.7345C30.5162 43.9791 31.4393 45.1088 32.6938 45.1855L42.3689 45.7778C43.5282 45.8487 44.5353 44.9883 44.646 43.8321L45.5251 34.6493C45.6424 33.4243 44.712 32.3499 43.4829 32.2911L34.1986 31.8467C33.0859 31.7935 32.116 32.5965 31.9611 33.6995Z" fill="#52528C"/>
<path d="M36.3598 41.6967L28.4934 37.7096C27.4847 37.1984 27.0815 35.9663 27.5927 34.9577C28.1039 33.9491 29.3356 33.5461 30.3447 34.057L36.9731 37.4168L51.3413 24.7566C52.1896 24.0089 53.4833 24.0908 54.231 24.9393C54.9784 25.7878 54.8967 27.0814 54.0482 27.829L38.6387 41.4067C38.0081 41.9627 37.1046 42.0743 36.3598 41.6967Z" fill="#B4FFC6"/>
<path d="M29.2384 59.3115L27.9686 68.3464C27.7936 69.591 28.7167 70.7208 29.9712 70.7975L39.6462 71.3897C40.8055 71.4606 41.8126 70.6003 41.9234 69.444L42.8025 60.2612C42.9197 59.0362 41.9893 57.9619 40.7602 57.903L31.4759 57.4586C30.3632 57.4054 29.3934 58.2087 29.2384 59.3115Z" fill="#52528C"/>
<path d="M33.6371 67.3089L25.7707 63.3218C24.7621 62.8106 24.3588 61.5785 24.8701 60.5699C25.3813 59.5613 26.613 59.1582 27.622 59.6692L34.2505 63.0289L48.6186 50.3688C49.4669 49.6211 50.7607 49.703 51.5083 50.5515C52.2557 51.4 52.1741 52.6936 51.3256 53.4412L35.916 67.0188C35.2854 67.5749 34.382 67.6863 33.6371 67.3089Z" fill="#B4FFC6"/>
</g>
<defs>
<clipPath id="clip0_545_12388">
<rect width="100" height="100" fill="white"/>
</clipPath>
</defs>
</svg>
