<svg width="20" height="20" viewBox="0 0 20 20" fill="none" xmlns="http://www.w3.org/2000/svg">
<g clip-path="url(#clip0_1653_121112)">
<path d="M2.5 -1.5299e-06L17.5 -2.18557e-07C18.8783 -9.80592e-08 20 1.12167 20 2.5L20 20L-1.74846e-06 20L-2.18557e-07 2.5C-9.80592e-08 1.12166 1.12167 -1.6504e-06 2.5 -1.5299e-06ZM4.89917 8.85083L11.4642 15.4167L15 15.4167L15 11.8817L8.43417 5.31583C7.49 4.37167 5.84333 4.37167 4.89833 5.31583C3.92417 6.29083 3.925 7.87583 4.89917 8.85083ZM8.125 9.72L12.155 13.75L13.3342 13.75L13.3342 12.5717L9.30417 8.54167L8.12583 9.72L8.125 9.72ZM6.0775 6.49417C5.7525 6.81917 5.7525 7.3475 6.0775 7.6725L6.94667 8.54166L8.125 7.36333L7.25583 6.49417C6.94167 6.17833 6.3925 6.17833 6.0775 6.49417Z" fill="#1470F5"/>
</g>
<defs>
<clipPath id="clip0_1653_121112">
<rect width="20" height="20" fill="white" transform="matrix(-1 -8.74228e-08 -8.74228e-08 1 20 0)"/>
</clipPath>
</defs>
</svg>
