<svg width="866" height="725" viewBox="0 0 866 725" fill="none" xmlns="http://www.w3.org/2000/svg">
<path opacity="0.05" fill-rule="evenodd" clip-rule="evenodd" d="M445.043 1.27279C536.798 8.35774 557.054 103.792 627.676 152.473C693.635 197.94 806.054 204.391 835.969 270.747C866.841 339.229 876.541 413.724 852.58 484.051C827.938 556.375 775.729 621.618 701.505 665.402C627.564 709.019 535.973 721.453 445.043 724.454C350.626 727.569 264.52 718.186 186.145 674.788C106.35 630.604 46.9734 564.663 19.5504 488.848C-7.33841 414.51 -6.11779 336.181 20.9109 261.877C48.4561 186.152 95.9117 114.547 172.916 67.2325C250.568 19.5198 348.527 -6.1798 445.043 1.27279Z" fill="#1470F5"/>
</svg>
