<svg width="700" height="326" viewBox="0 0 700 326" fill="none" xmlns="http://www.w3.org/2000/svg">
<mask id="mask0_818_20671" style="mask-type:alpha" maskUnits="userSpaceOnUse" x="0" y="0" width="700" height="326">
<rect width="700" height="326" rx="25" fill="#1470F5"/>
</mask>
<g mask="url(#mask0_818_20671)">
<g style="mix-blend-mode:color-dodge" opacity="0.2">
<path d="M515.851 -64.139C471.463 -92.6136 475.638 -112.379 490.114 -124.947C497.044 -130.958 506.369 -135.336 513.978 -138.208C520.846 -140.805 526.277 -142.165 527.258 -142.405C527.352 -142.428 527.396 -142.508 527.366 -142.6C527.329 -142.716 527.215 -142.791 527.096 -142.763C524.77 -142.195 502.94 -136.668 489.646 -125.146C474.92 -112.389 470.901 -92.3144 515.398 -63.8345C560.449 -34.9453 566.989 3.68225 532.488 33.5952C500.579 61.2771 433.428 81.5725 328.85 79.7351C190.997 77.2993 108.48 113.486 60.518 155.09C19.5075 190.644 3.73412 230.137 0.0552689 252.867C0.0256312 253.05 0.172154 253.206 0.357542 253.2C0.498831 253.195 0.615873 253.096 0.638251 252.956C4.26837 230.312 20.0105 190.812 60.9784 155.284C108.831 113.801 191.036 77.7035 328.74 80.1289C433.428 81.9715 500.821 61.6603 532.956 33.8052C567.691 3.677 561.05 -35.1868 515.851 -64.139Z" fill="url(#paint0_linear_818_20671)"/>
</g>
<g style="mix-blend-mode:color-dodge" opacity="0.4">
<path d="M326.736 161.886C326.736 161.884 326.736 161.882 326.736 161.88C335.422 111.154 351.154 82.8846 371.03 65.65C412.998 29.1644 474.141 41.9423 527.393 -4.17664C545.272 -19.6896 562.229 -41.8435 577.244 -74.754C601.788 -128.524 590.274 -157.704 589.814 -158.826C589.801 -158.858 589.776 -158.855 589.743 -158.848L589.669 -158.832C589.618 -158.821 589.586 -158.885 589.625 -158.919C589.652 -158.943 589.645 -158.987 589.609 -158.993C589.517 -159.011 589.405 -158.994 589.308 -158.949C589.206 -158.895 589.144 -158.808 589.15 -158.729C589.151 -158.718 589.152 -158.708 589.152 -158.697C589.152 -158.697 589.155 -158.67 589.161 -158.657C589.164 -158.649 589.169 -158.639 589.174 -158.63C589.18 -158.619 589.186 -158.607 589.19 -158.595C589.213 -158.538 589.243 -158.456 589.285 -158.361C589.363 -158.141 589.488 -157.8 589.636 -157.348C589.925 -156.445 590.315 -155.091 590.705 -153.306C591.478 -149.72 592.258 -144.371 592.25 -137.305C592.25 -123.172 589.113 -102.189 576.612 -74.8013C561.613 -41.9275 544.694 -19.8261 526.886 -4.39188C474.008 41.5223 412.983 28.7024 370.522 65.44C350.506 82.7957 334.774 111.149 326.088 161.914C321.335 189.685 311.713 207.403 298.908 218.501C274.17 239.978 237.289 236.87 199.886 233.972C162.545 231.085 124.681 228.418 98.406 251.186C89.2296 259.155 81.4877 270.21 75.6748 285.425C75.601 285.619 75.737 285.829 75.9436 285.839C76.0757 285.846 76.1974 285.765 76.2443 285.641C82.0416 270.373 89.7698 259.324 98.9054 251.407C124.853 228.896 162.311 231.494 199.714 234.392C237.047 237.28 274.31 240.471 299.407 218.716C312.337 207.503 321.967 189.708 326.735 161.891C326.736 161.889 326.736 161.887 326.736 161.886Z" fill="url(#paint1_linear_818_20671)"/>
</g>
<g style="mix-blend-mode:color-dodge" opacity="0.8">
<path d="M220.156 151.672C220.155 151.672 220.154 151.67 220.155 151.67C226.663 146.033 236.035 141.54 249.455 138.422C323.934 121.14 362.664 99.159 389.54 75.8502C415.293 53.5178 430.182 29.9833 455.341 8.18114C470.91 -5.32118 490.419 -18.1725 518.864 -29.6852C550.149 -42.3423 571.976 -55.7816 587.084 -68.8902C632.126 -107.953 617.445 -143.941 616.004 -147.165C615.938 -147.313 615.776 -147.365 615.621 -147.319C615.438 -147.265 615.346 -147.059 615.423 -146.885C615.764 -146.108 616.625 -143.984 617.386 -140.748C618.369 -136.606 619.189 -130.664 618.541 -123.445C617.238 -109.003 610.082 -89.4744 586.585 -69.1054C571.539 -56.0598 549.798 -42.6625 518.599 -30.0369C490.045 -18.4822 470.449 -5.57841 454.834 7.9659C429.62 29.8415 414.723 53.3708 389.049 75.6349C362.243 98.8755 323.708 120.762 249.33 138.028C235.799 141.162 226.27 145.729 219.668 151.452C180.275 185.769 245.039 261.178 173.362 325.529C173.229 325.649 173.258 325.874 173.423 325.942C173.509 325.978 173.611 325.958 173.68 325.896C245.841 261.238 181.01 185.487 220.157 151.675C220.158 151.674 220.157 151.672 220.156 151.672Z" fill="url(#paint2_linear_818_20671)"/>
</g>
<g style="mix-blend-mode:color-dodge" opacity="0.5">
<path d="M520.576 21.8988C520.579 21.9023 520.582 21.9049 520.586 21.9065C587.581 48.5662 682.508 28.1302 695.321 27.579C695.82 27.5668 696.221 27.5564 696.517 27.6145C696.875 27.6849 697.055 28.1106 696.786 28.3577C696.52 28.6018 696.017 28.8541 695.328 29.2063C695.254 29.2442 695.164 29.232 695.102 29.1757C694.998 29.0801 695.024 28.9094 695.151 28.8468C695.88 28.4869 696.296 28.2085 696.399 28.086C696.404 28.0805 696.414 28.0627 696.417 28.0561C696.428 28.0321 696.411 28.0214 696.386 28.0129C696.355 28.0025 696.299 27.9883 696.195 27.9728C696 27.9518 695.696 27.9465 695.282 27.9623C694.463 27.9938 693.261 28.1197 691.716 28.3087C688.626 28.6867 684.201 29.3482 678.699 30.1252C667.696 31.6791 652.401 33.7002 634.897 34.9077C599.905 37.3278 556.087 36.5036 520.221 22.2296C452.188 -4.83807 375.922 -11.6995 292.071 11.8613C258.546 21.2846 223.811 35.5796 187.906 55.3921C129.612 87.5677 110.517 118.273 93.8245 144.401C77.1479 170.513 62.8202 192.1 14.1093 205.781C9.81213 206.99 5.26329 208.133 0.394904 209.214C0.299509 209.235 0.203478 209.18 0.173428 209.087C0.139073 208.981 0.203859 208.868 0.312907 208.844C5.13744 207.77 9.66643 206.631 13.9298 205.435C62.4066 191.801 76.5704 170.424 93.2782 144.296C109.963 118.168 129.136 87.3472 187.555 55.1086C223.507 35.2699 258.296 20.9539 291.899 11.5148C375.927 -12.103 452.441 -5.22171 520.566 21.8911C520.57 21.8927 520.573 21.8954 520.576 21.8988Z" fill="url(#paint3_linear_818_20671)"/>
</g>
<g style="mix-blend-mode:color-dodge" opacity="0.1">
<path d="M460.234 2.62198C460.23 2.62198 460.228 2.62589 460.229 2.62946C474.507 42.155 474.288 62.2491 462.255 72.7637C447.085 85.762 414.84 83.1056 371.443 83.8826C328.015 84.6228 273.436 88.5653 213.8 114.042C152.735 140.133 110.002 167.542 81.3312 192.4C46.3574 222.729 32.3193 249.279 31.4517 264.932C31.4339 265.254 31.1865 265.509 30.8659 265.539C30.4805 265.575 30.1505 265.273 30.1741 264.886C31.1508 248.929 45.3347 222.328 80.3479 191.959C109.136 166.996 152.01 139.498 213.222 113.355C273.186 87.7359 328.125 83.7618 371.623 83.0321C415.152 82.3392 447.217 84.6543 461.28 72.3122C472.775 62.4112 473.305 42.4044 458.978 2.93172C441.708 -44.7149 462.13 -80.77 491.863 -106.525C512.613 -124.516 537.858 -137.504 557.937 -146.014C567.973 -150.261 576.728 -153.4 582.964 -155.468C586.093 -156.508 588.59 -157.28 590.307 -157.794C590.776 -157.936 591.178 -158.054 591.522 -158.152C591.541 -158.157 591.552 -158.176 591.548 -158.195C591.543 -158.214 591.555 -158.234 591.574 -158.238C592.056 -158.36 592.412 -158.441 592.648 -158.503C592.768 -158.528 592.858 -158.553 592.928 -158.569C592.934 -158.57 592.94 -158.572 592.946 -158.573C592.953 -158.575 592.964 -158.577 592.975 -158.58C593.006 -158.586 593.038 -158.59 593.069 -158.597C593.069 -158.597 593.069 -158.597 593.069 -158.597C593.101 -158.604 593.132 -158.609 593.164 -158.613C593.167 -158.614 593.169 -158.614 593.172 -158.614C593.192 -158.617 593.212 -158.619 593.232 -158.62C593.26 -158.621 593.304 -158.621 593.35 -158.618C593.434 -158.608 593.51 -158.593 593.578 -158.563C593.582 -158.561 593.583 -158.561 593.587 -158.559C593.598 -158.552 593.614 -158.547 593.625 -158.541C593.646 -158.529 593.682 -158.506 593.713 -158.481C593.721 -158.475 593.728 -158.468 593.736 -158.461C593.74 -158.457 593.745 -158.453 593.748 -158.45C593.748 -158.45 593.748 -158.45 593.748 -158.45C593.763 -158.441 593.772 -158.423 593.782 -158.409C593.799 -158.386 593.807 -158.361 593.809 -158.336C593.811 -158.318 593.813 -158.3 593.815 -158.281C593.82 -158.222 593.799 -158.164 593.772 -158.109C593.751 -158.076 593.724 -158.043 593.696 -158.014C593.689 -158.007 593.688 -158.006 593.682 -157.999C593.672 -157.987 593.649 -157.977 593.636 -157.967C593.602 -157.938 593.559 -157.909 593.515 -157.883C593.509 -157.88 593.509 -157.879 593.503 -157.876C593.474 -157.864 593.437 -157.849 593.408 -157.836C593.377 -157.823 593.342 -157.812 593.311 -157.805C592.617 -157.6 589.05 -156.613 583.182 -154.644C564.461 -148.418 523.616 -132.769 492.854 -106.084C463.381 -80.5141 443.084 -44.8288 460.239 2.61452C460.241 2.6181 460.238 2.62198 460.234 2.62198ZM593.756 -158.104C593.747 -158.09 593.747 -158.09 593.756 -158.104V-158.104ZM593.795 -158.303C593.795 -158.317 593.795 -158.319 593.795 -158.305C593.795 -158.304 593.795 -158.304 593.795 -158.303Z" fill="url(#paint4_linear_818_20671)"/>
</g>
</g>
<defs>
<linearGradient id="paint0_linear_818_20671" x1="539.734" y1="-133.218" x2="284.639" y2="394.687" gradientUnits="userSpaceOnUse">
<stop stop-color="#2B328B"/>
<stop offset="0.27" stop-color="#D6EACA"/>
<stop offset="0.57" stop-color="#3B56A6"/>
<stop offset="0.82" stop-color="white"/>
<stop offset="1" stop-color="#4F63AE"/>
</linearGradient>
<linearGradient id="paint1_linear_818_20671" x1="606.717" y1="-147.006" x2="335.026" y2="415.243" gradientUnits="userSpaceOnUse">
<stop stop-color="#2B328B"/>
<stop offset="0.27" stop-color="#D6EACA"/>
<stop offset="0.57" stop-color="#3B56A6"/>
<stop offset="0.82" stop-color="white"/>
<stop offset="1" stop-color="#4F63AE"/>
</linearGradient>
<linearGradient id="paint2_linear_818_20671" x1="608.678" y1="-147.215" x2="338.431" y2="412.048" gradientUnits="userSpaceOnUse">
<stop stop-color="#2B328B"/>
<stop offset="0.27" stop-color="#D6EACA"/>
<stop offset="0.57" stop-color="#3B56A6"/>
<stop offset="0.82" stop-color="white"/>
<stop offset="1" stop-color="#4F63AE"/>
</linearGradient>
<linearGradient id="paint3_linear_818_20671" x1="662.5" y1="-21.6014" x2="57.8459" y2="320.008" gradientUnits="userSpaceOnUse">
<stop stop-color="#2B328B"/>
<stop offset="0.27" stop-color="#D6EACA"/>
<stop offset="0.57" stop-color="#3B56A6"/>
<stop offset="0.82" stop-color="white"/>
<stop offset="1" stop-color="#4F63AE"/>
</linearGradient>
<linearGradient id="paint4_linear_818_20671" x1="293.592" y1="272.394" x2="310.402" y2="-170.377" gradientUnits="userSpaceOnUse">
<stop stop-color="#2B328B"/>
<stop offset="0.27" stop-color="#D6EACA"/>
<stop offset="0.57" stop-color="#3B56A6"/>
<stop offset="0.82" stop-color="white"/>
<stop offset="1" stop-color="#4F63AE"/>
</linearGradient>
</defs>
</svg>
