<svg width="24" height="24" viewBox="0 0 24 24" fill="none" xmlns="http://www.w3.org/2000/svg">
<rect y="-0.000976562" width="24" height="24" rx="12" fill="#007983"/>
<g clip-path="url(#clip0_762_3709)">
<path d="M12.0003 4.00098C13.7678 4.00292 15.4624 4.70592 16.7122 5.95574C17.962 7.20556 18.6651 8.90013 18.667 10.6676C18.667 14.189 13.067 19.023 12.431 19.563L12.0003 19.927L11.5697 19.563C10.9337 19.023 5.33366 14.189 5.33366 10.6676C5.3356 8.90013 6.0386 7.20556 7.28842 5.95574C8.53825 4.70592 10.2328 4.00292 12.0003 4.00098ZM12.0003 14.001C12.6596 14.001 13.3041 13.8055 13.8522 13.4392C14.4004 13.0729 14.8276 12.5523 15.0799 11.9433C15.3322 11.3342 15.3982 10.6639 15.2696 10.0173C15.141 9.37074 14.8235 8.7768 14.3573 8.31062C13.8912 7.84445 13.2972 7.52698 12.6506 7.39836C12.004 7.26974 11.3338 7.33575 10.7247 7.58804C10.1156 7.84034 9.59503 8.26758 9.22876 8.81574C8.86249 9.36391 8.66699 10.0084 8.66699 10.6676C8.66805 11.5514 9.01958 12.3986 9.64447 13.0235C10.2694 13.6484 11.1166 13.9999 12.0003 14.001Z" fill="white"/>
<path d="M12 12.6675C10.8954 12.6675 10 11.7721 10 10.6675C10 9.56291 10.8954 8.66748 12 8.66748C13.1046 8.66748 14 9.56291 14 10.6675C14 11.7721 13.1046 12.6675 12 12.6675Z" fill="white"/>
</g>
<defs>
<clipPath id="clip0_762_3709">
<rect width="16" height="16" fill="white" transform="matrix(-1 0 0 1 20 4.00098)"/>
</clipPath>
</defs>
</svg>
