<svg width="24" height="24" viewBox="0 0 24 24" fill="none" xmlns="http://www.w3.org/2000/svg">
<rect y="-0.000976562" width="24" height="24" rx="12" fill="#007983"/>
<g clip-path="url(#clip0_762_3714)">
<path d="M18.4168 11.4157C18.2621 11.4157 18.1138 11.3543 18.0044 11.2449C17.895 11.1355 17.8335 10.9871 17.8335 10.8324C17.8323 9.59511 17.3402 8.40884 16.4653 7.53394C15.5904 6.65904 14.4041 6.16698 13.1668 6.16574C13.0121 6.16574 12.8638 6.10428 12.7544 5.99489C12.645 5.88549 12.5835 5.73712 12.5835 5.58241C12.5835 5.4277 12.645 5.27932 12.7544 5.16993C12.8638 5.06053 13.0121 4.99907 13.1668 4.99907C14.7134 5.00077 16.1962 5.6159 17.2898 6.70949C18.3833 7.80309 18.9985 9.28583 19.0002 10.8324C19.0002 10.9871 18.9387 11.1355 18.8293 11.2449C18.7199 11.3543 18.5715 11.4157 18.4168 11.4157ZM16.6668 10.8324C16.6668 9.90415 16.2981 9.01391 15.6417 8.35753C14.9853 7.70116 14.0951 7.33241 13.1668 7.33241C13.0121 7.33241 12.8638 7.39387 12.7544 7.50326C12.645 7.61266 12.5835 7.76103 12.5835 7.91574C12.5835 8.07045 12.645 8.21882 12.7544 8.32822C12.8638 8.43762 13.0121 8.49907 13.1668 8.49907C13.7857 8.49907 14.3792 8.74491 14.8168 9.18249C15.2543 9.62008 15.5002 10.2136 15.5002 10.8324C15.5002 10.9871 15.5616 11.1355 15.671 11.2449C15.7804 11.3543 15.9288 11.4157 16.0835 11.4157C16.2382 11.4157 16.3866 11.3543 16.496 11.2449C16.6054 11.1355 16.6668 10.9871 16.6668 10.8324ZM17.9403 17.9281L18.4711 17.3162C18.809 16.9772 18.9987 16.5181 18.9987 16.0395C18.9987 15.5609 18.809 15.1019 18.4711 14.7629C18.453 14.7448 17.0495 13.6651 17.0495 13.6651C16.7127 13.3444 16.2652 13.1659 15.8002 13.1665C15.3351 13.1672 14.8882 13.347 14.5523 13.6686L13.4404 14.6054C12.5329 14.2298 11.7084 13.6786 11.0145 12.9835C10.3206 12.2883 9.7708 11.463 9.39676 10.5547L10.3301 9.44641C10.6519 9.11051 10.8319 8.6635 10.8327 8.19831C10.8334 7.73312 10.6549 7.28552 10.3342 6.94857C10.3342 6.94857 9.25326 5.54682 9.23517 5.52874C8.90235 5.19376 8.4511 5.00317 7.97892 4.99815C7.50674 4.99313 7.05154 5.17408 6.71167 5.50191L6.04084 6.08524C2.07767 10.6831 10.6118 19.1513 15.3613 18.9991C15.8409 19.0019 16.3162 18.9085 16.7592 18.7246C17.2021 18.5406 17.6037 18.2698 17.9403 17.9281Z" fill="white"/>
</g>
<defs>
<clipPath id="clip0_762_3714">
<rect width="14" height="14" fill="white" transform="translate(5 4.99902)"/>
</clipPath>
</defs>
</svg>
