<svg width="24" height="24" viewBox="0 0 24 24" fill="none" xmlns="http://www.w3.org/2000/svg">
<rect y="-0.000976562" width="24" height="24" rx="12" fill="#007983"/>
<g clip-path="url(#clip0_762_3718)">
<path d="M18.9732 8.23193L14.0627 13.1424C13.5151 13.6886 12.7733 13.9953 12 13.9953C11.2266 13.9953 10.4849 13.6886 9.93733 13.1424L5.02683 8.23193C5.01867 8.3241 5 8.40752 5 8.4991V15.4991C5.00093 16.2724 5.30851 17.0137 5.85529 17.5605C6.40208 18.1073 7.1434 18.4148 7.91667 18.4158H16.0833C16.8566 18.4148 17.5979 18.1073 18.1447 17.5605C18.6915 17.0137 18.9991 16.2724 19 15.4991V8.4991C19 8.40752 18.9813 8.3241 18.9732 8.23193Z" fill="white"/>
<path d="M13.2374 12.3177L18.5656 6.98894C18.3075 6.56096 17.9434 6.20671 17.5086 5.96036C17.0737 5.71402 16.5827 5.58388 16.0829 5.58252H7.91626C7.41647 5.58388 6.92547 5.71402 6.49061 5.96036C6.05575 6.20671 5.69171 6.56096 5.43359 6.98894L10.7618 12.3177C11.0905 12.6451 11.5356 12.829 11.9996 12.829C12.4636 12.829 12.9087 12.6451 13.2374 12.3177Z" fill="white"/>
</g>
<defs>
<clipPath id="clip0_762_3718">
<rect width="14" height="14" fill="white" transform="translate(5 4.99902)"/>
</clipPath>
</defs>
</svg>
