<svg width="20" height="20" viewBox="0 0 20 20" fill="none" xmlns="http://www.w3.org/2000/svg">
	<g id="tags 1" clip-path="url(#clip0_762_6190)">
		<path id="Vector" d="M6.42239 7.71324C6.74822 8.03907 6.74822 8.56657 6.42239 8.89157C6.09655 9.21741 5.56905 9.21741 5.24405 8.89157C4.91822 8.56574 4.91822 8.03824 5.24405 7.71324C5.56989 7.38741 6.09739 7.38741 6.42239 7.71324ZM17.9657 12.7841L17.4949 13.2549C17.4724 14.2824 17.0741 15.3024 16.2991 16.0874L13.6599 18.7607C12.8741 19.5566 11.8257 19.9966 10.7074 19.9999H10.6932C9.58072 19.9999 8.53489 19.5666 7.74822 18.7799L1.56822 12.6524C1.02655 12.1116 0.764888 11.3674 0.848221 10.6082L1.48572 4.84491C1.52822 4.46491 1.82239 4.16241 2.20072 4.11074L7.94155 3.32574C8.71822 3.22241 9.49989 3.48657 10.0482 4.03491L16.2774 10.2116C16.5999 10.5341 16.8582 10.8974 17.0532 11.2849C17.7299 10.3132 17.6349 8.95574 16.7682 8.08907L10.4424 1.91824C10.2516 1.72741 9.98822 1.63907 9.73322 1.67491L3.99239 2.45991C3.53489 2.52157 3.11572 2.20241 3.05322 1.74741C2.99155 1.29157 3.31072 0.871573 3.76572 0.809073L9.50739 0.0232398C10.2749 -0.0859269 11.0649 0.182406 11.6141 0.73324L17.9382 6.90407C19.5599 8.52491 19.5691 11.1599 17.9649 12.7849L17.9657 12.7841ZM15.1007 11.3924L8.87155 5.21574C8.68572 5.02991 8.42489 4.94407 8.16572 4.97657L3.06989 5.67407L2.50405 10.7907C2.47655 11.0432 2.56322 11.2916 2.74322 11.4707L8.92322 17.5982C9.39739 18.0732 10.0249 18.3324 10.6924 18.3324H10.7007C11.3724 18.3307 12.0016 18.0666 12.4724 17.5882L15.1116 14.9149C16.0741 13.9399 16.0691 12.3591 15.0999 11.3907L15.1007 11.3924Z" fill="white"/>
	</g>
	<defs>
		<clipPath id="clip0_762_6190">
			<rect width="20" height="20" fill="white"/>
		</clipPath>
	</defs>
</svg>
