<svg width="375" height="120" viewBox="0 0 375 120" fill="none" xmlns="http://www.w3.org/2000/svg">
<rect width="375" height="120" fill="#1470F5"/>
<mask id="mask0_968_48850" style="mask-type:alpha" maskUnits="userSpaceOnUse" x="0" y="0" width="375" height="120">
<rect width="375" height="120" rx="30" fill="#1470F5"/>
</mask>
<g mask="url(#mask0_968_48850)">
<g style="mix-blend-mode:color-dodge" opacity="0.2">
<path d="M275.318 -48.139C251.628 -76.6136 253.856 -96.3788 261.582 -108.947C265.281 -114.958 270.258 -119.336 274.319 -122.208C278.371 -125.079 281.487 -126.439 281.491 -126.444L281.428 -126.812C281.412 -126.801 268.829 -121.32 261.332 -109.146C253.473 -96.3893 251.328 -76.3143 275.077 -47.8345C299.121 -18.9453 302.611 19.6823 284.198 49.5953C267.167 77.2771 231.328 97.5726 175.513 95.7352C101.938 93.2993 57.8975 129.486 32.2995 171.09C10.3 206.825 1.90756 246.539 0 269.213L0.320704 269.192C2.21994 246.586 10.6041 206.935 32.5452 171.284C58.0849 129.801 101.959 93.7035 175.454 96.1289C231.328 97.9716 267.296 77.6603 284.448 49.8053C302.986 19.677 299.442 -19.1867 275.318 -48.139Z" fill="url(#paint0_linear_968_48850)"/>
</g>
<g style="mix-blend-mode:color-dodge" opacity="0.4">
<path d="M174.384 177.883C179.019 127.155 187.416 98.885 198.024 81.6501C220.423 45.1644 253.056 57.9423 281.478 11.8234C291.02 -3.68956 300.071 -25.8435 308.084 -58.754C321.445 -113.598 314.785 -142.86 314.785 -142.86L314.615 -142.792L314.723 -142.97C314.669 -143.017 314.59 -143.007 314.523 -142.949C314.465 -142.891 314.431 -142.797 314.44 -142.713V-142.697C314.44 -142.697 314.44 -142.687 314.44 -142.676C314.44 -142.676 314.448 -142.64 314.456 -142.613C314.469 -142.556 314.486 -142.466 314.511 -142.361C314.552 -142.141 314.619 -141.8 314.698 -141.348C314.852 -140.445 315.06 -139.091 315.269 -137.306C315.681 -133.72 316.097 -128.371 316.093 -121.305C316.093 -107.172 314.419 -86.1891 307.747 -58.8013C299.742 -25.9274 290.712 -3.82607 281.207 11.6082C252.985 57.5223 220.415 44.7025 197.753 81.4401C187.07 98.7957 178.674 127.15 174.038 177.914C171.502 205.686 166.366 223.403 159.531 234.501C146.328 255.978 126.645 252.87 106.682 249.972C86.7524 247.085 66.5439 244.418 52.5203 267.186C47.5807 275.224 43.4198 286.4 40.3086 301.819L40.6501 301.85C43.7489 286.474 47.8889 275.36 52.7869 267.407C66.6355 244.896 86.6274 247.494 106.59 250.392C126.516 253.28 146.403 256.471 159.798 234.717C166.699 223.503 171.839 205.707 174.384 177.888V177.883Z" fill="url(#paint1_linear_968_48850)"/>
</g>
<g style="mix-blend-mode:color-dodge" opacity="0.8">
<path d="M117.499 167.672C120.972 162.034 125.974 157.54 133.138 154.422C172.889 137.14 193.56 115.159 207.904 91.8502C221.648 69.5178 229.595 45.9833 243.023 24.1812C251.332 10.6788 261.745 -2.1725 276.926 -13.6852C293.624 -26.3423 305.273 -39.7816 313.336 -52.8902C338.526 -93.8223 328.718 -131.379 328.714 -131.4L328.38 -131.216C328.38 -131.216 328.988 -128.896 329.509 -124.748C330.034 -120.606 330.471 -114.664 330.125 -107.445C329.43 -93.0034 325.611 -73.4744 313.07 -53.1054C305.04 -40.0598 293.436 -26.6625 276.784 -14.0369C261.545 -2.48224 251.087 10.4216 242.752 23.9659C229.295 45.8415 221.344 69.3708 207.642 91.635C193.335 114.876 172.768 136.762 133.072 154.028C125.85 157.162 120.764 161.729 117.24 167.452C96.1865 201.816 130.877 277.386 92.3672 341.795L92.6337 342C131.247 277.318 96.5946 201.501 117.503 167.672H117.499Z" fill="url(#paint2_linear_968_48850)"/>
</g>
<g style="mix-blend-mode:color-dodge" opacity="0.5">
<path d="M277.842 37.9041C313.599 64.5675 364.266 44.1303 371.105 43.579C371.563 43.558 371.867 43.5423 371.996 43.873C372.05 44.335 371.688 44.65 371.042 45.2695L370.872 44.9755C371.359 44.545 371.63 44.209 371.684 44.0778C371.696 44.0358 371.692 44.0358 371.692 44.0305C371.692 44.0305 371.684 44.0043 371.571 43.9728C371.467 43.9518 371.305 43.9465 371.084 43.9623C370.647 43.9938 370.005 44.1198 369.181 44.3087C367.531 44.6867 365.17 45.3482 362.233 46.1252C356.361 47.6791 348.197 49.7002 338.855 50.9077C320.18 53.3278 296.793 52.5036 277.651 38.2296C241.34 11.1619 200.636 4.30053 155.883 27.8613C137.99 37.2846 119.452 51.5796 100.289 71.3921C69.1766 103.568 58.9848 134.273 50.0759 160.401C41.1754 186.514 33.5284 208.1 7.53058 221.781C5.21068 223.004 2.75334 224.159 0.121069 225.251L0.0585938 224.889C2.67421 223.802 5.12738 222.647 7.43479 221.435C33.3077 207.801 40.8671 186.424 49.7844 160.296C58.6891 134.168 68.9225 103.347 100.102 71.1086C119.29 51.2699 137.857 36.9539 155.792 27.5149C200.64 3.8963 241.478 10.7787 277.838 37.8936L277.842 37.9041Z" fill="url(#paint3_linear_968_48850)"/>
</g>
<g style="mix-blend-mode:color-dodge" opacity="0.1">
<path d="M245.631 18.622C253.253 58.1525 253.136 78.2485 246.714 88.7637C238.617 101.762 221.407 99.1057 198.246 99.8826C175.068 100.623 145.938 104.565 114.109 130.042C81.5179 156.133 58.7104 183.542 43.4083 208.4C24.52 239.09 17.073 265.911 16.7732 281.487L16.0859 281.607C16.3983 265.737 23.9119 238.791 42.8835 207.959C58.2481 182.996 81.1305 155.498 113.801 129.355C145.804 103.736 175.126 99.7619 198.342 99.0322C221.574 98.3392 238.688 100.654 246.193 88.3122C252.328 78.4112 252.611 58.4045 244.964 18.9317C235.747 -28.7148 246.647 -64.77 262.516 -90.5252C273.59 -108.516 287.064 -121.504 297.781 -130.014C303.137 -134.261 307.81 -137.4 311.138 -139.468C312.808 -140.508 314.141 -141.28 315.057 -141.794C315.315 -141.941 315.536 -142.062 315.723 -142.162L315.715 -142.23C315.982 -142.356 316.177 -142.44 316.307 -142.503C316.373 -142.529 316.423 -142.555 316.461 -142.571C316.461 -142.571 316.494 -142.587 316.506 -142.587C316.506 -142.587 316.519 -142.592 316.531 -142.597C316.531 -142.597 316.544 -142.603 316.556 -142.608C316.556 -142.608 316.581 -142.613 316.602 -142.618C316.602 -142.618 316.64 -142.624 316.681 -142.618C316.727 -142.608 316.769 -142.592 316.806 -142.561C316.806 -142.561 316.815 -142.55 316.819 -142.55C316.819 -142.55 316.856 -142.513 316.881 -142.471C316.881 -142.471 316.89 -142.456 316.894 -142.45C316.894 -142.45 316.902 -142.44 316.902 -142.429C316.923 -142.393 316.927 -142.351 316.927 -142.309C316.935 -142.24 316.923 -142.172 316.906 -142.109C316.894 -142.072 316.877 -142.036 316.861 -142.004C316.861 -142.004 316.856 -141.988 316.844 -141.983C316.823 -141.946 316.794 -141.91 316.765 -141.878C316.765 -141.878 316.74 -141.857 316.736 -141.857C316.715 -141.836 316.686 -141.815 316.661 -141.805C316.29 -141.6 314.386 -140.613 311.254 -138.644C301.263 -132.418 279.463 -116.769 263.045 -90.0842C247.314 -64.5127 236.48 -28.8251 245.639 18.622H245.631ZM316.898 -142.104C316.885 -142.067 316.877 -142.03 316.852 -141.999C316.869 -142.03 316.885 -142.067 316.898 -142.104ZM316.894 -142.424C316.91 -142.398 316.919 -142.356 316.919 -142.303C316.919 -142.34 316.91 -142.387 316.894 -142.424Z" fill="url(#paint4_linear_968_48850)"/>
</g>
</g>
<defs>
<linearGradient id="paint0_linear_968_48850" x1="288.065" y1="-117.218" x2="-35.9195" y2="240.622" gradientUnits="userSpaceOnUse">
<stop stop-color="#2B328B"/>
<stop offset="0.27" stop-color="#D6EACA"/>
<stop offset="0.57" stop-color="#3B56A6"/>
<stop offset="0.82" stop-color="white"/>
<stop offset="1" stop-color="#4F63AE"/>
</linearGradient>
<linearGradient id="paint1_linear_968_48850" x1="323.814" y1="-131.006" x2="-21.2479" y2="250.115" gradientUnits="userSpaceOnUse">
<stop stop-color="#2B328B"/>
<stop offset="0.27" stop-color="#D6EACA"/>
<stop offset="0.57" stop-color="#3B56A6"/>
<stop offset="0.82" stop-color="white"/>
<stop offset="1" stop-color="#4F63AE"/>
</linearGradient>
<linearGradient id="paint2_linear_968_48850" x1="324.862" y1="-131.215" x2="-18.3676" y2="247.882" gradientUnits="userSpaceOnUse">
<stop stop-color="#2B328B"/>
<stop offset="0.27" stop-color="#D6EACA"/>
<stop offset="0.57" stop-color="#3B56A6"/>
<stop offset="0.82" stop-color="white"/>
<stop offset="1" stop-color="#4F63AE"/>
</linearGradient>
<linearGradient id="paint3_linear_968_48850" x1="353.588" y1="-5.60145" x2="-36.6515" y2="112.068" gradientUnits="userSpaceOnUse">
<stop stop-color="#2B328B"/>
<stop offset="0.27" stop-color="#D6EACA"/>
<stop offset="0.57" stop-color="#3B56A6"/>
<stop offset="0.82" stop-color="white"/>
<stop offset="1" stop-color="#4F63AE"/>
</linearGradient>
<linearGradient id="paint4_linear_968_48850" x1="156.696" y1="288.394" x2="188.077" y2="-152.783" gradientUnits="userSpaceOnUse">
<stop stop-color="#2B328B"/>
<stop offset="0.27" stop-color="#D6EACA"/>
<stop offset="0.57" stop-color="#3B56A6"/>
<stop offset="0.82" stop-color="white"/>
<stop offset="1" stop-color="#4F63AE"/>
</linearGradient>
</defs>
</svg>
