<svg width="16" height="17" viewBox="0 0 16 17" fill="none" xmlns="http://www.w3.org/2000/svg">
<g id="caret-right 1">
<path id="Vector" d="M6.00001 11.9414V4.49476C5.99924 4.36235 6.03792 4.2327 6.11112 4.12235C6.18432 4.01201 6.28873 3.92596 6.41102 3.87518C6.53332 3.8244 6.66797 3.8112 6.7978 3.83724C6.92763 3.86329 7.04676 3.92741 7.14001 4.02143L10.86 7.7481C10.9842 7.873 11.0539 8.04197 11.0539 8.2181C11.0539 8.39422 10.9842 8.56319 10.86 8.6881L7.14001 12.4148C7.04676 12.5088 6.92763 12.5729 6.7978 12.5989C6.66797 12.625 6.53332 12.6118 6.41102 12.561C6.28873 12.5102 6.18432 12.4242 6.11112 12.3138C6.03792 12.2035 5.99924 12.0738 6.00001 11.9414Z" fill="#1470F5"/>
</g>
</svg>
