<svg width="100" height="100" viewBox="0 0 100 100" fill="none" xmlns="http://www.w3.org/2000/svg">
<g id="list 2" clip-path="url(#clip0_767_2927)">
<g id="Group">
<path id="Vector" d="M91.5255 18.1785L80.3207 94.3771C79.8143 97.8254 76.7043 100.28 73.2302 99.9741L14.4088 94.7737C10.8959 94.4612 8.29886 91.4568 8.40877 88.0172C8.42342 87.4564 7.70704 92.512 19.3226 13.2194C19.814 9.8595 22.7817 7.4263 26.1718 7.60087L85.3531 10.6505C89.2367 10.8487 92.0876 14.3492 91.5255 18.1785Z" fill="#A3A3F5"/>
<path id="Vector_2" d="M88.144 11.4306C88.1294 12.0039 88.8723 6.78297 76.8724 88.3857C76.366 91.8361 73.256 94.2909 69.7819 93.9848L10.9605 88.7844C10.0359 88.7025 9.17386 88.4331 8.40877 88.0172C8.42342 87.4564 7.70704 92.512 19.3226 13.2194C19.814 9.8595 22.7817 7.4263 26.1718 7.60087L85.3531 10.6505C86.366 10.7022 87.3121 10.9802 88.144 11.4306Z" fill="#C5C5FE"/>
<path id="Vector_3" d="M31.029 11.0038L75.2165 13.204C77.7348 13.3295 79.6295 15.5467 79.3605 18.0536L72.2025 84.797C71.946 87.1886 69.8117 88.9278 67.4176 88.6959L21.8771 84.2873C19.4061 84.0481 17.6257 81.8082 17.9503 79.347L26.4611 14.812C26.7601 12.5469 28.7471 10.8902 31.029 11.0038Z" fill="#FBF5F7"/>
<path id="Vector_4" d="M73.7351 6.05786L73.2049 10.0234L68.8342 9.7971L68.0734 15.1053C67.7501 17.379 65.7243 19.017 63.4333 18.8596L42.2371 17.4135C39.6649 17.2385 37.8338 14.8986 38.1961 12.4092L39.4461 3.76043C39.7672 1.53197 41.7242 -0.0908779 43.9742 0.00395009C70.087 1.11516 65.6928 0.927661 69.5734 1.09447C72.151 1.20439 74.0777 3.49965 73.7351 6.05786Z" fill="#52528C"/>
<path id="Vector_5" d="M73.7344 6.05775L73.2042 10.0233L68.8335 9.79699L68.0727 15.1052C67.7495 17.3789 65.7236 19.0169 63.4326 18.8595L42.2364 17.4134C40.273 17.2798 38.7192 15.8768 38.2773 14.0836C45.5851 14.6897 40.873 14.3423 60.6848 15.6936C62.9779 15.8509 65.0016 14.213 65.327 11.9371C66.227 5.63145 65.8859 8.1625 66.8141 0.97583L69.5727 1.09437C72.1044 1.19113 74.0827 3.46507 73.7344 6.05775Z" fill="#404077"/>
<path id="Vector_6" d="M73.7349 6.05786L73.2047 10.0234L68.834 9.7971L70.0711 1.14404C72.3943 1.50611 74.056 3.66776 73.7349 6.05786Z" fill="#303060"/>
<path id="Vector_7" d="M31.9611 33.6995L30.6912 42.7345C30.5162 43.9791 31.4393 45.1089 32.6938 45.1856L42.3689 45.7778C43.5282 45.8487 44.5353 44.9884 44.646 43.8321L45.5251 34.6493C45.6424 33.4243 44.712 32.35 43.4829 32.2911L34.1986 31.8467C33.0859 31.7935 32.116 32.5965 31.9611 33.6995Z" fill="#52528C"/>
<g id="Group_2">
<path id="Vector_8" d="M36.3598 41.6968L28.4934 37.7097C27.4847 37.1985 27.0815 35.9664 27.5927 34.9578C28.1039 33.9491 29.3356 33.5461 30.3447 34.0571L36.9731 37.4168L51.3413 24.7566C52.1896 24.009 53.4833 24.0909 54.231 24.9394C54.9784 25.7879 54.8967 27.0814 54.0482 27.8291L38.6387 41.4067C38.0081 41.9627 37.1046 42.0744 36.3598 41.6968Z" fill="#B4FFC6"/>
</g>
<path id="Vector_9" d="M29.2384 59.3116L27.9686 68.3466C27.7936 69.5912 28.7167 70.7209 29.9712 70.7976L39.6462 71.3899C40.8055 71.4608 41.8126 70.6004 41.9234 69.4442L42.8025 60.2614C42.9197 59.0364 41.9893 57.962 40.7602 57.9032L31.4759 57.4588C30.3632 57.4056 29.3934 58.2088 29.2384 59.3116Z" fill="#52528C"/>
<g id="Group_3">
<path id="Vector_10" d="M33.6371 67.3091L25.7707 63.322C24.7621 62.8108 24.3588 61.5787 24.8701 60.5701C25.3813 59.5614 26.613 59.1584 27.622 59.6694L34.2505 63.0291L48.6186 50.3689C49.4669 49.6213 50.7607 49.7032 51.5083 50.5517C52.2557 51.4002 52.1741 52.6937 51.3256 53.4414L35.916 67.019C35.2854 67.5751 34.382 67.6865 33.6371 67.3091Z" fill="#B4FFC6"/>
</g>
</g>
</g>
<defs>
<clipPath id="clip0_767_2927">
<rect width="100" height="100" fill="white"/>
</clipPath>
</defs>
</svg>
