<svg width="139" height="154" viewBox="0 0 139 154" fill="none" xmlns="http://www.w3.org/2000/svg">
<g filter="url(#filter0_d_1871_213652)">
<g filter="url(#filter1_d_1871_213652)">
<path d="M108.638 16.0462L28.0328 22.6942C22.5861 23.1387 18.8796 28.4133 20.3077 33.6879L29.3812 67.1268C30.4174 70.9352 33.8714 73.5824 37.8236 73.5824H45.3095L57.3389 87.4556L55.7646 73.5824H99.2455C103.251 73.5824 106.751 70.8622 107.728 66.9809L117.844 26.8939C119.312 21.0819 114.623 15.5552 108.644 16.0528L108.638 16.0462Z" fill="white"/>
<path d="M55.2678 73.6388L56.6602 85.9097L45.6873 73.2549L45.5378 73.0824H45.3095H37.8236C34.0975 73.0824 30.8408 70.5867 29.8636 66.9956L20.7904 33.5572C20.7903 33.5571 20.7903 33.557 20.7903 33.557C19.4441 28.5842 22.9383 23.6116 28.0735 23.1925L28.0739 23.1925L108.448 16.5635L108.455 16.5703L108.686 16.5511C114.323 16.0819 118.743 21.2926 117.359 26.7715L117.359 26.7716L107.243 66.8585L107.243 66.8589C106.323 70.5171 103.023 73.0824 99.2455 73.0824H55.7646H55.2047L55.2678 73.6388Z" stroke="#F04A7C"/>
</g>
<path d="M55.2678 73.6387L56.6602 85.9096L45.6873 73.2548L45.5378 73.0823H45.3095H37.8236C34.0975 73.0823 30.8408 70.5866 29.8636 66.9955L20.7904 33.5571C20.7903 33.557 20.7903 33.5569 20.7903 33.5569C19.4441 28.5841 22.9383 23.6115 28.0735 23.1924L28.0739 23.1924L108.448 16.5634L108.455 16.5702L108.686 16.551C114.323 16.0818 118.743 21.2926 117.359 26.7714L117.359 26.7715L107.243 66.8584L107.243 66.8588C106.323 70.517 103.023 73.0823 99.2455 73.0823H55.7646H55.2047L55.2678 73.6387Z" fill="white" stroke="#F04A7C"/>
<g style="mix-blend-mode:screen">
<mask id="path-4-inside-1_1871_213652" fill="white">
<path d="M108.638 16.0461L28.0328 22.6941C22.5861 23.1386 18.8796 28.4132 20.3077 33.6878L29.3812 67.1268C30.4174 70.9351 33.8714 73.5823 37.8236 73.5823H45.3095L57.3389 87.4555L55.7646 73.5823H99.2455C103.251 73.5823 106.751 70.8621 107.728 66.9808L117.844 26.8939C119.312 21.0818 114.623 15.5551 108.644 16.0527L108.638 16.0461ZM117.233 26.7346L107.117 66.8216C106.207 70.4308 102.965 72.952 99.2388 72.952H55.0605L56.4886 85.5182L45.5952 72.952H37.8236C34.1637 72.952 30.9421 70.4906 29.9856 66.9609L20.9122 33.5219C20.2812 31.1865 20.7129 28.7184 22.1012 26.7413C23.4894 24.7641 25.6681 23.5168 28.0793 23.3177L108.691 16.6698C108.923 16.6499 109.156 16.6432 109.382 16.6432C111.766 16.6432 113.985 17.665 115.552 19.5094C117.266 21.533 117.884 24.167 117.233 26.7413V26.7346Z"/>
</mask>
<path d="M108.638 16.0461L28.0328 22.6941C22.5861 23.1386 18.8796 28.4132 20.3077 33.6878L29.3812 67.1268C30.4174 70.9351 33.8714 73.5823 37.8236 73.5823H45.3095L57.3389 87.4555L55.7646 73.5823H99.2455C103.251 73.5823 106.751 70.8621 107.728 66.9808L117.844 26.8939C119.312 21.0818 114.623 15.5551 108.644 16.0527L108.638 16.0461ZM117.233 26.7346L107.117 66.8216C106.207 70.4308 102.965 72.952 99.2388 72.952H55.0605L56.4886 85.5182L45.5952 72.952H37.8236C34.1637 72.952 30.9421 70.4906 29.9856 66.9609L20.9122 33.5219C20.2812 31.1865 20.7129 28.7184 22.1012 26.7413C23.4894 24.7641 25.6681 23.5168 28.0793 23.3177L108.691 16.6698C108.923 16.6499 109.156 16.6432 109.382 16.6432C111.766 16.6432 113.985 17.665 115.552 19.5094C117.266 21.533 117.884 24.167 117.233 26.7413V26.7346Z" fill="white"/>
<path d="M108.638 16.0461L109.345 15.3388L109.017 15.0114L108.556 15.0495L108.638 16.0461ZM28.0328 22.6941L28.1141 23.6908L28.115 23.6907L28.0328 22.6941ZM20.3077 33.6878L19.3425 33.9491L19.3426 33.9497L20.3077 33.6878ZM29.3812 67.1268L28.4161 67.3886L28.4163 67.3893L29.3812 67.1268ZM45.3095 73.5823L46.0651 72.9272L45.766 72.5823H45.3095V73.5823ZM57.3389 87.4555L56.5833 88.1106L58.6961 90.5473L58.3325 87.3428L57.3389 87.4555ZM55.7646 73.5823V72.5823H54.6447L54.771 73.6951L55.7646 73.5823ZM107.728 66.9808L106.758 66.7361L106.758 66.7368L107.728 66.9808ZM117.844 26.8939L116.875 26.649L116.874 26.6492L117.844 26.8939ZM108.644 16.0527L107.937 16.76L108.265 17.0877L108.727 17.0493L108.644 16.0527ZM117.233 26.7346H118.233L116.263 26.4899L117.233 26.7346ZM107.117 66.8216L106.147 66.5769L106.147 66.5771L107.117 66.8216ZM55.0605 72.952V71.952H53.9404L54.0669 73.0649L55.0605 72.952ZM56.4886 85.5182L55.733 86.1732L57.8466 88.6113L57.4822 85.4053L56.4886 85.5182ZM45.5952 72.952L46.3508 72.297L46.0517 71.952H45.5952V72.952ZM29.9856 66.9609L30.9508 66.6993L30.9507 66.699L29.9856 66.9609ZM20.9122 33.5219L19.9468 33.7828L19.9471 33.7838L20.9122 33.5219ZM28.0793 23.3177L27.9971 22.3211L27.997 22.3211L28.0793 23.3177ZM108.691 16.6698L108.773 17.6664L108.776 17.6661L108.691 16.6698ZM115.552 19.5094L116.316 18.8631L116.314 18.8618L115.552 19.5094ZM117.233 26.7413H116.233L118.202 26.9864L117.233 26.7413ZM108.556 15.0495L27.9506 21.6975L28.115 23.6907L108.72 17.0427L108.556 15.0495ZM27.9514 21.6974C21.8817 22.1928 17.751 28.071 19.3425 33.9491L21.273 33.4265C20.0083 28.7554 23.2904 24.0844 28.1141 23.6908L27.9514 21.6974ZM19.3426 33.9497L28.4161 67.3886L30.3463 66.8649L21.2728 33.4259L19.3426 33.9497ZM28.4163 67.3893C29.5707 71.632 33.4193 74.5823 37.8236 74.5823V72.5823C34.3235 72.5823 31.2641 70.2381 30.3461 66.8642L28.4163 67.3893ZM37.8236 74.5823H45.3095V72.5823H37.8236V74.5823ZM44.554 74.2374L56.5833 88.1106L58.0944 86.8004L46.0651 72.9272L44.554 74.2374ZM58.3325 87.3428L56.7582 73.4696L54.771 73.6951L56.3452 87.5683L58.3325 87.3428ZM55.7646 74.5823H99.2455V72.5823H55.7646V74.5823ZM99.2455 74.5823C103.707 74.5823 107.609 71.5522 108.698 67.2248L106.758 66.7368C105.894 70.172 102.794 72.5823 99.2455 72.5823V74.5823ZM108.697 67.2255L118.814 27.1385L116.874 26.6492L106.758 66.7361L108.697 67.2255ZM118.814 27.1387C120.45 20.6604 115.222 14.5017 108.561 15.0562L108.727 17.0493C114.023 16.6085 118.174 21.5033 116.875 26.649L118.814 27.1387ZM109.351 15.3454L109.345 15.3388L107.931 16.7534L107.937 16.76L109.351 15.3454ZM116.263 26.4899L106.147 66.5769L108.086 67.0662L118.203 26.9793L116.263 26.4899ZM106.147 66.5771C105.349 69.741 102.508 71.952 99.2388 71.952V73.952C103.422 73.952 107.064 71.1207 108.086 67.066L106.147 66.5771ZM99.2388 71.952H55.0605V73.952H99.2388V71.952ZM54.0669 73.0649L55.495 85.6311L57.4822 85.4053L56.0541 72.8391L54.0669 73.0649ZM57.2442 84.8632L46.3508 72.297L44.8396 73.6071L55.733 86.1732L57.2442 84.8632ZM45.5952 71.952H37.8236V73.952H45.5952V71.952ZM37.8236 71.952C34.6144 71.952 31.789 69.7924 30.9508 66.6993L29.0205 67.2224C30.0953 71.1888 33.713 73.952 37.8236 73.952V71.952ZM30.9507 66.699L21.8773 33.2601L19.9471 33.7838L29.0205 67.2228L30.9507 66.699ZM21.8776 33.2611C21.3237 31.2112 21.7024 29.0494 22.9196 27.3159L21.2828 26.1666C19.7234 28.3874 19.2386 31.1618 19.9468 33.7828L21.8776 33.2611ZM22.9196 27.3159C24.1369 25.5822 26.0456 24.489 28.1616 24.3143L27.997 22.3211C25.2906 22.5445 22.842 23.946 21.2828 26.1666L22.9196 27.3159ZM28.1615 24.3144L108.773 17.6664L108.609 15.6731L27.9971 22.3211L28.1615 24.3144ZM108.776 17.6661C108.972 17.6493 109.175 17.6432 109.382 17.6432V15.6432C109.137 15.6432 108.875 15.6504 108.606 15.6734L108.776 17.6661ZM109.382 17.6432C111.472 17.6432 113.412 18.5352 114.79 20.157L116.314 18.8618C114.558 16.7947 112.061 15.6432 109.382 15.6432V17.6432ZM114.789 20.1557C116.296 21.9344 116.835 24.2368 116.263 26.4961L118.202 26.9864C118.933 24.0971 118.237 21.1316 116.316 18.8632L114.789 20.1557ZM118.233 26.7413V26.7346H116.233V26.7413H118.233Z" fill="#F04A7C" mask="url(#path-4-inside-1_1871_213652)"/>
</g>
<path d="M40.7562 36.9394L40.4547 29.9459L43.5419 29.8128C44.0214 29.7922 44.4307 29.8446 44.7698 29.9701C45.1085 30.0889 45.3668 30.2747 45.5445 30.5272C45.7286 30.7729 45.8284 31.0755 45.8439 31.4352C45.8611 31.8348 45.7757 32.1755 45.5877 32.4572C45.4063 32.7386 45.1311 32.9339 44.7621 33.0433L44.734 32.8543C45.0499 32.9074 45.3247 33.0123 45.5583 33.1691C45.7986 33.3256 45.9873 33.5243 46.1245 33.7653C46.2614 33.9996 46.3364 34.2699 46.3496 34.5763C46.3649 34.9293 46.3183 35.2416 46.2099 35.5132C46.1012 35.7781 45.9375 36.0054 45.7188 36.195C45.5001 36.3846 45.2394 36.5293 44.9367 36.6291C44.6407 36.7286 44.3096 36.7862 43.9433 36.802L40.7562 36.9394ZM42.2936 35.4518L43.8222 35.3859C44.0087 35.3779 44.1639 35.3412 44.2878 35.2758C44.4185 35.2101 44.518 35.119 44.5864 35.0027C44.6545 34.8796 44.6849 34.7348 44.6777 34.5683C44.6711 34.4151 44.6256 34.287 44.5411 34.1838C44.4632 34.0804 44.3532 34.0051 44.211 33.9579C44.0686 33.9039 43.9008 33.8811 43.7076 33.8895L42.229 33.9532L42.2936 35.4518ZM42.1743 32.6844L43.4231 32.6306C43.5963 32.6231 43.7417 32.5901 43.8593 32.5317C43.9832 32.4663 44.073 32.3823 44.1287 32.2798C44.1907 32.1704 44.2185 32.0424 44.2122 31.8959C44.203 31.6828 44.1226 31.5194 43.9709 31.4058C43.8189 31.2856 43.5964 31.2318 43.3033 31.2444L42.1144 31.2957L42.1743 32.6844ZM49.5439 36.6507C49.0976 36.6699 48.693 36.5706 48.3299 36.3527C47.9733 36.1278 47.6828 35.8134 47.4585 35.4093C47.2339 34.9986 47.1103 34.5302 47.0876 34.004C47.0644 33.4645 47.1471 32.9838 47.3357 32.562C47.5244 32.1401 47.7936 31.8049 48.1432 31.5563C48.4925 31.301 48.897 31.1634 49.3565 31.1436C49.6096 31.1327 49.841 31.1594 50.0506 31.2238C50.2669 31.2879 50.4579 31.3831 50.6235 31.5094C50.7888 31.6291 50.9318 31.773 51.0525 31.9413C51.1729 32.1029 51.2639 32.2792 51.3255 32.47L50.9941 32.4443L50.9398 31.1855L52.5283 31.117L52.757 36.4221L51.1385 36.4918L51.0834 35.213L51.4426 35.1875C51.3974 35.3763 51.3184 35.5566 51.2057 35.7282C51.093 35.8999 50.9528 36.0528 50.7851 36.1868C50.6173 36.3208 50.4285 36.429 50.2185 36.5115C50.0085 36.5939 49.7837 36.6403 49.5439 36.6507ZM49.9253 35.283C50.1718 35.2723 50.3825 35.2065 50.5574 35.0856C50.7324 34.9646 50.8654 34.7987 50.9564 34.5879C51.0471 34.3705 51.0863 34.1185 51.0739 33.8321C51.0616 33.5457 51.001 33.3015 50.8922 33.0993C50.7831 32.8905 50.6362 32.7333 50.4515 32.6278C50.2665 32.5157 50.0507 32.4649 49.8043 32.4756C49.5645 32.4859 49.3573 32.5549 49.1826 32.6825C49.0144 32.8032 48.8849 32.9723 48.7941 33.1897C48.7031 33.4005 48.6638 33.6491 48.6761 33.9355C48.6885 34.2219 48.7492 34.4695 48.8583 34.6784C48.9671 34.8805 49.1105 35.0345 49.2886 35.1403C49.4733 35.2457 49.6856 35.2933 49.9253 35.283ZM50.2659 38.7715C49.9595 38.7847 49.7164 38.7185 49.5367 38.5728C49.3572 38.4337 49.2617 38.231 49.2502 37.9645C49.2393 37.7114 49.317 37.5012 49.4833 37.3339C49.6565 37.173 49.893 37.086 50.1927 37.0731C50.4991 37.0599 50.742 37.1228 50.9215 37.2619C51.101 37.401 51.1966 37.607 51.2084 37.8801C51.219 38.1266 51.1379 38.3336 50.9649 38.5012C50.7986 38.6685 50.5656 38.7586 50.2659 38.7715ZM54.1675 36.3613L53.9388 31.0562L55.4574 30.9907L55.5539 32.0676L55.2393 32.2012C55.3023 31.9583 55.4228 31.7362 55.601 31.535C55.7855 31.3269 56.0084 31.1571 56.2697 31.0258C56.5309 30.8944 56.8081 30.8224 57.1011 30.8097C57.5008 30.7925 57.8407 30.8613 58.121 31.016C58.4009 31.1641 58.6179 31.3983 58.7718 31.7186C58.9255 32.0323 59.0124 32.4223 59.0325 32.8885L59.1729 36.1455L57.5644 36.2148L57.4296 33.0877C57.4204 32.8746 57.3828 32.6994 57.3168 32.5621C57.2508 32.4248 57.1531 32.3256 57.0237 32.2644C56.9007 32.1963 56.7494 32.1695 56.5698 32.1839C56.43 32.1899 56.3011 32.2188 56.1832 32.2706C56.065 32.3158 55.9645 32.3835 55.8817 32.4738C55.7985 32.5575 55.7326 32.6537 55.6839 32.7626C55.6419 32.8712 55.6236 32.9887 55.6291 33.1153L55.766 36.2923L54.9768 36.3264C54.7903 36.3344 54.6304 36.3413 54.4972 36.347C54.364 36.3528 54.2541 36.3575 54.1675 36.3613ZM67.0606 35.9055C66.5345 35.9282 66.0445 35.8626 65.5908 35.7086C65.1434 35.5478 64.7497 35.3145 64.4096 35.0089C64.0691 34.6966 63.7995 34.3245 63.6007 33.8927C63.4083 33.4539 63.3006 32.9681 63.2777 32.4352C63.2553 31.9157 63.3278 31.4321 63.4954 30.9845C63.6629 30.5369 63.903 30.1462 64.2156 29.8124C64.5345 29.4717 64.9132 29.2018 65.3517 29.0027C65.7969 28.8034 66.2859 28.6922 66.8187 28.6692C67.1518 28.6549 67.48 28.6841 67.8034 28.7569C68.1269 28.8297 68.4289 28.9468 68.7094 29.1082C68.9963 29.2626 69.2447 29.4521 69.4546 29.6766L68.4668 30.9103C68.3206 30.7698 68.1653 30.6497 68.0008 30.5501C67.8428 30.4434 67.6692 30.3642 67.4801 30.3123C67.291 30.2604 67.0899 30.239 66.8768 30.2482C66.6104 30.2597 66.3594 30.3205 66.124 30.4308C65.8949 30.5341 65.6943 30.6795 65.5222 30.8671C65.3565 31.0477 65.2291 31.2668 65.1401 31.5242C65.0511 31.7816 65.0134 32.0668 65.0269 32.3798C65.0401 32.6862 65.1021 32.9638 65.2129 33.2126C65.3235 33.4547 65.4725 33.6618 65.6601 33.8339C65.8477 34.006 66.07 34.1332 66.3272 34.2155C66.5909 34.2976 66.8794 34.3319 67.1924 34.3184C67.4055 34.3092 67.6074 34.2705 67.798 34.2022C67.9885 34.1339 68.1616 34.0464 68.3171 33.9396C68.479 33.8258 68.6204 33.6996 68.7412 33.561L69.6164 34.8244C69.458 35.0181 69.242 35.1942 68.9686 35.3528C68.7018 35.5111 68.4005 35.6409 68.0645 35.7421C67.7349 35.8364 67.4003 35.8909 67.0606 35.9055ZM72.6084 35.6563C72.1622 35.6756 71.7575 35.5762 71.3944 35.3583C71.0378 35.1335 70.7473 34.8191 70.523 34.415C70.2984 34.0043 70.1748 33.5359 70.1521 33.0097C70.1289 32.4702 70.2116 31.9895 70.4003 31.5677C70.5889 31.1458 70.8581 30.8106 71.2077 30.5619C71.557 30.3067 71.9615 30.1691 72.421 30.1493C72.6741 30.1384 72.9055 30.1651 73.1151 30.2295C73.3314 30.2936 73.5224 30.3888 73.688 30.5151C73.8533 30.6347 73.9963 30.7787 74.117 30.947C74.2374 31.1086 74.3284 31.2849 74.39 31.4757L74.0586 31.45L74.0043 30.1911L75.5928 30.1227L75.8215 35.4277L74.203 35.4975L74.1479 34.2187L74.5072 34.1932C74.4619 34.382 74.3829 34.5622 74.2702 34.7339C74.1575 34.9056 74.0173 35.0584 73.8496 35.1925C73.6819 35.3265 73.493 35.4347 73.283 35.5172C73.0731 35.5996 72.8482 35.646 72.6084 35.6563ZM72.9899 34.2886C73.2363 34.278 73.447 34.2122 73.6219 34.0912C73.7969 33.9703 73.9299 33.8044 74.0209 33.5936C74.1116 33.3761 74.1508 33.1242 74.1384 32.8378C74.1261 32.5514 74.0655 32.3071 73.9567 32.105C73.8476 31.8961 73.7007 31.739 73.516 31.6335C73.331 31.5214 73.1153 31.4706 72.8688 31.4812C72.629 31.4916 72.4218 31.5606 72.2472 31.6882C72.0789 31.8089 71.9494 31.978 71.8586 32.1954C71.7676 32.4062 71.7283 32.6548 71.7407 32.9412C71.753 33.2276 71.8137 33.4752 71.9228 33.684C72.0316 33.8862 72.1751 34.0402 72.3531 34.1459C72.5378 34.2514 72.7501 34.299 72.9899 34.2886ZM71.6563 29.5917L71.1535 29.0729L72.4362 27.9466L73.3853 27.9057L74.7502 28.9178L74.3039 29.4776L72.7959 28.862L73.0957 28.849L71.6563 29.5917ZM74.608 27.9431L73.2198 26.6216L74.1879 25.8592L75.2081 27.4668L74.608 27.9431ZM77.232 35.3669L77.0033 30.0619L78.5219 29.9964L78.6184 31.0732L78.3039 31.2069C78.3668 30.964 78.4873 30.7419 78.6655 30.5407C78.85 30.3326 79.0729 30.1628 79.3342 30.0314C79.5954 29.9001 79.8726 29.8281 80.1656 29.8154C80.5653 29.7982 80.9052 29.867 81.1855 30.0217C81.4654 30.1698 81.6824 30.404 81.8363 30.7243C81.99 31.038 82.0769 31.4279 82.097 31.8942L82.2374 35.1511L80.6289 35.2205L80.4941 32.0934C80.4849 31.8803 80.4473 31.705 80.3813 31.5678C80.3153 31.4305 80.2176 31.3313 80.0882 31.2701C79.9652 31.202 79.8139 31.1752 79.6343 31.1896C79.4945 31.1956 79.3656 31.2245 79.2477 31.2763C79.1295 31.3214 79.029 31.3892 78.9462 31.4795C78.863 31.5632 78.7971 31.6594 78.7484 31.7683C78.7064 31.8769 78.6881 31.9944 78.6936 32.121L78.8305 35.298L78.0413 35.332C77.8548 35.3401 77.6949 35.347 77.5617 35.3527C77.4285 35.3585 77.3186 35.3632 77.232 35.3669ZM88.4624 34.8828L88.2255 29.3879L86.1474 29.4775L86.0828 27.9789L91.9873 27.7243L92.0519 29.2229L89.9239 29.3147L90.1608 34.8096L88.4624 34.8828ZM94.8274 34.7085C94.2746 34.7323 93.7766 34.6337 93.3333 34.4126C92.8967 34.1912 92.5429 33.8794 92.272 33.4774C92.0078 33.0751 91.8642 32.6075 91.8412 32.0746C91.8182 31.5418 91.9211 31.0636 92.1497 30.64C92.385 30.2162 92.7106 29.8752 93.1265 29.617C93.5491 29.3586 94.0369 29.2174 94.5897 29.1936C95.1425 29.1698 95.6372 29.2686 96.0738 29.49C96.5171 29.7111 96.8708 30.0228 97.1351 30.4251C97.3993 30.8274 97.5429 31.295 97.5659 31.8279C97.5889 32.3607 97.486 32.8389 97.2574 33.2625C97.0288 33.686 96.7031 34.0271 96.2806 34.2855C95.8646 34.5437 95.3802 34.6846 94.8274 34.7085ZM94.768 33.3298C95.0078 33.3194 95.2183 33.2503 95.3996 33.1224C95.581 32.9944 95.7205 32.8249 95.8181 32.6139C95.9158 32.4028 95.9555 32.1642 95.9374 31.8981C95.9326 31.6314 95.8724 31.3971 95.757 31.1952C95.6412 30.9866 95.4875 30.8264 95.2958 30.7146C95.1042 30.6027 94.8885 30.552 94.6487 30.5623C94.4089 30.5727 94.195 30.6419 94.007 30.7702C93.8257 30.8981 93.6864 31.0709 93.589 31.2886C93.4913 31.4997 93.4515 31.7383 93.4697 32.0044C93.4745 32.2712 93.5347 32.5054 93.6501 32.7073C93.7656 32.9092 93.9192 33.0661 94.1108 33.1779C94.3092 33.2895 94.5282 33.3401 94.768 33.3298ZM93.2255 28.6619L92.6245 28.1873L94.0076 26.8365L94.9667 26.7951L96.4609 28.0219L95.903 28.5464L94.3774 27.7514L94.6771 27.7385L93.2255 28.6619ZM98.8157 34.4364L98.5869 29.1314L100.185 29.0625L100.414 34.3675L98.8157 34.4364ZM99.341 28.0479C99.0413 28.0608 98.8018 28.0011 98.6226 27.8687C98.4498 27.7293 98.3576 27.5264 98.3461 27.26C98.3358 27.0202 98.4139 26.82 98.5805 26.6594C98.747 26.4987 98.9769 26.4121 99.2699 26.3994C99.5696 26.3865 99.8059 26.4497 99.9787 26.5891C100.151 26.7218 100.243 26.918 100.254 27.1777C100.265 27.4242 100.187 27.6277 100.02 27.7884C99.8605 27.9488 99.634 28.0353 99.341 28.0479ZM56.2802 49.3823C55.7207 49.4065 55.2106 49.3384 54.75 49.1781C54.2893 49.0178 53.8888 48.7815 53.5483 48.4692C53.2079 48.1569 52.9416 47.7847 52.7495 47.3525C52.5571 46.9137 52.4497 46.4346 52.4273 45.9151C52.4049 45.3956 52.4743 44.9155 52.6354 44.4748C52.803 44.0271 53.0496 43.6328 53.3752 43.2918C53.7008 42.9508 54.0895 42.6805 54.5413 42.4808C54.9998 42.2809 55.5021 42.1692 56.0483 42.1456C56.4346 42.129 56.7997 42.1633 57.1437 42.2485C57.4944 42.3335 57.8133 42.4565 58.1005 42.6177C58.3877 42.7788 58.6328 42.9684 58.8357 43.1865L57.8536 44.3199C57.6802 44.1672 57.5013 44.0415 57.3169 43.9426C57.1391 43.8435 56.949 43.7683 56.7466 43.717C56.5439 43.659 56.3294 43.6349 56.1029 43.6447C55.8098 43.6573 55.5424 43.7222 55.3005 43.8394C55.0654 43.9563 54.8587 44.1153 54.6805 44.3165C54.5087 44.5108 54.3785 44.7399 54.2898 45.004C54.2008 45.2614 54.1627 45.54 54.1756 45.8397C54.1886 46.1394 54.2539 46.4169 54.3717 46.672C54.4894 46.9272 54.6457 47.1473 54.8406 47.3324C55.0351 47.5109 55.2613 47.6513 55.5193 47.7536C55.7837 47.849 56.0624 47.8903 56.3554 47.8777C56.5619 47.8688 56.7536 47.8272 56.9306 47.7528C57.1142 47.6782 57.2702 47.5814 57.3985 47.4624C57.5269 47.3434 57.6277 47.2056 57.701 47.049C57.774 46.8857 57.8067 46.7141 57.7989 46.5343L57.7877 46.2745L58.0222 46.6047L56.094 46.6879L56.0367 45.3591L59.3236 45.2174C59.3401 45.2901 59.3544 45.3896 59.3665 45.5158C59.3786 45.6421 59.3873 45.7652 59.3924 45.885C59.4043 46.0047 59.4115 46.0944 59.4141 46.1544C59.4336 46.6073 59.3683 47.0272 59.2181 47.414C59.0744 47.7939 58.8618 48.1267 58.5805 48.4124C58.2993 48.6981 57.9621 48.9261 57.5691 49.0966C57.176 49.267 56.7464 49.3622 56.2802 49.3823ZM60.764 49.089L60.5353 43.7839L62.1338 43.715L62.3625 49.02L60.764 49.089ZM61.2893 42.7004C60.9896 42.7133 60.7501 42.6536 60.5709 42.5212C60.3981 42.3818 60.3059 42.1789 60.2944 41.9125C60.2841 41.6727 60.3622 41.4725 60.5288 41.3119C60.6954 41.1512 60.9252 41.0646 61.2182 41.0519C61.518 41.039 61.7542 41.1022 61.9271 41.2416C62.0996 41.3743 62.1915 41.5705 62.2027 41.8302C62.2133 42.0767 62.1353 42.2802 61.9688 42.4409C61.8088 42.6013 61.5824 42.6878 61.2893 42.7004ZM65.6775 48.9872C65.2845 49.0042 64.9446 48.9354 64.6577 48.781C64.3771 48.6196 64.1534 48.3823 63.9864 48.0692C63.8261 47.7558 63.7363 47.376 63.7171 46.9298L63.5758 43.6528L65.1843 43.5835L65.3161 46.6406C65.3253 46.8538 65.3665 47.0355 65.4397 47.1858C65.5129 47.3361 65.618 47.4517 65.7549 47.5325C65.8916 47.6067 66.0532 47.6398 66.2397 47.6318C66.3795 47.6257 66.5051 47.597 66.6163 47.5455C66.7342 47.4937 66.8313 47.4261 66.9078 47.3427C66.9907 47.2524 67.0531 47.1529 67.0951 47.0444C67.1369 46.9291 67.1549 46.8049 67.1491 46.6717L67.0126 43.5046L68.6211 43.4353L68.8498 48.7404L67.3412 48.8054L67.2243 47.7194L67.5189 47.5866C67.4499 47.8432 67.3264 48.0754 67.1486 48.2832C66.9704 48.4844 66.754 48.6505 66.4994 48.7816C66.2445 48.9061 65.9706 48.9746 65.6775 48.9872ZM65.3192 42.9971L64.8182 42.288L66.5454 40.7922L67.3199 41.8098L65.3192 42.9971ZM70.3693 50.8769L70.0458 43.3739L71.5644 43.3084L71.6756 44.4947L71.372 44.4177C71.4091 44.1959 71.5138 43.9912 71.6858 43.8036C71.8579 43.616 72.0782 43.4631 72.3467 43.3447C72.6216 43.2195 72.9122 43.1502 73.2186 43.137C73.6715 43.1175 74.0796 43.22 74.4429 43.4446C74.806 43.6625 75.0963 43.9736 75.3139 44.3779C75.5379 44.7753 75.6616 45.2437 75.6848 45.7832C75.7078 46.3161 75.6249 46.7934 75.4363 47.2153C75.2543 47.6368 74.9886 47.9753 74.6393 48.2305C74.2963 48.4789 73.895 48.6129 73.4355 48.6328C73.1357 48.6457 72.8469 48.6014 72.5689 48.5C72.291 48.3985 72.0546 48.2552 71.8598 48.0701C71.6649 47.885 71.5327 47.6805 71.463 47.4566L71.8266 47.3008L71.9778 50.8076L70.3693 50.8769ZM72.9877 47.3008C73.2275 47.2905 73.4348 47.2248 73.6098 47.1038C73.7844 46.9762 73.9173 46.807 74.0083 46.5962C74.0993 46.3854 74.1386 46.1368 74.1263 45.8504C74.1142 45.5707 74.0538 45.3297 73.945 45.1276C73.8359 44.9187 73.689 44.7616 73.5042 44.6561C73.3259 44.5437 73.1135 44.4928 72.8671 44.5034C72.6206 44.514 72.4099 44.5798 72.235 44.7008C72.06 44.8218 71.9272 44.991 71.8365 45.2085C71.7458 45.4259 71.7064 45.6745 71.7185 45.9542C71.7308 46.2406 71.7914 46.4849 71.9002 46.6871C72.009 46.8892 72.1559 47.0464 72.3409 47.1585C72.5257 47.264 72.7412 47.3114 72.9877 47.3008ZM83.4815 48.2097C82.922 48.2338 82.4119 48.1657 81.9513 48.0054C81.4906 47.8451 81.09 47.6088 80.7496 47.2965C80.4092 46.9842 80.1429 46.612 79.9508 46.1799C79.7584 45.7411 79.651 45.2619 79.6286 44.7424C79.6062 44.2229 79.6756 43.7428 79.8367 43.3021C80.0043 42.8545 80.2508 42.4602 80.5765 42.1191C80.9021 41.7781 81.2908 41.5078 81.7426 41.3082C82.2011 41.1082 82.7034 40.9965 83.2496 40.973C83.6359 40.9563 84.001 40.9906 84.345 41.0759C84.6957 41.1608 85.0146 41.2839 85.3018 41.445C85.589 41.6061 85.8341 41.7957 86.037 42.0139L85.0549 43.1472C84.8815 42.9945 84.7026 42.8688 84.5182 42.77C84.3404 42.6709 84.1503 42.5957 83.9479 42.5443C83.7452 42.4863 83.5306 42.4622 83.3042 42.472C83.0111 42.4846 82.7437 42.5495 82.5018 42.6667C82.2667 42.7836 82.06 42.9427 81.8818 43.1439C81.71 43.3381 81.5798 43.5673 81.4911 43.8313C81.4021 44.0888 81.364 44.3673 81.3769 44.667C81.3899 44.9668 81.4552 45.2442 81.573 45.4994C81.6907 45.7545 81.847 45.9747 82.0419 46.1598C82.2364 46.3382 82.4626 46.4786 82.7206 46.5809C82.985 46.6763 83.2637 46.7177 83.5567 46.705C83.7632 46.6961 83.9549 46.6545 84.1319 46.5802C84.3155 46.5055 84.4715 46.4087 84.5998 46.2897C84.7282 46.1708 84.829 46.033 84.9023 45.8763C84.9753 45.713 85.008 45.5415 85.0002 45.3616L84.989 45.1019L85.2235 45.4321L83.2953 45.5152L83.238 44.1864L86.5249 44.0447C86.5414 44.1174 86.5557 44.2169 86.5678 44.3432C86.5799 44.4694 86.5886 44.5925 86.5937 44.7124C86.6056 44.832 86.6128 44.9218 86.6154 44.9817C86.6349 45.4346 86.5696 45.8545 86.4194 46.2413C86.2757 46.6212 86.0631 46.954 85.7818 47.2397C85.5005 47.5254 85.1634 47.7535 84.7704 47.9239C84.3773 48.0943 83.9477 48.1896 83.4815 48.2097ZM87.8054 47.9232L87.5767 42.6181L89.1852 42.5488L89.4139 47.8538L87.8054 47.9232ZM88.94 41.9688L86.8445 40.9581L87.5291 39.8876L89.3786 41.2292L88.94 41.9688ZM54.4369 60.3219L53.9357 58.9122L57.2509 55.246L59.259 55.1594L54.4369 60.3219ZM53.2864 62.4234L52.9849 55.4299L54.6833 55.3567L54.9848 62.3502L53.2864 62.4234ZM57.7722 62.23L55.0273 58.9252L56.1336 57.8865L59.7504 62.1447L57.7722 62.23ZM60.5022 62.1123L60.1835 54.7192L61.7521 54.6516L61.8886 57.8186L61.5741 57.9523C61.637 57.7093 61.7575 57.4873 61.9357 57.2861C62.1202 57.0779 62.3431 56.9082 62.6044 56.7768C62.8656 56.6454 63.1428 56.5734 63.4358 56.5608C63.8355 56.5436 64.1754 56.6123 64.4557 56.7671C64.7356 56.9152 64.9526 57.1494 65.1065 57.4697C65.2602 57.7834 65.3471 58.1733 65.3672 58.6396L65.5076 61.8965L63.8991 61.9659L63.7643 58.8388C63.7551 58.6256 63.7175 58.4504 63.6515 58.3131C63.5855 58.1759 63.4879 58.0766 63.3584 58.0155C63.2354 57.9474 63.0841 57.9206 62.9045 57.935C62.7647 57.941 62.6358 57.9699 62.5179 58.0217C62.3998 58.0668 62.2992 58.1346 62.2164 58.2249C62.1332 58.3085 62.0673 58.4048 62.0186 58.5137C61.9766 58.6222 61.9583 58.7398 61.9638 58.8663L62.1007 62.0434L61.3115 62.0774C61.125 62.0855 60.9651 62.0924 60.8319 62.0981C60.6987 62.1038 60.5888 62.1086 60.5022 62.1123ZM69.346 61.8311C68.7932 61.855 68.2951 61.7563 67.8519 61.5352C67.4152 61.3138 67.0615 61.0021 66.7906 60.6001C66.5263 60.1977 66.3827 59.7302 66.3598 59.1973C66.3368 58.6645 66.4396 58.1863 66.6683 57.7627C66.9036 57.3388 67.2292 56.9978 67.6451 56.7397C68.0677 56.4812 68.5554 56.3401 69.1082 56.3163C69.6611 56.2924 70.1558 56.3912 70.5924 56.6126C71.0356 56.8337 71.3894 57.1455 71.6536 57.5478C71.9179 57.9501 72.0615 58.4177 72.0845 58.9505C72.1074 59.4834 72.0046 59.9616 71.776 60.3851C71.5473 60.8087 71.2217 61.1497 70.7991 61.4082C70.3832 61.6663 69.8988 61.8073 69.346 61.8311ZM69.2865 60.4524C69.5263 60.4421 69.7369 60.373 69.9182 60.245C70.0995 60.1171 70.239 59.9476 70.3367 59.7365C70.4344 59.5255 70.4741 59.2869 70.456 59.0207C70.4511 58.754 70.391 58.5197 70.2755 58.3178C70.1598 58.1093 70.0061 57.9491 69.8144 57.8373C69.6227 57.7254 69.407 57.6747 69.1672 57.685C68.9275 57.6953 68.7136 57.7646 68.5256 57.8928C68.3443 58.0208 68.2049 58.1936 68.1075 58.4113C68.0099 58.6224 67.9701 58.861 67.9883 59.1271C67.9931 59.3938 68.0532 59.6281 68.1687 59.83C68.2842 60.0319 68.4377 60.1887 68.6294 60.3006C68.8277 60.4121 69.0468 60.4628 69.2865 60.4524ZM67.7441 55.7845L67.1431 55.31L68.5262 53.9591L69.4853 53.9178L70.9795 55.1446L70.4216 55.6691L68.8959 54.8741L69.1956 54.8611L67.7441 55.7845ZM73.2443 61.563L73.0156 56.2579L74.5342 56.1925L74.6307 57.2693L74.3161 57.403C74.3791 57.16 74.4996 56.938 74.6778 56.7368C74.8623 56.5286 75.0852 56.3589 75.3465 56.2275C75.6077 56.0961 75.8849 56.0241 76.1779 56.0115C76.5775 55.9943 76.9175 56.063 77.1977 56.2178C77.4777 56.3658 77.6947 56.6 77.8486 56.9204C78.0023 57.234 78.0891 57.624 78.1092 58.0902L78.2497 61.3472L76.6411 61.4166L76.5063 58.2895C76.4971 58.0763 76.4596 57.9011 76.3936 57.7638C76.3276 57.6265 76.2299 57.5273 76.1005 57.4662C75.9775 57.3981 75.8262 57.3712 75.6466 57.3856C75.5067 57.3917 75.3779 57.4206 75.26 57.4724C75.1418 57.5175 75.0413 57.5852 74.9585 57.6756C74.8753 57.7592 74.8094 57.8555 74.7607 57.9643C74.7187 58.0729 74.7004 58.1905 74.7059 58.317L74.8428 61.4941L74.0536 61.5281C73.8671 61.5361 73.7072 61.543 73.574 61.5488C73.4408 61.5545 73.3309 61.5593 73.2443 61.563ZM82.1129 63.4828C81.6799 63.5015 81.2443 63.4569 80.8059 63.349C80.3742 63.2408 80.0208 63.0925 79.7458 62.9042L80.257 61.7611C80.4009 61.8484 80.5575 61.9217 80.7269 61.9811C80.9032 62.0469 81.0855 62.0958 81.2737 62.1277C81.4619 62.1596 81.6526 62.1714 81.8458 62.1631C82.1855 62.1484 82.4597 62.0866 82.6686 61.9775C82.8774 61.8684 83.0306 61.7083 83.1283 61.4972C83.2263 61.2928 83.2686 61.0374 83.2554 60.731L83.2171 59.8419L83.5289 59.8785C83.4918 60.1003 83.3839 60.3051 83.2051 60.493C83.033 60.6806 82.8162 60.8367 82.5547 60.9614C82.2929 61.0795 82.0121 61.145 81.7124 61.1579C81.2328 61.1786 80.7985 61.0872 80.4094 60.8838C80.0266 60.6734 79.7169 60.3764 79.4801 59.993C79.2498 59.6025 79.1234 59.1475 79.101 58.628C79.078 58.0952 79.1643 57.621 79.36 57.2055C79.5553 56.7834 79.8344 56.4477 80.1974 56.1985C80.56 55.9427 80.9745 55.8047 81.4407 55.7846C81.6405 55.776 81.8313 55.7911 82.0132 55.83C82.2017 55.8686 82.3742 55.9245 82.5309 55.9978C82.6939 56.0642 82.8376 56.1481 82.9621 56.2495C83.093 56.344 83.1976 56.4496 83.2761 56.5663C83.3612 56.6827 83.4197 56.8036 83.4518 56.929L83.1256 57.0232L83.1339 55.8217L84.6524 55.7562L84.8626 60.6317C84.8813 61.0647 84.8312 61.4505 84.7123 61.7893C84.6004 62.1344 84.423 62.429 84.1799 62.673C83.9438 62.9234 83.6518 63.1162 83.304 63.2513C82.9562 63.3864 82.5591 63.4636 82.1129 63.4828ZM81.9986 59.9044C82.2584 59.8932 82.4791 59.827 82.6607 59.7057C82.8487 59.5775 82.9882 59.408 83.0792 59.1972C83.1769 58.9861 83.2197 58.7407 83.2076 58.461C83.1955 58.1812 83.1318 57.9404 83.0163 57.7386C82.9072 57.5297 82.7536 57.3729 82.5556 57.268C82.3639 57.1561 82.1382 57.1058 81.8785 57.117C81.6254 57.1279 81.4082 57.1973 81.2268 57.3252C81.0452 57.4465 80.9057 57.616 80.8084 57.8337C80.7174 58.0445 80.6779 58.2898 80.6899 58.5695C80.702 58.8493 80.7624 59.0902 80.8712 59.2924C80.9867 59.4943 81.1403 59.6511 81.3319 59.763C81.5233 59.8682 81.7455 59.9153 81.9986 59.9044ZM87.4048 58.5503L87.0287 57.2553C87.2198 57.2003 87.4007 57.1392 87.5713 57.0718C87.7416 56.9977 87.8984 56.9209 88.0418 56.8413C88.1851 56.7617 88.3048 56.6731 88.4007 56.5756C88.5029 56.4711 88.5816 56.3609 88.6367 56.2451C88.6914 56.1226 88.7159 55.9948 88.7102 55.8616C88.7045 55.7284 88.6663 55.6166 88.5956 55.5262C88.5247 55.4292 88.4315 55.3564 88.316 55.308C88.2005 55.2596 88.0661 55.2387 87.9129 55.2453C87.6931 55.2548 87.4768 55.3442 87.2639 55.5135C87.0507 55.6762 86.8583 55.9347 86.6867 56.2891L85.5542 55.327C85.8342 54.8545 86.1751 54.4828 86.5772 54.2119C86.9859 53.9407 87.4167 53.7954 87.8696 53.7758C88.3092 53.7569 88.7094 53.8297 89.0701 53.9943C89.4306 54.1523 89.7208 54.3833 89.9408 54.6875C90.1605 54.985 90.2786 55.3269 90.2953 55.7132C90.3059 55.9596 90.2631 56.205 90.1669 56.4494C90.0773 56.6935 89.9439 56.9261 89.7666 57.1473C89.5956 57.3615 89.3904 57.5539 89.1508 57.7243C88.9113 57.8948 88.6435 58.0298 88.3475 58.1293L88.264 58.5133L87.4048 58.5503ZM87.1149 60.1843C87.1034 59.9179 87.174 59.698 87.3267 59.5246C87.4794 59.3512 87.6822 59.259 87.9353 59.2481C88.2084 59.2363 88.425 59.3071 88.5851 59.4603C88.7449 59.6069 88.8309 59.8234 88.8433 60.1098C88.8545 60.3695 88.7838 60.5861 88.6311 60.7595C88.4784 60.9329 88.2722 61.0252 88.0124 61.0364C87.7394 61.0482 87.5229 60.9808 87.3631 60.8342C87.21 60.6873 87.1272 60.4707 87.1149 60.1843Z" fill="#F04A7C"/>
<path d="M110.001 96.9383L48.0547 87.8595L79.7565 65.798C81.7445 64.417 84.4609 64.8116 85.9633 66.7085L93.8546 76.6296L102.216 87.1424L110.005 96.9383H110.001Z" fill="#FFD7E1"/>
<path d="M48.0488 87.8584L109.994 96.9393L105.945 124.56C105.461 127.855 102.393 130.14 99.0968 129.656L49.881 122.441C46.1498 121.894 43.5683 118.422 44.1148 114.694L48.0488 87.8584Z" fill="#EFA3B7"/>
<path opacity="0.19" d="M100.718 95.5767C96.3929 105.024 84.5749 111.655 84.1234 111.909C84.1158 111.909 84.112 111.917 84.112 111.917C84.112 111.917 65.9544 103.119 64.8163 90.3146C64.7897 90.0187 64.7707 89.7189 64.7632 89.4154C64.5659 81.619 68.3977 77.7909 73.1173 77.0739C76.437 76.5693 80.1891 77.6088 83.2925 79.8776C85.7472 77.8782 88.6837 76.6983 91.5101 76.5276C92.303 76.4782 93.0922 76.5086 93.8585 76.6262L102.22 87.1391C102.258 87.564 102.281 88.0041 102.292 88.4556C102.357 90.9557 101.754 93.3459 100.725 95.5767H100.718Z" fill="black"/>
<path d="M94.9117 99.4651C89.9986 107.869 79.7437 113.624 79.3226 113.863C79.315 113.863 79.3112 113.871 79.3112 113.871C79.3112 113.871 65.0007 106.935 60.9905 96.4186C60.3797 94.8176 60.0079 93.1293 59.9624 91.3728C59.7651 83.5763 63.5969 79.7521 68.3165 79.0312C71.6362 78.5266 75.3884 79.5662 78.4918 81.8349C80.9464 79.8355 83.8829 78.6556 86.7093 78.4849C92.2029 78.1472 97.264 81.6376 97.4916 90.4129C97.5751 93.6491 96.5393 96.7032 94.9193 99.4689L94.9117 99.4651Z" fill="#ED5D79"/>
<path d="M97.4875 90.4055C97.8214 103.479 79.8801 113.544 79.3262 113.859C79.8194 113.389 92.9576 100.956 93.4508 91.1642C93.7657 84.8474 92.3696 81.4329 86.7091 78.4775C92.2027 78.1398 97.2637 81.634 97.4913 90.4055H97.4875Z" fill="#B70F47"/>
<path d="M78.4877 81.8273L78.6395 87.8103C78.6395 87.8103 74.1892 81.5503 68.3125 79.0236C71.6284 78.5228 75.3843 79.5585 78.4839 81.8273H78.4877Z" fill="#B70F47"/>
<path d="M67.1379 87.3729C67.6149 85.7048 67.1035 84.0958 65.9955 83.7789C64.8875 83.462 63.6025 84.5573 63.1255 86.2254C62.6484 87.8934 63.1599 89.5025 64.2679 89.8194C65.3759 90.1363 66.6609 89.0409 67.1379 87.3729Z" fill="#FCA9C1"/>
<path d="M94.9115 99.4653C89.9984 107.869 79.7435 113.624 79.3223 113.863C79.3147 113.863 79.311 113.871 79.311 113.871C79.311 113.871 65.0004 106.936 60.9902 96.4188L78.5256 105.467L94.9115 99.4691V99.4653Z" fill="#B70F47"/>
<path d="M110 96.9346L105.959 124.505C105.815 125.499 105.436 126.402 104.886 127.164C104.37 127.889 103.698 128.488 102.932 128.921C101.798 129.562 100.447 129.85 99.0546 129.646L55.6145 123.279C52.329 122.798 51.8585 118.249 54.9809 117.103L73.3206 110.38L77.7708 108.749L80.8211 107.63L82.8774 106.878L109.996 96.9384L110 96.9346Z" fill="#0054CD"/>
<path opacity="0.19" d="M104.887 127.165C104.371 127.889 103.7 128.489 102.933 128.921L81.3422 112.771L78.7282 111.674L78.3564 110.536L76.7402 109.322L78.2806 110.301L77.7798 108.749L80.8301 107.63L82.8863 106.879C83.0533 109.554 82.0593 111.595 81.5926 112.399L83.0343 113.31L104.891 127.161L104.887 127.165Z" fill="black"/>
<path d="M95.9211 129.187L49.4686 122.381C45.9706 121.869 43.5463 118.614 44.0585 115.116L48.0535 87.8604L73.6851 107.038L80.1195 111.853L97.6701 124.984C99.6201 126.444 98.334 129.54 95.9211 129.187Z" fill="#0054CD"/>
<path opacity="0.19" d="M80.1199 111.853C78.6934 113.366 76.4285 114.144 76.4285 114.144C76.4285 114.144 72.6763 111.454 73.0974 108.582C73.1961 107.914 73.4047 107.41 73.6893 107.038L80.1237 111.853H80.1199Z" fill="black"/>
<path d="M81.2621 108.153C81.1825 111.052 77.0281 113.063 77.0281 113.063C77.0281 113.063 75.9469 112.467 74.9111 111.484C73.9437 110.574 73.0218 109.33 73.0597 107.93C73.1394 105.031 75.6358 104.773 77.214 106.059C78.5457 105.084 80.4275 105.16 81.0497 106.765C81.1976 107.14 81.2735 107.6 81.2583 108.15L81.2621 108.153Z" fill="#F4B519"/>
<path d="M58.3055 75.4505L59.8041 74.7145L58.1461 74.9004L58.3776 74.2213L57.9299 74.7828L57.1901 73.2842L57.376 74.9421L56.6969 74.7107L57.2584 75.1584L55.7598 75.8982L57.4215 75.7123L57.1901 76.3914L57.6377 75.8299L58.3738 77.3285L58.1879 75.6667L58.867 75.8982L58.3055 75.4505Z" fill="#FFC133"/>
<path d="M101.149 70.5783L102.648 69.8385L100.986 70.0282L101.218 69.3453L100.77 69.9068L100.034 68.4082L100.22 70.0699L99.5406 69.8385L100.102 70.2862L98.6035 71.0222L100.261 70.8363L100.03 71.5154L100.478 70.9539L101.218 72.4525L101.028 70.7946L101.711 71.026L101.149 70.5783Z" fill="#FFC133"/>
<path d="M106.761 84.946L108.783 86.4939L107.403 84.3542L108.488 84.21L107.418 83.9786L108.966 81.9564L106.826 83.3336L106.682 82.2485L106.45 83.3184L104.428 81.7705L105.805 83.9103L104.72 84.0544L105.79 84.2859L104.242 86.308L106.386 84.9308L106.53 86.0159L106.761 84.946Z" fill="#FFC133"/>
<path d="M81.2628 108.153C81.1831 111.052 77.0288 113.062 77.0288 113.062C77.0288 113.062 75.9475 112.467 74.9118 111.484C74.817 110.797 74.8928 109.944 75.6023 109.39C76.9757 108.32 77.8331 109.614 78.7816 108.532C79.7263 107.455 77.6586 106.525 78.3491 106.097C78.9827 105.71 80.2422 105.353 81.0503 106.764C81.1983 107.14 81.2742 107.599 81.259 108.149L81.2628 108.153Z" fill="#F2961C"/>
</g>
<defs>
<filter id="filter0_d_1871_213652" x="0" y="0.0214844" width="138.115" height="153.699" filterUnits="userSpaceOnUse" color-interpolation-filters="sRGB">
<feFlood flood-opacity="0" result="BackgroundImageFix"/>
<feColorMatrix in="SourceAlpha" type="matrix" values="0 0 0 0 0 0 0 0 0 0 0 0 0 0 0 0 0 0 127 0" result="hardAlpha"/>
<feOffset dy="4"/>
<feGaussianBlur stdDeviation="10"/>
<feComposite in2="hardAlpha" operator="out"/>
<feColorMatrix type="matrix" values="0 0 0 0 0.0784314 0 0 0 0 0.439216 0 0 0 0 0.960784 0 0 0 0.5 0"/>
<feBlend mode="normal" in2="BackgroundImageFix" result="effect1_dropShadow_1871_213652"/>
<feBlend mode="normal" in="SourceGraphic" in2="effect1_dropShadow_1871_213652" result="shape"/>
</filter>
<filter id="filter1_d_1871_213652" x="20" y="15.0216" width="111.115" height="83.434" filterUnits="userSpaceOnUse" color-interpolation-filters="sRGB">
<feFlood flood-opacity="0" result="BackgroundImageFix"/>
<feColorMatrix in="SourceAlpha" type="matrix" values="0 0 0 0 0 0 0 0 0 0 0 0 0 0 0 0 0 0 127 0" result="hardAlpha"/>
<feOffset dx="7" dy="5"/>
<feGaussianBlur stdDeviation="3"/>
<feColorMatrix type="matrix" values="0 0 0 0 0 0 0 0 0 0 0 0 0 0 0 0 0 0 0.2 0"/>
<feBlend mode="normal" in2="BackgroundImageFix" result="effect1_dropShadow_1871_213652"/>
<feBlend mode="normal" in="SourceGraphic" in2="effect1_dropShadow_1871_213652" result="shape"/>
</filter>
</defs>
</svg>
