<svg width="21" height="21" viewBox="0 0 21 21" fill="none" xmlns="http://www.w3.org/2000/svg">
<g clip-path="url(#clip0_1871_215589)">
<path d="M10.0379 20.3829C9.64125 20.3829 9.24208 20.2429 8.92375 19.9604L5.80042 17.3296H3.36458C1.52625 17.3296 0.0312503 15.8346 0.0312503 13.9963V3.99544C0.030417 2.15711 1.52542 0.662109 3.36375 0.662109H16.6971C18.5354 0.662109 20.0304 2.15711 20.0304 3.99544V13.9954C20.0304 15.8338 18.5354 17.3288 16.6971 17.3288H14.3204L11.1146 19.9788C10.8129 20.2471 10.4271 20.3821 10.0371 20.3821L10.0379 20.3829ZM3.36375 2.32878C2.44458 2.32878 1.69708 3.07628 1.69708 3.99544V13.9954C1.69708 14.9146 2.44458 15.6621 3.36375 15.6621H6.10458C6.30125 15.6621 6.49125 15.7313 6.64208 15.8579L10.0146 18.6996L13.4896 15.8529C13.6396 15.7296 13.8271 15.6621 14.0213 15.6621H16.6979C17.6171 15.6621 18.3646 14.9146 18.3646 13.9954V3.99544C18.3646 3.07628 17.6171 2.32878 16.6979 2.32878H3.36375Z" fill="black"/>
</g>
<defs>
<clipPath id="clip0_1871_215589">
<rect width="20" height="20" fill="white" transform="translate(0.03125 0.662109)"/>
</clipPath>
</defs>
</svg>
