<svg width="146" height="55" viewBox="0 0 146 55" fill="none" xmlns="http://www.w3.org/2000/svg">
<g clip-path="url(#clip0_968_47683)">
<path d="M26.6069 48.0315C26.5558 47.3923 25.169 29.296 31.5409 22.44C32.1406 21.7945 32.8093 21.2488 33.5542 20.8265C35.3723 19.7957 37.6451 19.501 40.4832 20.2903C40.4832 20.2903 44.9978 22.0031 46.667 19.6304C48.3361 17.2577 46.7648 13.3147 41.5256 14.0184C39.5009 14.2904 36.4104 14.7928 33.5359 17.1006C32.722 17.7541 31.9253 18.5524 31.1755 19.5311C27.7207 24.0385 25.2507 32.3744 26.6072 48.0313L26.6069 48.0315Z" fill="#FFC133"/>
<path d="M26.9982 13.0949C28.8286 16.5149 26.6091 30.1765 26.6611 30.4351C26.681 30.4083 27.6832 25.3951 28.636 22.1021C30.1072 17.0175 31.2968 10.5586 28.5626 7.68412C26.3534 5.31407 24.1025 5.16771 22.6416 6.07575C21.4982 6.81602 21.4297 8.44268 22.4707 9.57873C23.6465 10.862 25.6016 10.6867 26.9984 13.0949H26.9982Z" fill="#FFC133"/>
<path d="M32.8714 10.4454C30.4818 8.05579 30.4819 4.18152 32.8714 1.79194C35.261 -0.597635 39.1353 -0.597636 41.5249 1.79194C43.9144 4.18152 43.9144 8.05579 41.5249 10.4454C39.1353 12.8349 35.261 12.8349 32.8714 10.4454Z" fill="#FFC133"/>
<path d="M20.7001 55.0003C20.7512 54.3611 22.138 36.2648 15.7661 29.4087C15.1664 28.7633 14.4977 28.2176 13.7528 27.7952C11.9347 26.7645 9.66191 26.4697 6.82378 27.2591C6.82378 27.2591 2.30924 28.9719 0.639967 26.5991C-1.02909 24.2262 0.542246 20.2835 5.78144 20.9872C7.80612 21.2591 10.8966 21.7615 13.7711 24.0694C14.585 24.7228 15.3817 25.5211 16.1315 26.4999C19.5863 31.0073 22.0563 39.3432 20.6998 55.0001L20.7001 55.0003Z" fill="#FFC133"/>
<path d="M20.3106 20.0631C18.4802 23.4831 20.6997 37.1448 20.6477 37.4034C20.6278 37.3764 19.6256 32.3634 18.6727 29.0704C17.2016 23.9858 16.012 17.5269 18.7461 14.6524C20.9553 12.2823 23.2063 12.136 24.6671 13.044C25.8106 13.7843 25.8791 15.4109 24.838 16.547C23.6623 17.8303 21.7072 17.6549 20.3103 20.0631H20.3106Z" fill="#FFC133"/>
<path d="M5.78158 17.4136C3.39201 15.024 3.39201 11.1498 5.78158 8.7602C8.17116 6.37062 12.0454 6.37063 14.435 8.7602C16.8246 11.1498 16.8246 15.024 14.435 17.4136C12.0454 19.8032 8.17116 19.8032 5.78158 17.4136Z" fill="#FFC133"/>
</g>
<path d="M40.364 36.346V43.055C40.364 43.5541 40.3736 43.8517 40.3928 43.9477C40.4503 44.2548 40.6135 44.4852 40.8823 44.6387L41.199 44.8115C41.6597 45.061 41.8901 45.3682 41.8901 45.7329C41.8901 46.3856 41.4198 46.7119 40.4791 46.7119H35.0082C34.0676 46.7119 33.5973 46.3856 33.5973 45.7329C33.5973 45.3682 33.8277 45.061 34.2884 44.8115L34.6051 44.6387C34.8739 44.4852 35.037 44.2548 35.0946 43.9477C35.1138 43.8517 35.1234 43.5541 35.1234 43.055V29.2914C35.1234 28.7923 35.1138 28.4947 35.0946 28.3988C35.037 28.0916 34.8739 27.8613 34.6051 27.7077L34.2884 27.5349C33.8277 27.2854 33.5973 26.9782 33.5973 26.6135C33.5973 25.9608 34.0676 25.6345 35.0082 25.6345H40.4791C41.4198 25.6345 41.8901 25.9608 41.8901 26.6135C41.8901 26.9782 41.6597 27.2854 41.199 27.5349L40.8823 27.7077C40.6135 27.8613 40.4503 28.0916 40.3928 28.3988C40.3736 28.4947 40.364 28.7923 40.364 29.2914V34.1864H48.9447V29.2914C48.9447 28.7923 48.9351 28.4947 48.9159 28.3988C48.8583 28.0916 48.6951 27.8613 48.4264 27.7077L48.1096 27.5349C47.6489 27.2854 47.4186 26.9782 47.4186 26.6135C47.4186 25.9608 47.8889 25.6345 48.8295 25.6345H54.3004C55.241 25.6345 55.7113 25.9608 55.7113 26.6135C55.7113 26.9782 55.481 27.2854 55.0202 27.5349L54.7035 27.7077C54.4348 27.8613 54.2716 28.0916 54.214 28.3988C54.1948 28.4947 54.1852 28.7923 54.1852 29.2914V43.055C54.1852 43.5541 54.1948 43.8517 54.214 43.9477C54.2716 44.2548 54.4348 44.4852 54.7035 44.6387L55.0202 44.8115C55.481 45.061 55.7113 45.3682 55.7113 45.7329C55.7113 46.3856 55.241 46.7119 54.3004 46.7119H48.8295C47.8889 46.7119 47.4186 46.3856 47.4186 45.7329C47.4186 45.3682 47.6489 45.061 48.1096 44.8115L48.4264 44.6387C48.6951 44.4852 48.8583 44.2548 48.9159 43.9477C48.9351 43.8517 48.9447 43.5541 48.9447 43.055V36.346H40.364ZM71.3844 38.2176V42.7671C71.3844 43.6309 71.4324 44.1684 71.5284 44.3796C71.6243 44.5715 71.8355 44.7443 72.1618 44.8979C72.6417 45.1282 72.8817 45.4258 72.8817 45.7905C72.8817 46.4048 72.3634 46.7119 71.3268 46.7119H68.4474C67.7755 46.7119 67.3436 46.5775 67.1516 46.3088C67.0365 46.1168 66.9501 45.6561 66.8925 44.9267C65.9903 46.4048 64.5026 47.1438 62.4294 47.1438C60.9897 47.1438 59.7899 46.7695 58.8301 46.0209C57.7743 45.2146 57.2464 44.1012 57.2464 42.6807C57.2464 40.8571 58.2446 39.4942 60.241 38.5919C61.7383 37.9201 63.5236 37.5841 65.5967 37.5841H66.5757C66.5757 35.5685 65.6831 34.5607 63.8979 34.5607C63.322 34.5607 62.6885 34.8679 61.9975 35.4821C61.3256 36.0964 60.6825 36.4036 60.0682 36.4036C58.8781 36.4036 58.283 35.9429 58.283 35.0214C58.283 34.1576 59.0988 33.5049 60.7305 33.0634C61.8439 32.7755 63.0149 32.6315 64.2434 32.6315C66.2206 32.6315 67.8235 32.9866 69.0521 33.6969C70.6069 34.5991 71.3844 36.106 71.3844 38.2176ZM66.7197 39.3982H66.2014C65.0688 39.3982 64.1282 39.6573 63.3796 40.1756C62.5158 40.7899 62.0838 41.6345 62.0838 42.7095C62.0838 43.2854 62.247 43.7749 62.5733 44.178C62.8997 44.5811 63.3412 44.7827 63.8979 44.7827C64.7809 44.7827 65.52 44.322 66.115 43.4006C66.5182 42.7671 66.7197 41.7401 66.7197 40.3196V39.3982ZM80.1977 38.7359V48.1228C80.1977 48.9483 80.2457 49.4762 80.3417 49.7065C80.3992 49.8601 80.6104 50.0329 80.9751 50.2248C81.4358 50.4744 81.6662 50.7623 81.6662 51.0886C81.6662 51.7029 81.1479 52.0101 80.1113 52.0101H75.5906C74.554 52.0101 74.0357 51.7029 74.0357 51.0886C74.0357 50.7623 74.2661 50.4744 74.7268 50.2248C74.8995 50.148 75.1107 49.9753 75.3602 49.7065C75.4562 49.4762 75.5042 48.9483 75.5042 48.1228V37.5553C75.5042 36.8835 75.485 36.4804 75.4466 36.346C75.3507 36.0196 75.0915 35.7605 74.6692 35.5685C74.2469 35.3574 74.0357 35.0886 74.0357 34.7623C74.0357 34.3016 74.6596 33.8121 75.9073 33.2938C77.0207 32.8523 77.8749 32.6315 78.47 32.6315C79.1227 32.6315 79.5546 33.3226 79.7658 34.7047C81.0519 33.3226 82.53 32.6315 84.2001 32.6315C86.2349 32.6315 87.8666 33.3226 89.0951 34.7047C90.3237 36.0676 90.9379 37.7761 90.9379 39.8301C90.9379 41.8841 90.2661 43.6213 88.9223 45.0418C87.5978 46.4432 85.9277 47.1438 83.9121 47.1438C83.2403 47.1438 82.6164 47.0287 82.0405 46.7983C81.2919 46.4912 80.9175 46.04 80.9175 45.445C80.9175 44.9651 81.1287 44.7251 81.551 44.7251C81.6854 44.7251 81.8965 44.7443 82.1845 44.7827C82.4916 44.8019 82.722 44.8115 82.8756 44.8115C83.9121 44.8115 84.7184 44.274 85.2943 43.199C85.755 42.3544 85.9853 41.289 85.9853 40.0028C85.9853 38.7743 85.7742 37.7185 85.3519 36.8355C84.7952 35.6645 83.9793 35.079 82.9043 35.079C82.0981 35.079 81.4262 35.3862 80.8887 36.0004C80.428 36.5379 80.1977 37.4498 80.1977 38.7359ZM98.6159 38.7359V48.1228C98.6159 48.9483 98.6639 49.4762 98.7599 49.7065C98.8175 49.8601 99.0286 50.0329 99.3933 50.2248C99.854 50.4744 100.084 50.7623 100.084 51.0886C100.084 51.7029 99.5661 52.0101 98.5295 52.0101H94.0088C92.9722 52.0101 92.4539 51.7029 92.4539 51.0886C92.4539 50.7623 92.6843 50.4744 93.145 50.2248C93.3177 50.148 93.5289 49.9753 93.7785 49.7065C93.8744 49.4762 93.9224 48.9483 93.9224 48.1228V37.5553C93.9224 36.8835 93.9032 36.4804 93.8648 36.346C93.7689 36.0196 93.5097 35.7605 93.0874 35.5685C92.6651 35.3574 92.4539 35.0886 92.4539 34.7623C92.4539 34.3016 93.0778 33.8121 94.3255 33.2938C95.4389 32.8523 96.2932 32.6315 96.8882 32.6315C97.5409 32.6315 97.9728 33.3226 98.184 34.7047C99.4701 33.3226 100.948 32.6315 102.618 32.6315C104.653 32.6315 106.285 33.3226 107.513 34.7047C108.742 36.0676 109.356 37.7761 109.356 39.8301C109.356 41.8841 108.684 43.6213 107.341 45.0418C106.016 46.4432 104.346 47.1438 102.33 47.1438C101.658 47.1438 101.035 47.0287 100.459 46.7983C99.7101 46.4912 99.3358 46.04 99.3358 45.445C99.3358 44.9651 99.5469 44.7251 99.9692 44.7251C100.104 44.7251 100.315 44.7443 100.603 44.7827C100.91 44.8019 101.14 44.8115 101.294 44.8115C102.33 44.8115 103.137 44.274 103.712 43.199C104.173 42.3544 104.404 41.289 104.404 40.0028C104.404 38.7743 104.192 37.7185 103.77 36.8355C103.213 35.6645 102.398 35.079 101.323 35.079C100.516 35.079 99.8445 35.3862 99.307 36.0004C98.8462 36.5379 98.6159 37.4498 98.6159 38.7359ZM111.39 32.8619H115.134C115.748 32.8619 116.151 32.8907 116.343 32.9483C116.746 33.0634 116.948 33.3514 116.948 33.8121C116.948 34.004 116.785 34.2728 116.458 34.6183C116.132 34.9447 115.969 35.3574 115.969 35.8565C115.969 37.5841 116.276 39.3214 116.89 41.0682C117.658 43.2374 118.426 44.322 119.194 44.322C119.962 44.322 120.633 43.1414 121.209 40.7803C121.67 38.8799 121.9 37.3538 121.9 36.202C121.9 35.7029 121.862 35.3574 121.785 35.1654C121.708 34.9543 121.497 34.7431 121.152 34.5319C120.749 34.3016 120.547 34.0136 120.547 33.6681C120.547 33.265 120.739 33.0154 121.123 32.9195C121.257 32.8811 121.612 32.8619 122.188 32.8619H123.83C124.482 32.8619 124.857 32.8715 124.953 32.8907C125.413 32.9674 125.644 33.2074 125.644 33.6105C125.644 33.8601 125.49 34.1672 125.183 34.5319C125.01 34.7431 124.885 34.9543 124.809 35.1654C124.713 35.4342 124.549 36.3076 124.319 37.7857C123.801 41.0874 122.755 44.13 121.18 46.9135C119.146 50.5224 116.775 52.3268 114.068 52.3268C113.454 52.3268 112.897 52.1828 112.398 51.8949C111.803 51.5494 111.506 51.0982 111.506 50.5416C111.506 50.0808 111.669 49.7065 111.995 49.4186C112.341 49.1498 112.744 49.0155 113.204 49.0155C113.55 49.0155 113.972 49.121 114.471 49.3322C114.971 49.5434 115.287 49.6489 115.422 49.6489C115.978 49.6489 116.679 49.1786 117.524 48.238C117.984 47.7197 118.407 47.0766 118.791 46.3088C118.33 46.424 117.869 46.4816 117.408 46.4816C116.084 46.4816 114.913 45.9633 113.896 44.9267C112.686 43.6981 111.707 40.5595 110.959 35.5109C110.882 35.0502 110.699 34.6951 110.411 34.4456C110.123 34.196 109.98 33.9369 109.98 33.6681C109.98 33.1306 110.45 32.8619 111.39 32.8619ZM135.838 33.0634L138.113 33.6393C140.109 34.1384 141.52 34.7239 142.345 35.3958C143.728 36.5091 144.419 37.9393 144.419 39.6861C144.419 41.9513 143.478 43.7845 141.597 45.1858C139.85 46.4912 137.71 47.1438 135.176 47.1438C133.064 47.1438 131.231 46.7791 129.676 46.0496C128.812 45.6465 128.063 45.1186 127.43 44.466C126.643 43.6597 126.249 42.8631 126.249 42.076C126.249 41.6537 126.384 41.289 126.653 40.9819C126.921 40.6555 127.257 40.4924 127.66 40.4924C128.275 40.4924 128.812 40.8475 129.273 41.5577C129.734 42.2488 130.012 42.6615 130.108 42.7959C130.434 43.2182 130.808 43.5637 131.231 43.8325C132.287 44.5235 133.515 44.8691 134.916 44.8691C136.049 44.8691 137.038 44.6003 137.882 44.0628C138.861 43.4294 139.351 42.5847 139.351 41.5289C139.351 40.4924 138.871 39.7437 137.911 39.283C137.124 38.8991 135.895 38.5535 134.225 38.2464C132.133 37.8625 130.578 37.325 129.561 36.6339C127.871 35.4821 127.027 33.9465 127.027 32.0268C127.027 29.9153 127.948 28.178 129.791 26.8151C131.25 25.7401 133.179 25.2026 135.579 25.2026C137.921 25.2026 140.042 25.7017 141.942 26.6999C142.365 26.9303 142.624 27.2086 142.72 27.5349C142.854 27.9956 142.921 28.8595 142.921 30.1264C142.921 30.9135 142.566 31.307 141.856 31.307C141.491 31.307 141.088 30.9519 140.647 30.2416C140.051 29.2818 139.543 28.6291 139.12 28.2836C138.276 27.5733 137.172 27.2182 135.809 27.2182C134.888 27.2182 134.081 27.4485 133.39 27.9093C132.603 28.4467 132.21 29.1474 132.21 30.0112C132.21 30.9327 132.613 31.6525 133.419 32.1708C133.899 32.4779 134.705 32.7755 135.838 33.0634Z" fill="#1B1E28"/>
<defs>
<clipPath id="clip0_968_47683">
<rect width="47.3049" height="55" fill="white" transform="matrix(-1 0 0 1 47.3047 0)"/>
</clipPath>
</defs>
</svg>
