<svg width="21" height="21" viewBox="0 0 21 21" fill="none" xmlns="http://www.w3.org/2000/svg">
<g clip-path="url(#clip0_1871_215585)">
<path d="M18.8258 12.0472L17.2425 6.35051C16.7784 4.68162 15.7698 3.21575 14.377 2.1859C12.9841 1.15605 11.287 0.621332 9.5554 0.666732C7.82378 0.712132 6.15702 1.33505 4.82007 2.43647C3.48311 3.53789 2.55268 5.0546 2.17668 6.74551L0.950848 12.258C0.815444 12.8671 0.818574 13.4989 0.960008 14.1066C1.10144 14.7144 1.37757 15.2826 1.768 15.7693C2.15843 16.256 2.6532 16.6489 3.21577 16.9188C3.77835 17.1887 4.39437 17.3289 5.01835 17.3288H5.94668C6.13794 18.2708 6.64896 19.1176 7.39313 19.7258C8.13731 20.3341 9.06888 20.6664 10.03 20.6664C10.9911 20.6664 11.9227 20.3341 12.6669 19.7258C13.4111 19.1176 13.9221 18.2708 14.1133 17.3288H14.8117C15.454 17.3289 16.0877 17.1804 16.6631 16.895C17.2386 16.6097 17.7403 16.1951 18.129 15.6837C18.5178 15.1724 18.783 14.578 18.904 13.9472C19.025 13.3164 18.9977 12.6661 18.8258 12.0472ZM10.03 18.9955C9.5148 18.9934 9.01282 18.8321 8.59277 18.5338C8.17271 18.2354 7.85508 17.8146 7.68335 17.3288H12.3767C12.2049 17.8146 11.8873 18.2354 11.4673 18.5338C11.0472 18.8321 10.5452 18.9934 10.03 18.9955ZM16.8017 14.6747C16.5695 14.9827 16.2686 15.2324 15.923 15.4038C15.5774 15.5752 15.1966 15.6637 14.8108 15.6622H5.01835C4.644 15.6621 4.27445 15.578 3.93697 15.416C3.59948 15.254 3.30269 15.0183 3.06848 14.7263C2.83428 14.4342 2.66865 14.0933 2.58382 13.7287C2.49898 13.3641 2.49711 12.9851 2.57835 12.6197L3.80335 7.10634C4.09864 5.77818 4.82944 4.58685 5.87956 3.72172C6.92969 2.85659 8.23887 2.36732 9.59899 2.33169C10.9591 2.29606 12.2921 2.71611 13.3861 3.52507C14.4801 4.33403 15.2723 5.48547 15.6367 6.79634L17.22 12.493C17.3246 12.8642 17.3413 13.2546 17.2687 13.6333C17.1961 14.012 17.0362 14.3686 16.8017 14.6747Z" fill="black"/>
</g>
<defs>
<clipPath id="clip0_1871_215585">
<rect width="20" height="20" fill="white" transform="translate(0.03125 0.662109)"/>
</clipPath>
</defs>
</svg>
