<svg width="21" height="21" viewBox="0 0 21 21" fill="none" xmlns="http://www.w3.org/2000/svg">
<circle cx="10.0312" cy="10.6621" r="10" fill="#1470F5"/>
<path d="M6.62305 14.8027C5.00586 14.8027 3.85156 13.7949 3.72852 12.418L3.72266 12.3535H4.75977L4.76562 12.4004C4.87109 13.2383 5.62109 13.877 6.63477 13.877C7.7832 13.877 8.58008 13.0801 8.58008 11.9434V11.9316C8.57422 10.8184 7.77148 10.0215 6.65234 10.0215C6.07812 10.0215 5.58594 10.1914 5.21094 10.5312C5.05859 10.6719 4.92383 10.8359 4.8125 11.0293H3.88086L4.31445 6.20703H9.1543V7.14453H5.18164L4.89453 9.98633H4.91797C5.31641 9.41797 6.01953 9.11328 6.83984 9.11328C8.46289 9.11328 9.63477 10.291 9.63477 11.9141V11.9258C9.62891 13.6191 8.38086 14.8027 6.62305 14.8027ZM10.707 11.709V10.7598H13.2031V8.33398H14.1523V10.7598H16.6543V11.709H14.1523V14.1348H13.2031V11.709H10.707Z" fill="white"/>
</svg>
