<svg width="60" height="61" viewBox="0 0 60 61" fill="none" xmlns="http://www.w3.org/2000/svg">
<g id="inverted-commas 2" opacity="0.6" clip-path="url(#clip0_1871_219743)">
<g id="Group">
<path id="Vector" d="M0.234376 40.4394C0.234375 47.0137 5.56641 52.3457 12.1406 52.3457C18.7148 52.3457 24.0469 47.0137 24.0469 40.4395C24.0469 33.8652 18.7148 28.5332 12.1406 28.5332C10.1719 28.5332 8.35547 29.0488 6.71484 29.8926C8.82422 20.6113 17.1328 13.6504 27.0469 13.6504C28.6875 13.6504 30.0234 12.3145 30.0234 10.6738C30.0234 9.0332 28.6875 7.69727 27.0469 7.69727C12.2578 7.69726 0.234378 19.7207 0.234377 34.5098L0.234376 40.4394Z" fill="white"/>
<path id="Vector_2" d="M29.9766 40.4394C29.9766 47.0137 35.3086 52.3457 41.8828 52.3457C48.457 52.3457 53.7891 47.0137 53.7891 40.4395C53.7891 33.8652 48.457 28.5332 41.8828 28.5332C39.9141 28.5332 38.0977 29.0488 36.457 29.8926C38.5664 20.6113 46.875 13.6504 56.7891 13.6504C58.4297 13.6504 59.7656 12.3145 59.7656 10.6738C59.7656 9.0332 58.4297 7.69727 56.7891 7.69727C42 7.69726 29.9766 19.7207 29.9766 34.5098L29.9766 40.4394Z" fill="white"/>
</g>
</g>
<defs>
<clipPath id="clip0_1871_219743">
<rect width="60" height="60" fill="white" transform="translate(60 60.0215) rotate(-180)"/>
</clipPath>
</defs>
</svg>
