<svg width="18" height="18" viewBox="0 0 18 18" fill="none" xmlns="http://www.w3.org/2000/svg">
<g id="share (2) 1" clip-path="url(#clip0_945_63393)">
<g id="01 align center">
<path id="Vector" d="M14.5001 11.0004C13.9331 11.0009 13.3746 11.1393 12.873 11.4038C12.3714 11.6683 11.9416 12.0508 11.6209 12.5184L6.73913 10.3142C7.08586 9.47691 7.08721 8.53645 6.74288 7.69819L11.6179 5.48269C12.0933 6.17025 12.7994 6.66466 13.6081 6.87622C14.4168 7.08778 15.2745 7.00249 16.0257 6.63581C16.7769 6.26913 17.3718 5.64536 17.7025 4.87764C18.0332 4.10991 18.0778 3.24909 17.8281 2.45132C17.5785 1.65354 17.0512 0.971658 16.3419 0.529352C15.6326 0.0870461 14.7883 -0.086385 13.962 0.0405177C13.1358 0.16742 12.3824 0.586251 11.8386 1.22104C11.2947 1.85582 10.9963 2.66452 10.9976 3.50044C11.0008 3.69829 11.0209 3.8955 11.0576 4.08994L5.87513 6.44494C5.37738 5.9786 4.75426 5.66781 4.08231 5.55076C3.41036 5.4337 2.71885 5.51547 2.09273 5.78603C1.46662 6.05658 0.933171 6.50414 0.557924 7.07371C0.182677 7.64328 -0.0180242 8.31005 -0.0195228 8.99212C-0.0210214 9.67419 0.176748 10.3418 0.549488 10.9131C0.922229 11.4843 1.45371 11.9342 2.07862 12.2075C2.70354 12.4808 3.39469 12.5656 4.06715 12.4515C4.7396 12.3374 5.36409 12.0293 5.86388 11.5652L11.0599 13.9112C11.0238 14.1054 11.004 14.3024 11.0006 14.4999C11.0005 15.1923 11.2057 15.8691 11.5902 16.4449C11.9748 17.0206 12.5214 17.4693 13.161 17.7344C13.8007 17.9994 14.5045 18.0688 15.1836 17.9337C15.8626 17.7987 16.4864 17.4653 16.9759 16.9757C17.4655 16.4862 17.7989 15.8624 17.9339 15.1834C18.0689 14.5043 17.9996 13.8005 17.7345 13.1609C17.4695 12.5212 17.0208 11.9746 16.445 11.59C15.8693 11.2055 15.1925 11.0003 14.5001 11.0004ZM14.5001 1.50019C14.8958 1.50004 15.2826 1.61722 15.6116 1.83692C15.9406 2.05662 16.1971 2.36897 16.3487 2.73445C16.5002 3.09994 16.5399 3.50215 16.4628 3.89021C16.3857 4.27827 16.1952 4.63475 15.9155 4.91456C15.6358 5.19438 15.2794 5.38496 14.8914 5.4622C14.5034 5.53944 14.1011 5.49987 13.7356 5.3485C13.37 5.19713 13.0576 4.94075 12.8378 4.61179C12.618 4.28284 12.5006 3.89608 12.5006 3.50044C12.501 2.97019 12.7118 2.46176 13.0867 2.08675C13.4615 1.71174 13.9699 1.50078 14.5001 1.50019ZM3.50063 11.0004C3.10498 11.0006 2.71818 10.8834 2.38914 10.6637C2.06011 10.444 1.80361 10.1317 1.6521 9.76617C1.50059 9.40068 1.46087 8.99848 1.53797 8.61042C1.61507 8.22236 1.80551 7.86588 2.08522 7.58606C2.36493 7.30625 2.72134 7.11567 3.10937 7.03843C3.4974 6.96118 3.89962 7.00075 4.26517 7.15212C4.63071 7.3035 4.94315 7.55987 5.16297 7.88883C5.3828 8.21778 5.50013 8.60454 5.50013 9.00019C5.49953 9.53037 5.2887 10.0387 4.91388 10.4137C4.53905 10.7886 4.03081 10.9996 3.50063 11.0004ZM14.5001 16.5002C14.1045 16.5002 13.7178 16.3829 13.3888 16.1631C13.0599 15.9433 12.8035 15.6309 12.6521 15.2654C12.5007 14.8999 12.4611 14.4977 12.5383 14.1097C12.6155 13.7217 12.806 13.3653 13.0857 13.0855C13.3655 12.8058 13.7219 12.6153 14.1099 12.5381C14.4979 12.4609 14.9001 12.5006 15.2656 12.6519C15.6311 12.8033 15.9435 13.0597 16.1633 13.3887C16.3831 13.7176 16.5004 14.1043 16.5004 14.4999C16.5 15.0303 16.2891 15.5389 15.9141 15.9139C15.539 16.2889 15.0305 16.4998 14.5001 16.5002Z" fill="white"/>
</g>
</g>
<defs>
<clipPath id="clip0_945_63393">
<rect width="18" height="18" fill="white"/>
</clipPath>
</defs>
</svg>
