<svg width="60" height="46" viewBox="0 0 60 46" fill="none" xmlns="http://www.w3.org/2000/svg">
<g id="Group">
<path id="Vector" d="M59.7656 12.6035C59.7656 6.0293 54.4336 0.697266 47.8594 0.697266C41.2852 0.697266 35.9531 6.0293 35.9531 12.6035C35.9531 19.1777 41.2852 24.5098 47.8594 24.5098C49.8281 24.5098 51.6445 23.9941 53.2852 23.1504C51.1758 32.4316 42.8672 39.3926 32.9531 39.3926C31.3125 39.3926 29.9766 40.7285 29.9766 42.3691C29.9766 44.0098 31.3125 45.3457 32.9531 45.3457C47.7422 45.3457 59.7656 33.3223 59.7656 18.5332V12.6035Z" fill="white" fill-opacity="0.5"/>
<path id="Vector_2" d="M30.0234 12.6035C30.0234 6.0293 24.6914 0.697266 18.1172 0.697266C11.543 0.697266 6.21094 6.0293 6.21094 12.6035C6.21094 19.1777 11.543 24.5098 18.1172 24.5098C20.0859 24.5098 21.9023 23.9941 23.543 23.1504C21.4336 32.4316 13.125 39.3926 3.21094 39.3926C1.57031 39.3926 0.234375 40.7285 0.234375 42.3691C0.234375 44.0098 1.57031 45.3457 3.21094 45.3457C18 45.3457 30.0234 33.3223 30.0234 18.5332V12.6035Z" fill="white" fill-opacity="0.5"/>
</g>
</svg>
