<svg width="111" height="110" viewBox="0 0 111 110" fill="none" xmlns="http://www.w3.org/2000/svg">
<g id="qualitative-research 1" clip-path="url(#clip0_413_36363)">
<g id="Flat">
<g id="Color">
<path id="Vector" d="M27.9698 108.711C27.5688 108.711 27.182 108.562 26.8848 108.293C26.5876 108.024 26.4012 107.653 26.362 107.254C26.3322 106.95 26.317 106.642 26.3164 106.33C26.3164 103.604 27.3993 100.989 29.3268 99.0619C31.2543 97.1344 33.8686 96.0515 36.5945 96.0515C39.3205 96.0515 41.9347 97.1344 43.8623 99.0619C45.7898 100.989 46.8727 103.604 46.8727 106.33C46.8727 106.641 46.8575 106.95 46.8271 107.254C46.7878 107.653 46.6015 108.024 46.3042 108.293C46.007 108.562 45.6203 108.711 45.2192 108.711H27.9698Z" fill="#2196F3"/>
<path id="Vector_2" d="M36.5938 91.9531C39.2042 91.9531 41.3203 89.837 41.3203 87.2266C41.3203 84.6162 39.2042 82.5 36.5938 82.5C33.9833 82.5 31.8672 84.6162 31.8672 87.2266C31.8672 89.837 33.9833 91.9531 36.5938 91.9531Z" fill="#2196F3"/>
<path id="Vector_3" d="M77.9414 79.1421L93.157 70.3571L107.506 95.2088C108.67 97.2264 108.986 99.6242 108.383 101.875C107.78 104.125 106.308 106.044 104.29 107.208C102.273 108.373 99.875 108.689 97.6247 108.086C95.3743 107.483 93.4556 106.011 92.2907 103.993L77.9414 79.1421Z" fill="#FFC107"/>
<path id="Vector_4" d="M88.4844 97.4032L92.2914 103.996C92.855 105.02 93.6172 105.922 94.5335 106.647C95.4498 107.373 96.5017 107.909 97.6275 108.223C98.7534 108.537 99.9306 108.623 101.09 108.476C102.25 108.329 103.369 107.953 104.381 107.368C105.393 106.784 106.278 106.003 106.985 105.072C107.692 104.141 108.205 103.078 108.496 101.946C108.787 100.814 108.849 99.635 108.678 98.4787C108.507 97.3223 108.108 96.2117 107.502 95.2118L103.696 88.6187L88.4844 97.4032Z" fill="#FFA000"/>
<path id="Vector_5" d="M93.1575 70.3596L77.9414 79.1484L82.0423 86.2503C87.5997 84.2269 92.7056 81.1319 97.0702 77.1409L93.1575 70.3596Z" fill="#FFA000"/>
<path id="Vector_6" d="M66.6719 86.3672C90.1656 86.3672 109.211 67.3218 109.211 43.8281C109.211 20.3344 90.1656 1.28906 66.6719 1.28906C43.1782 1.28906 24.1328 20.3344 24.1328 43.8281C24.1328 67.3218 43.1782 86.3672 66.6719 86.3672Z" fill="#FFC107"/>
<path id="Vector_7" d="M66.6719 75.625C84.2328 75.625 98.4688 61.3891 98.4688 43.8281C98.4688 26.2672 84.2328 12.0312 66.6719 12.0312C49.1109 12.0312 34.875 26.2672 34.875 43.8281C34.875 61.3891 49.1109 75.625 66.6719 75.625Z" fill="white"/>
<path id="Vector_8" d="M4.38422 108.711C3.84499 108.712 3.32475 108.512 2.92487 108.15C2.525 107.789 2.27413 107.291 2.22117 106.754C2.18078 106.346 2.16016 105.931 2.16016 105.512C2.16016 101.849 3.61497 98.3371 6.20455 95.7475C8.79414 93.1579 12.3064 91.7031 15.9686 91.7031C19.6308 91.7031 23.143 93.1579 25.7326 95.7475C28.3222 98.3371 29.777 101.849 29.777 105.512C29.777 105.931 29.7564 106.346 29.716 106.754C29.6631 107.29 29.4126 107.788 29.0133 108.149C28.6139 108.511 28.0943 108.711 27.5555 108.711H4.38422Z" fill="#FFC107"/>
<path id="Vector_9" d="M15.9688 87.2266C19.5284 87.2266 22.4141 84.3409 22.4141 80.7812C22.4141 77.2216 19.5284 74.3359 15.9688 74.3359C12.4091 74.3359 9.52344 77.2216 9.52344 80.7812C9.52344 84.3409 12.4091 87.2266 15.9688 87.2266Z" fill="#FFC107"/>
<path id="Vector_10" d="M34.8759 12.8906C16.7491 12.8906 2.05469 25.1891 2.05469 40.3605C2.08608 45.5844 3.81058 50.6572 6.96945 54.8178C6.96 54.8969 6.96 54.9759 6.94281 55.0533C6.17227 58.9328 6.19039 62.9277 6.99609 66.8001C7.1276 67.454 7.44074 68.0576 7.8996 68.5416C8.35847 69.0257 8.94447 69.3706 9.59041 69.5369C10.2364 69.7031 10.9161 69.6839 11.5516 69.4815C12.1871 69.2791 12.7528 68.9017 13.1836 68.3925C14.6889 66.709 16.4404 65.2632 18.3785 64.1042C23.5238 66.5817 29.1653 67.8559 34.8759 67.8305C53.0027 67.8305 67.6972 55.5319 67.6972 40.3605C67.6972 25.1891 53.0027 12.8906 34.8759 12.8906Z" fill="#BBDEFB"/>
<g id="Group">
<path id="Vector_11" d="M49.0547 33.5156H20.6953C20.3534 33.5156 20.0256 33.3798 19.7838 33.1381C19.5421 32.8963 19.4062 32.5684 19.4062 32.2266C19.4062 31.8847 19.5421 31.5568 19.7838 31.3151C20.0256 31.0733 20.3534 30.9375 20.6953 30.9375H49.0547C49.3966 30.9375 49.7244 31.0733 49.9662 31.3151C50.2079 31.5568 50.3438 31.8847 50.3438 32.2266C50.3438 32.5684 50.2079 32.8963 49.9662 33.1381C49.7244 33.3798 49.3966 33.5156 49.0547 33.5156Z" fill="white"/>
<path id="Vector_12" d="M49.0547 42.1094H20.6953C20.3534 42.1094 20.0256 41.9736 19.7838 41.7318C19.5421 41.4901 19.4062 41.1622 19.4062 40.8203C19.4062 40.4784 19.5421 40.1506 19.7838 39.9088C20.0256 39.6671 20.3534 39.5312 20.6953 39.5312H49.0547C49.3966 39.5312 49.7244 39.6671 49.9662 39.9088C50.2079 40.1506 50.3438 40.4784 50.3438 40.8203C50.3438 41.1622 50.2079 41.4901 49.9662 41.7318C49.7244 41.9736 49.3966 42.1094 49.0547 42.1094Z" fill="white"/>
<path id="Vector_13" d="M49.0547 50.7031H20.6953C20.3534 50.7031 20.0256 50.5673 19.7838 50.3256C19.5421 50.0838 19.4062 49.7559 19.4062 49.4141C19.4062 49.0722 19.5421 48.7443 19.7838 48.5026C20.0256 48.2608 20.3534 48.125 20.6953 48.125H49.0547C49.3966 48.125 49.7244 48.2608 49.9662 48.5026C50.2079 48.7443 50.3438 49.0722 50.3438 49.4141C50.3438 49.7559 50.2079 50.0838 49.9662 50.3256C49.7244 50.5673 49.3966 50.7031 49.0547 50.7031Z" fill="white"/>
</g>
</g>
</g>
</g>
<defs>
<clipPath id="clip0_413_36363">
<rect width="110" height="110" fill="white" transform="translate(0.5)"/>
</clipPath>
</defs>
</svg>
