<svg width="1920" height="1497" viewBox="0 0 1920 1497" fill="none" xmlns="http://www.w3.org/2000/svg">
<path fill-rule="evenodd" clip-rule="evenodd" d="M1876.88 71.6612C1765.93 46.2269 1598.31 7.79863 1353.23 7.79864C1204.58 7.79865 1070.07 18.9785 947.78 29.1418C817.104 40.0024 700.394 49.7023 595.334 43.359C530.42 39.4396 449.682 31.5115 368.046 23.4953C197.816 6.77956 23.6843 -10.3193 -19.0002 7.74759L-19.0001 386.273H-18V1496.02H1938V262.021H1929.26L1921 81.6129C1907.41 78.6605 1892.72 75.2934 1876.88 71.6612Z" fill="#E8F1FD"/>
<path fill-rule="evenodd" clip-rule="evenodd" d="M-18.9994 72.6142C89.7726 48.9874 282.645 7.79881 562.724 7.79883C711.369 7.79884 845.886 18.9787 968.172 29.142C1098.85 40.0026 1215.56 49.7025 1320.62 43.3591C1328.19 42.9018 1335.9 42.4311 1343.73 41.9532C1542.81 29.7957 1818.53 12.9589 1934.95 91.6132V386.274H1934V1496.02H-18.0002V386.273H-19L-18.9994 72.6142Z" fill="#F5F5F5"/>
</svg>
