<svg width="17" height="16" viewBox="0 0 17 16" fill="none" xmlns="http://www.w3.org/2000/svg">
<g id="caret-right 2">
<path id="Vector" d="M10.5 4.08006L10.5 11.5267C10.5008 11.6591 10.4621 11.7888 10.3889 11.8991C10.3157 12.0095 10.2113 12.0955 10.089 12.1463C9.96668 12.1971 9.83203 12.2103 9.7022 12.1842C9.57237 12.1582 9.45324 12.0941 9.35999 12.0001L5.63999 8.27339C5.51582 8.14848 5.44613 7.97951 5.44613 7.80339C5.44613 7.62726 5.51582 7.4583 5.63999 7.33339L9.35999 3.60672C9.45324 3.5127 9.57237 3.44858 9.7022 3.42253C9.83203 3.39649 9.96668 3.4097 10.089 3.46047C10.2113 3.51125 10.3157 3.5973 10.3889 3.70765C10.4621 3.81799 10.5008 3.94764 10.5 4.08006Z" fill="#1470F5"/>
</g>
</svg>
