<svg width="16" height="16" viewBox="0 0 16 16" fill="none" xmlns="http://www.w3.org/2000/svg">
<g id="schedule 1" clip-path="url(#clip0_3766_16651)">
<g id="Group">
<g id="Group_2">
<path id="Vector" d="M7.6948 13.3335H1.59983C1.01073 13.3335 0.533203 12.8559 0.533203 12.2669V11.2002H8.71936L7.6948 13.3335Z" fill="#D3DCFB"/>
<path id="Vector_2" d="M14.4009 4.79999V9.28118V12.2666H1.59983C1.01073 12.2666 0.533203 11.7891 0.533203 11.2V4.79999L8.00039 2.1333L14.4009 4.79999Z" fill="#EBF5FC"/>
<g id="Group_3">
<path id="Vector_3" d="M2.41627 6.93336H1.84961C1.71155 6.93336 1.59961 6.82142 1.59961 6.68336V6.1167C1.59961 5.97864 1.71155 5.8667 1.84961 5.8667H2.41627C2.55433 5.8667 2.66627 5.97864 2.66627 6.1167V6.68336C2.66627 6.82142 2.55433 6.93336 2.41627 6.93336Z" fill="#3C58A0"/>
<path id="Vector_4" d="M4.54908 6.93336H3.98242C3.84436 6.93336 3.73242 6.82142 3.73242 6.68336V6.1167C3.73242 5.97864 3.84436 5.8667 3.98242 5.8667H4.54908C4.68714 5.8667 4.79908 5.97864 4.79908 6.1167V6.68336C4.79908 6.82142 4.68714 6.93336 4.54908 6.93336Z" fill="#3C58A0"/>
<path id="Vector_5" d="M6.68384 6.93336H6.11719C5.97912 6.93336 5.86719 6.82142 5.86719 6.68336V6.1167C5.86719 5.97864 5.97912 5.8667 6.11719 5.8667H6.68384C6.82191 5.8667 6.93384 5.97864 6.93384 6.1167V6.68336C6.93384 6.82142 6.82194 6.93336 6.68384 6.93336Z" fill="#3C58A0"/>
<path id="Vector_6" d="M8.81666 6.93336H8.25C8.11194 6.93336 8 6.82142 8 6.68336V6.1167C8 5.97864 8.11194 5.8667 8.25 5.8667H8.81666C8.95472 5.8667 9.06666 5.97864 9.06666 6.1167V6.68336C9.06666 6.82142 8.95472 6.93336 8.81666 6.93336Z" fill="#3C58A0"/>
<path id="Vector_7" d="M10.9495 6.93336H10.3828C10.2447 6.93336 10.1328 6.82142 10.1328 6.68336V6.1167C10.1328 5.97864 10.2447 5.8667 10.3828 5.8667H10.9495C11.0875 5.8667 11.1995 5.97864 11.1995 6.1167V6.68336C11.1995 6.82142 11.0876 6.93336 10.9495 6.93336Z" fill="#3C58A0"/>
<path id="Vector_8" d="M13.0823 6.93336H12.5156C12.3776 6.93336 12.2656 6.82142 12.2656 6.68336V6.1167C12.2656 5.97864 12.3776 5.8667 12.5156 5.8667H13.0823C13.2203 5.8667 13.3323 5.97864 13.3323 6.1167V6.68336C13.3323 6.82142 13.2203 6.93336 13.0823 6.93336Z" fill="#3C58A0"/>
<path id="Vector_9" d="M2.41627 9.06666H1.84961C1.71155 9.06666 1.59961 8.95472 1.59961 8.81666V8.25C1.59961 8.11194 1.71155 8 1.84961 8H2.41627C2.55433 8 2.66627 8.11194 2.66627 8.25V8.81666C2.66627 8.95475 2.55433 9.06666 2.41627 9.06666Z" fill="#3C58A0"/>
<path id="Vector_10" d="M4.54908 9.06666H3.98242C3.84436 9.06666 3.73242 8.95472 3.73242 8.81666V8.25C3.73242 8.11194 3.84436 8 3.98242 8H4.54908C4.68714 8 4.79908 8.11194 4.79908 8.25V8.81666C4.79908 8.95475 4.68714 9.06666 4.54908 9.06666Z" fill="#3C58A0"/>
<path id="Vector_11" d="M6.68384 9.06666H6.11719C5.97912 9.06666 5.86719 8.95472 5.86719 8.81666V8.25C5.86719 8.11194 5.97912 8 6.11719 8H6.68384C6.82191 8 6.93384 8.11194 6.93384 8.25V8.81666C6.93384 8.95475 6.82194 9.06666 6.68384 9.06666Z" fill="#3C58A0"/>
<path id="Vector_12" d="M9.06666 9.06666V8.26666C9.06666 8.11937 8.94728 8 8.8 8H8.26666C8.11938 8 8 8.11937 8 8.26666V8.8C8 8.94728 8.11941 9.06666 8.26666 9.06666H9.06666Z" fill="#3C58A0"/>
<path id="Vector_13" d="M2.41627 11.2H1.84961C1.71155 11.2 1.59961 11.088 1.59961 10.95V10.3833C1.59961 10.2452 1.71155 10.1333 1.84961 10.1333H2.41627C2.55433 10.1333 2.66627 10.2452 2.66627 10.3833V10.95C2.66627 11.088 2.55433 11.2 2.41627 11.2Z" fill="#3C58A0"/>
<path id="Vector_14" d="M4.54908 11.2H3.98242C3.84436 11.2 3.73242 11.088 3.73242 10.95V10.3833C3.73242 10.2452 3.84436 10.1333 3.98242 10.1333H4.54908C4.68714 10.1333 4.79908 10.2452 4.79908 10.3833V10.95C4.79908 11.088 4.68714 11.2 4.54908 11.2Z" fill="#3C58A0"/>
<path id="Vector_15" d="M6.68384 11.2H6.11719C5.97912 11.2 5.86719 11.088 5.86719 10.95V10.3833C5.86719 10.2452 5.97912 10.1333 6.11719 10.1333H6.68384C6.82191 10.1333 6.93384 10.2452 6.93384 10.3833V10.95C6.93384 11.088 6.82194 11.2 6.68384 11.2Z" fill="#3C58A0"/>
</g>
<path id="Vector_16" d="M13.0757 5.8667H12.5241C12.4908 5.8667 12.459 5.87326 12.4297 5.88479C12.5252 5.92248 12.5928 6.01536 12.5928 6.12423V6.67579C12.5928 6.78467 12.5251 6.87754 12.4297 6.91523C12.459 6.92679 12.4908 6.93336 12.5241 6.93336H13.0757C13.2179 6.93336 13.3333 6.81804 13.3333 6.67582V6.12426C13.3332 5.98201 13.2179 5.8667 13.0757 5.8667Z" fill="#2A428C"/>
<path id="Vector_17" d="M10.9429 5.8667H10.3913C10.3579 5.8667 10.3262 5.87326 10.2969 5.88479C10.3923 5.92248 10.46 6.01536 10.46 6.12423V6.67579C10.46 6.78467 10.3923 6.87754 10.2969 6.91523C10.3262 6.92679 10.3579 6.93336 10.3913 6.93336H10.9429C11.0851 6.93336 11.2004 6.81804 11.2004 6.67582V6.12426C11.2004 5.98201 11.0851 5.8667 10.9429 5.8667Z" fill="#2A428C"/>
<path id="Vector_18" d="M8.81006 5.8667H8.2585C8.22513 5.8667 8.19334 5.87326 8.16406 5.88479C8.25953 5.92248 8.32719 6.01536 8.32719 6.12423V6.67579C8.32719 6.78467 8.25953 6.87754 8.16406 6.91523C8.19334 6.92679 8.22513 6.93336 8.2585 6.93336H8.81006C8.95231 6.93336 9.06763 6.81804 9.06763 6.67582V6.12426C9.06759 5.98201 8.95228 5.8667 8.81006 5.8667Z" fill="#2A428C"/>
<path id="Vector_19" d="M6.6753 5.8667H6.12373C6.09036 5.8667 6.05858 5.87326 6.0293 5.88479C6.12477 5.92248 6.19242 6.01536 6.19242 6.12423V6.67579C6.19242 6.78467 6.12477 6.87754 6.0293 6.91523C6.05858 6.92679 6.09036 6.93336 6.12373 6.93336H6.6753C6.81755 6.93336 6.93286 6.81804 6.93286 6.67582V6.12426C6.93283 5.98201 6.81755 5.8667 6.6753 5.8667Z" fill="#2A428C"/>
<path id="Vector_20" d="M4.54248 5.8667H3.99092C3.95755 5.8667 3.92577 5.87326 3.89648 5.88479C3.99195 5.92248 4.05958 6.01536 4.05958 6.12423V6.67579C4.05958 6.78467 3.99192 6.87754 3.89648 6.91523C3.92577 6.92679 3.95755 6.93336 3.99092 6.93336H4.54248C4.68473 6.93336 4.80005 6.81804 4.80005 6.67582V6.12426C4.80005 5.98201 4.68473 5.8667 4.54248 5.8667Z" fill="#2A428C"/>
<path id="Vector_21" d="M2.40967 5.8667H1.85811C1.82473 5.8667 1.79295 5.87326 1.76367 5.88479C1.85914 5.92248 1.9268 6.01536 1.9268 6.12423V6.67579C1.9268 6.78467 1.85914 6.87754 1.76367 6.91523C1.79295 6.92679 1.82473 6.93336 1.85811 6.93336H2.40967C2.55192 6.93336 2.66723 6.81804 2.66723 6.67582V6.12426C2.6672 5.98201 2.55189 5.8667 2.40967 5.8667Z" fill="#2A428C"/>
<path id="Vector_22" d="M2.40967 8H1.85811C1.82473 8 1.79295 8.00656 1.76367 8.01809C1.85914 8.05578 1.9268 8.14866 1.9268 8.25753V8.80912C1.9268 8.918 1.85914 9.01087 1.76367 9.04856C1.79295 9.06012 1.82473 9.06669 1.85811 9.06669H2.40967C2.55192 9.06669 2.66723 8.95138 2.66723 8.80916V8.25756C2.6672 8.11531 2.55189 8 2.40967 8Z" fill="#2A428C"/>
<path id="Vector_23" d="M2.40967 10.1333H1.85811C1.82473 10.1333 1.79295 10.1399 1.76367 10.1514C1.85914 10.1891 1.9268 10.282 1.9268 10.3908V10.9424C1.9268 11.0513 1.85914 11.1442 1.76367 11.1819C1.79295 11.1934 1.82473 11.2 1.85811 11.2H2.40967C2.55192 11.2 2.66723 11.0847 2.66723 10.9425V10.3909C2.6672 10.2486 2.55189 10.1333 2.40967 10.1333Z" fill="#2A428C"/>
<path id="Vector_24" d="M4.54248 8H3.99092C3.95755 8 3.92577 8.00656 3.89648 8.01809C3.99195 8.05578 4.05958 8.14866 4.05958 8.25753V8.80912C4.05958 8.918 3.99192 9.01087 3.89648 9.04856C3.92577 9.06012 3.95755 9.06669 3.99092 9.06669H4.54248C4.68473 9.06669 4.80005 8.95138 4.80005 8.80916V8.25756C4.80005 8.11531 4.68473 8 4.54248 8Z" fill="#2A428C"/>
<path id="Vector_25" d="M4.54248 10.1333H3.99092C3.95755 10.1333 3.92577 10.1399 3.89648 10.1514C3.99195 10.1891 4.05958 10.282 4.05958 10.3908V10.9424C4.05958 11.0513 3.99192 11.1442 3.89648 11.1819C3.92577 11.1934 3.95755 11.2 3.99092 11.2H4.54248C4.68473 11.2 4.80005 11.0847 4.80005 10.9425V10.3909C4.80005 10.2486 4.68473 10.1333 4.54248 10.1333Z" fill="#2A428C"/>
<path id="Vector_26" d="M6.6753 8H6.12373C6.09036 8 6.05858 8.00656 6.0293 8.01809C6.12477 8.05578 6.19242 8.14866 6.19242 8.25753V8.80912C6.19242 8.918 6.12477 9.01087 6.0293 9.04856C6.05858 9.06012 6.09036 9.06669 6.12373 9.06669H6.6753C6.81755 9.06669 6.93286 8.95138 6.93286 8.80916V8.25756C6.93283 8.11531 6.81755 8 6.6753 8Z" fill="#2A428C"/>
<path id="Vector_27" d="M9.06763 9.06666V8.25753C9.06763 8.11528 8.95231 8 8.81006 8H8.2585C8.22513 8 8.19334 8.00656 8.16406 8.01809C8.25953 8.05578 8.32719 8.14866 8.32719 8.25753V8.80912C8.32719 8.918 8.25953 9.01087 8.16406 9.04856C8.19334 9.06012 8.22513 9.06669 8.2585 9.06669H9.06763V9.06666Z" fill="#2A428C"/>
<path id="Vector_28" d="M6.6753 10.1333H6.12373C6.09036 10.1333 6.05858 10.1399 6.0293 10.1514C6.12477 10.1891 6.19242 10.282 6.19242 10.3908V10.9424C6.19242 11.0513 6.12477 11.1442 6.0293 11.1819C6.05858 11.1934 6.09036 11.2 6.12373 11.2H6.6753C6.81755 11.2 6.93286 11.0847 6.93286 10.9425V10.3909C6.93283 10.2486 6.81755 10.1333 6.6753 10.1333Z" fill="#2A428C"/>
<path id="Vector_29" d="M13.6602 4.49121V9.28112V12.2666H14.4011V9.28112V4.79993L13.6602 4.49121Z" fill="#D3DCFB"/>
<path id="Vector_30" d="M14.4009 4.80021V2.13352C14.4009 1.54443 13.9233 1.06689 13.3343 1.06689H1.59983C1.01073 1.06689 0.533203 1.54443 0.533203 2.13352V4.80021H14.4009Z" fill="#2F84FF"/>
<g id="Group_4">
<g id="Group_5">
<g id="Group_6">
<path id="Vector_31" d="M3.8947 2.37496H3.20042C3.06705 2.37496 2.95898 2.26687 2.95898 2.13353C2.95898 2.00018 3.06708 1.89209 3.20042 1.89209H3.8947C4.02808 1.89209 4.13614 2.00018 4.13614 2.13353C4.13614 2.26687 4.02805 2.37496 3.8947 2.37496Z" fill="#0054CD"/>
</g>
<g id="Group_7">
<path id="Vector_32" d="M5.59978 2.37496H4.9055C4.77212 2.37496 4.66406 2.26687 4.66406 2.13353C4.66406 2.00018 4.77216 1.89209 4.9055 1.89209H5.59978C5.73316 1.89209 5.84122 2.00018 5.84122 2.13353C5.84122 2.26687 5.73316 2.37496 5.59978 2.37496Z" fill="#0054CD"/>
</g>
<g id="Group_8">
<path id="Vector_33" d="M10.0275 2.37496H9.33323C9.19986 2.37496 9.0918 2.26687 9.0918 2.13353C9.0918 2.00018 9.19989 1.89209 9.33323 1.89209H10.0275C10.1609 1.89209 10.269 2.00018 10.269 2.13353C10.269 2.26687 10.1609 2.37496 10.0275 2.37496Z" fill="#0054CD"/>
</g>
<g id="Group_9">
<path id="Vector_34" d="M11.7346 2.37496H11.0403C10.9069 2.37496 10.7988 2.26687 10.7988 2.13353C10.7988 2.00018 10.9069 1.89209 11.0403 1.89209H11.7346C11.868 1.89209 11.976 2.00018 11.976 2.13353C11.976 2.26687 11.8679 2.37496 11.7346 2.37496Z" fill="#0054CD"/>
</g>
</g>
</g>
<path id="Vector_35" d="M5.06573 2C5.06573 2.36819 4.76727 2.66666 4.39908 2.66666C4.03089 2.66666 3.73242 2.36819 3.73242 2V0.666656C3.73239 0.298469 4.03086 0 4.39905 0C4.76723 0 5.0657 0.298469 5.0657 0.666656V2H5.06573Z" fill="#EBF5FC"/>
<path id="Vector_36" d="M11.2005 2C11.2005 2.36819 10.9021 2.66666 10.5339 2.66666C10.1657 2.66666 9.86719 2.36819 9.86719 2V0.666656C9.86719 0.298469 10.1657 0 10.5338 0C10.902 0 11.2005 0.298469 11.2005 0.666656V2H11.2005Z" fill="#EBF5FC"/>
<path id="Vector_37" d="M10.5339 0C10.3971 0 10.2699 0.041375 10.1641 0.112125C10.343 0.231688 10.4609 0.435344 10.4609 0.666687V2C10.4609 2.23131 10.343 2.435 10.1641 2.55456C10.2699 2.62528 10.3971 2.66669 10.5339 2.66669C10.9021 2.66669 11.2006 2.36822 11.2006 2.00003V0.666656C11.2006 0.298469 10.9022 0 10.5339 0Z" fill="#D3DCFB"/>
<path id="Vector_38" d="M4.39917 0C4.2623 0 4.13517 0.041375 4.0293 0.112125C4.2082 0.231688 4.32611 0.435344 4.32611 0.666687V2C4.32611 2.23131 4.2082 2.435 4.0293 2.55456C4.13514 2.62528 4.2623 2.66669 4.39917 2.66669C4.76736 2.66669 5.06583 2.36822 5.06583 2.00003V0.666656C5.06586 0.298469 4.76739 0 4.39917 0Z" fill="#D3DCFB"/>
<path id="Vector_39" d="M13.3345 1.06689H12.5938C13.1828 1.06689 13.6604 1.54443 13.6604 2.13352V4.80024H14.4011V2.13355C14.4011 1.54446 13.9235 1.06689 13.3345 1.06689Z" fill="#0054CD"/>
<path id="Vector_40" d="M0.533203 3.4917H14.4009V3.97461H0.533203V3.4917Z" fill="#0054CD"/>
</g>
<path id="Vector_41" d="M11.4668 16C13.6759 16 15.4668 14.2091 15.4668 12C15.4668 9.79086 13.6759 8 11.4668 8C9.25766 8 7.4668 9.79086 7.4668 12C7.4668 14.2091 9.25766 16 11.4668 16Z" fill="#4FABF7"/>
<path id="Vector_42" d="M11.4665 14.9336C13.0866 14.9336 14.3999 13.6203 14.3999 12.0002C14.3999 10.3802 13.0866 9.06689 11.4665 9.06689C9.84651 9.06689 8.5332 10.3802 8.5332 12.0002C8.5332 13.6203 9.84651 14.9336 11.4665 14.9336Z" fill="#EBF5FC"/>
<g id="Group_10">
<g id="Group_11">
<path id="Vector_43" d="M11.468 11.7083C11.3346 11.7083 11.2266 11.6002 11.2266 11.4669V10.1335C11.2266 10.0002 11.3347 9.89209 11.468 9.89209C11.6014 9.89209 11.7094 10.0002 11.7094 10.1335V11.4669C11.7094 11.6002 11.6013 11.7083 11.468 11.7083Z" fill="#3C58A0"/>
</g>
</g>
<g id="Group_12">
<g id="Group_13">
<path id="Vector_44" d="M12.8012 12.2417H12.0012C11.8678 12.2417 11.7598 12.1336 11.7598 12.0002C11.7598 11.8669 11.8679 11.7588 12.0012 11.7588H12.8012C12.9346 11.7588 13.0427 11.8669 13.0427 12.0002C13.0427 12.1336 12.9346 12.2417 12.8012 12.2417Z" fill="#3C58A0"/>
</g>
</g>
<path id="Vector_45" d="M11.4679 8C11.3431 8 11.2196 8.00603 11.0977 8.01722C13.1332 8.20406 14.7274 9.91572 14.7274 12C14.7274 14.0843 13.1332 15.7959 11.0977 15.9828C11.2196 15.994 11.343 16 11.4679 16C13.677 16 15.4679 14.2091 15.4679 12C15.4679 9.79087 13.677 8 11.4679 8Z" fill="#1886EA"/>
<path id="Vector_46" d="M11.4676 9.06689C11.3423 9.06689 11.2188 9.0748 11.0977 9.09005C12.543 9.27196 13.661 10.5055 13.661 12.0002C13.661 13.495 12.543 14.7285 11.0977 14.9104C11.2188 14.9257 11.3423 14.9336 11.4676 14.9336C13.0877 14.9336 14.401 13.6203 14.401 12.0002C14.401 10.3802 13.0877 9.06689 11.4676 9.06689Z" fill="#D3DCFB"/>
<path id="Vector_47" d="M11.4669 12.5335C11.7615 12.5335 12.0003 12.2947 12.0003 12.0001C12.0003 11.7056 11.7615 11.4668 11.4669 11.4668C11.1724 11.4668 10.9336 11.7056 10.9336 12.0001C10.9336 12.2947 11.1724 12.5335 11.4669 12.5335Z" fill="#FFDD40"/>
</g>
</g>
<defs>
<clipPath id="clip0_3766_16651">
<rect width="16" height="16" fill="white"/>
</clipPath>
</defs>
</svg>
