<svg width="1920" height="786" viewBox="0 0 1920 786" fill="none" xmlns="http://www.w3.org/2000/svg">
<path fill-rule="evenodd" clip-rule="evenodd" d="M1938 72.5922C1829.23 48.9654 1636.36 7.77684 1356.28 7.77686C1207.63 7.77686 1073.11 18.9567 950.828 29.12C820.152 39.9806 703.442 49.6805 598.382 43.3372C590.807 42.8798 583.1 42.4092 575.274 41.9313C376.185 29.7737 100.471 12.9369 -15.9521 91.5912V386.252H-14.9371V786H1936.98V386.251H1938L1938 72.5922Z" fill="#007983"/>
<path fill-rule="evenodd" clip-rule="evenodd" d="M42.1233 71.6397C153.068 46.2054 320.692 7.77715 565.772 7.77716C714.417 7.77717 848.934 18.957 971.221 29.1204C1101.9 39.9809 1218.61 49.6808 1323.67 43.3375C1388.58 39.4181 1469.32 31.49 1550.95 23.4738C1721.18 6.75807 1895.32 -10.3407 1938 7.72611V386.252H1937V786H-19V262H-10.2618L-2.00006 81.5915C11.5922 78.639 26.2798 75.2719 42.1233 71.6397Z" fill="#007983" fill-opacity="0.2"/>
</svg>
