<svg width="1920" height="889" viewBox="0 0 1920 889" fill="none" xmlns="http://www.w3.org/2000/svg">
<path fill-rule="evenodd" clip-rule="evenodd" d="M1938 72.5927C1829.23 48.9659 1636.36 7.77733 1356.28 7.77734C1207.63 7.77735 1073.11 18.9572 950.828 29.1205C820.152 39.9811 703.442 49.681 598.382 43.3377C590.807 42.8803 583.1 42.4096 575.274 41.9318C376.185 29.7742 100.471 12.9374 -15.9521 91.5917V386.252H-14.9371V888.092H1936.98V386.251H1938L1938 72.5927Z" fill="#FFFAE6"/>
<path fill-rule="evenodd" clip-rule="evenodd" d="M42.1233 71.6397C153.068 46.2054 320.692 7.77715 565.772 7.77716C714.417 7.77717 848.934 18.957 971.221 29.1204C1101.9 39.9809 1218.61 49.6808 1323.67 43.3375C1388.58 39.4181 1469.32 31.49 1550.95 23.4738C1721.18 6.75807 1895.32 -10.3407 1938 7.72611V386.252H1936.99V888.091H-19.002V262.091H-10.266L-2.00006 81.5915C11.5922 78.639 26.2798 75.2719 42.1233 71.6397Z" fill="#FFC800" fill-opacity="0.2"/>
</svg>
