<svg width="60" height="60" viewBox="0 0 60 60" fill="none" xmlns="http://www.w3.org/2000/svg">
<rect width="60" height="60" rx="30" fill="url(#paint0_linear_762_3477)"/>
<g clip-path="url(#clip0_762_3477)">
<path d="M37.578 36.6534C36.0852 36.6534 34.8719 35.3672 34.8719 33.7849C34.8719 32.2026 36.0863 30.9164 37.578 30.9164C39.0698 30.9164 40.2842 32.2026 40.2842 33.7849C40.2842 35.3672 39.0698 36.6534 37.578 36.6534ZM41.9081 43.5379H33.2469C32.9121 43.5379 32.5969 43.3738 32.391 43.0939C32.1863 42.8127 32.1137 42.4479 32.1971 42.1048C32.8038 39.6115 35.0658 37.802 37.577 37.802C40.0881 37.802 42.349 39.6115 42.9568 42.1048C43.0402 42.4479 42.9687 42.8139 42.7629 43.0939C42.5581 43.3738 42.2429 43.5379 41.907 43.5379H41.9081ZM30.1009 41.5311C30.5981 39.4852 31.8949 37.7871 33.574 36.7165C33.028 35.8824 32.7041 34.8738 32.7041 33.7849C32.7041 32.2646 33.339 30.9095 34.3291 29.964V21.7336C34.3291 18.5668 31.9057 16 28.9157 16H22.42C19.4322 16 17.0088 18.5668 17.0088 21.7336V37.8008C17.0088 40.9689 19.4344 43.5379 22.4255 43.5379H28.9146C29.3436 43.5379 29.7564 43.4714 30.1572 43.3715C29.9893 42.776 29.9525 42.1415 30.1009 41.5311ZM23.5034 37.8008H22.4211C21.8231 37.8008 21.3389 37.2868 21.3389 36.6534C21.3389 36.0201 21.8231 35.506 22.4211 35.506H23.5034C24.1014 35.506 24.5856 36.0201 24.5856 36.6534C24.5856 37.2868 24.1014 37.8008 23.5034 37.8008ZM23.5034 33.2112H22.4211C21.8231 33.2112 21.3389 32.6972 21.3389 32.0638C21.3389 31.4304 21.8231 30.9164 22.4211 30.9164H23.5034C24.1014 30.9164 24.5856 31.4304 24.5856 32.0638C24.5856 32.6972 24.1014 33.2112 23.5034 33.2112ZM25.669 27.4741C25.071 27.4741 24.5867 26.9601 24.5867 26.3267V25.1793H23.5045C22.9065 25.1793 22.4222 24.6653 22.4222 24.0319C22.4222 23.3985 22.9065 22.8845 23.5045 22.8845H24.5867V21.7371C24.5867 21.1037 25.071 20.5897 25.669 20.5897C26.267 20.5897 26.7512 21.1037 26.7512 21.7371V22.8845H27.8335C28.4315 22.8845 28.9157 23.3985 28.9157 24.0319C28.9157 24.6653 28.4315 25.1793 27.8335 25.1793H26.7512V26.3267C26.7512 26.9601 26.267 27.4741 25.669 27.4741ZM28.9168 37.8008H27.8345C27.2365 37.8008 26.7523 37.2868 26.7523 36.6534C26.7523 36.0201 27.2365 35.506 27.8345 35.506H28.9168C29.5148 35.506 29.999 36.0201 29.999 36.6534C29.999 37.2868 29.5148 37.8008 28.9168 37.8008ZM28.9168 33.2112H27.8345C27.2365 33.2112 26.7523 32.6972 26.7523 32.0638C26.7523 31.4304 27.2365 30.9164 27.8345 30.9164H28.9168C29.5148 30.9164 29.999 31.4304 29.999 32.0638C29.999 32.6972 29.5148 33.2112 28.9168 33.2112Z" fill="white"/>
</g>
<defs>
<linearGradient id="paint0_linear_762_3477" x1="30" y1="0" x2="30" y2="60" gradientUnits="userSpaceOnUse">
<stop stop-color="#FF0000"/>
<stop offset="0.488541" stop-color="#FF0000" stop-opacity="0.6"/>
<stop offset="1" stop-color="#FF0000"/>
</linearGradient>
<clipPath id="clip0_762_3477">
<rect width="26" height="27.5379" fill="white" transform="translate(17 16)"/>
</clipPath>
</defs>
</svg>
