<svg width="60" height="60" viewBox="0 0 60 60" fill="none" xmlns="http://www.w3.org/2000/svg">
<rect width="60" height="60" rx="30" fill="url(#paint0_linear_762_3463)"/>
<g clip-path="url(#clip0_762_3463)">
<path d="M33.25 17H26.75C23.7589 17 21.3333 19.4256 21.3333 22.4167V39.75C21.3333 41.5451 22.7883 43 24.5833 43H35.4167C37.2118 43 38.6667 41.5451 38.6667 39.75V22.4167C38.6667 19.4256 36.2411 17 33.25 17ZM27.8333 37.5833H26.75C26.1509 37.5833 25.6667 37.098 25.6667 36.5C25.6667 35.902 26.1509 35.4167 26.75 35.4167H27.8333C28.4324 35.4167 28.9167 35.902 28.9167 36.5C28.9167 37.098 28.4324 37.5833 27.8333 37.5833ZM27.8333 33.25H26.75C26.1509 33.25 25.6667 32.7647 25.6667 32.1667C25.6667 31.5687 26.1509 31.0833 26.75 31.0833H27.8333C28.4324 31.0833 28.9167 31.5687 28.9167 32.1667C28.9167 32.7647 28.4324 33.25 27.8333 33.25ZM30 27.8333C29.4009 27.8333 28.9167 27.348 28.9167 26.75V25.6667H27.8333C27.2343 25.6667 26.75 25.1813 26.75 24.5833C26.75 23.9853 27.2343 23.5 27.8333 23.5H28.9167V22.4167C28.9167 21.8187 29.4009 21.3333 30 21.3333C30.5991 21.3333 31.0833 21.8187 31.0833 22.4167V23.5H32.1667C32.7658 23.5 33.25 23.9853 33.25 24.5833C33.25 25.1813 32.7658 25.6667 32.1667 25.6667H31.0833V26.75C31.0833 27.348 30.5991 27.8333 30 27.8333ZM33.25 37.5833H32.1667C31.5676 37.5833 31.0833 37.098 31.0833 36.5C31.0833 35.902 31.5676 35.4167 32.1667 35.4167H33.25C33.8491 35.4167 34.3333 35.902 34.3333 36.5C34.3333 37.098 33.8491 37.5833 33.25 37.5833ZM33.25 33.25H32.1667C31.5676 33.25 31.0833 32.7647 31.0833 32.1667C31.0833 31.5687 31.5676 31.0833 32.1667 31.0833H33.25C33.8491 31.0833 34.3333 31.5687 34.3333 32.1667C34.3333 32.7647 33.8491 33.25 33.25 33.25ZM19.1667 41.8885C17.8591 40.8983 17 39.3448 17 37.5833V28.9167C17 27.1541 17.8591 25.6006 19.1667 24.6115V41.8885ZM43 28.9167V37.5833C43 39.3459 42.1409 40.8994 40.8333 41.8885V24.6115C42.1409 25.6017 43 27.1552 43 28.9167Z" fill="white"/>
</g>
<defs>
<linearGradient id="paint0_linear_762_3463" x1="30" y1="8.9407e-07" x2="30" y2="57" gradientUnits="userSpaceOnUse">
<stop stop-color="#007983"/>
<stop offset="0.489583" stop-color="#007983" stop-opacity="0.8"/>
<stop offset="1" stop-color="#007983"/>
</linearGradient>
<clipPath id="clip0_762_3463">
<rect width="26" height="26" fill="white" transform="translate(17 17)"/>
</clipPath>
</defs>
</svg>
