<svg width="60" height="60" viewBox="0 0 60 60" fill="none" xmlns="http://www.w3.org/2000/svg">
<rect width="60" height="60" rx="30" fill="url(#paint0_linear_762_3491)"/>
<path d="M37.1424 31.996C37.3821 32.5493 37.5216 33.2263 37.5524 34.0092C38.3613 34.1946 38.9666 34.9181 38.9666 35.7822C38.9666 36.7857 38.1502 37.6022 37.1466 37.6022C36.1431 37.6022 35.3266 36.7857 35.3266 35.7822C35.3266 34.9279 35.9188 34.2119 36.7135 34.0162C36.6785 33.2387 36.4926 32.0557 35.7315 31.4716C35.3432 31.3711 34.9439 31.2983 34.5342 31.2607C34.504 32.6229 30.0016 35.9846 30.0016 35.9846C30.0016 35.9846 25.4978 32.6235 25.4673 31.2613C25.0123 31.3027 24.5696 31.3859 24.142 31.5057C23.5868 31.9453 23.2995 32.7643 23.2847 33.9549C23.4479 34.0487 23.5798 34.1951 23.6607 34.3724C24.2588 34.6549 24.7872 35.2491 25.1918 36.0949C25.2595 36.2372 25.2685 36.3979 25.2186 36.5446C25.4611 37.1687 25.5997 37.8508 25.5997 38.4237C25.5997 39.2265 25.5997 39.9855 24.7247 40.1804C24.6301 40.2591 24.5114 40.3025 24.3868 40.3025H23.8021C23.509 40.3025 23.2704 40.0634 23.2704 39.7711L23.271 39.7503C23.2822 39.4675 23.5188 39.2393 23.8021 39.2393H24.3868C24.4467 39.2393 24.5052 39.2494 24.5618 39.269C24.597 39.2592 24.6082 39.2511 24.6085 39.2508C24.6735 39.1355 24.6735 38.655 24.6735 38.4243C24.6735 37.9589 24.557 37.3969 24.3529 36.8747C24.247 36.8145 24.1614 36.7235 24.1087 36.6135C23.7542 35.8712 23.2721 35.3919 22.8806 35.3919C22.4802 35.3919 21.974 35.9104 21.6209 36.681C21.5632 36.8067 21.4622 36.9089 21.3378 36.9702C21.1533 37.4697 21.052 37.9841 21.052 38.424C21.052 38.6177 21.052 39.1318 21.1259 39.2528C21.1267 39.2528 21.1432 39.2629 21.1897 39.2743C21.2502 39.2511 21.3152 39.2391 21.3801 39.2391H21.9659C22.2389 39.2391 22.4671 39.4468 22.4945 39.717L22.4973 39.7498C22.4973 40.0637 22.2588 40.3028 21.9659 40.3028H21.3801C21.2639 40.3028 21.1516 40.2639 21.0592 40.1933C20.7246 40.1303 20.4889 39.9827 20.3396 39.7425C20.1588 39.4521 20.1257 39.0708 20.1257 38.424C20.1257 37.8567 20.2568 37.2032 20.4948 36.5791C20.4598 36.4455 20.4715 36.3061 20.5298 36.1803C20.7776 35.6383 21.0928 35.174 21.4412 34.8383C21.6327 34.6538 21.8385 34.5054 22.0538 34.397C22.1344 34.2083 22.2744 34.0535 22.4455 33.9557C22.4545 33.2095 22.5693 32.5653 22.7815 32.0341C20.3517 33.2667 18.6865 35.7875 18.6865 38.6987C18.6865 42.4187 21.4045 42.6007 24.9624 42.6007C25.3508 42.6007 25.7484 42.5985 26.1547 42.5985H33.8454C34.2512 42.5985 34.6488 42.6007 35.0371 42.6007C38.5956 42.6007 41.3147 42.4187 41.3147 38.6987C41.3144 35.7567 39.6137 33.2137 37.1424 31.996Z" fill="white"/>
<path d="M30.0023 32.2382C33.4418 32.2382 36.2298 27.0663 36.2298 23.627C36.2298 20.1884 33.4418 17.4004 30.0023 17.4004C26.5634 17.4004 23.7754 20.1884 23.7754 23.627C23.7754 27.0663 26.5634 32.2382 30.0023 32.2382Z" fill="white"/>
<path d="M37.1466 36.6214C37.6106 36.6214 37.9866 36.2453 37.9866 35.7814C37.9866 35.3175 37.6106 34.9414 37.1466 34.9414C36.6827 34.9414 36.3066 35.3175 36.3066 35.7814C36.3066 36.2453 36.6827 36.6214 37.1466 36.6214Z" fill="white"/>
<defs>
<linearGradient id="paint0_linear_762_3491" x1="30" y1="0" x2="30" y2="60" gradientUnits="userSpaceOnUse">
<stop stop-color="#F7AC00"/>
<stop offset="0.488541" stop-color="#F7AC00" stop-opacity="0.6"/>
<stop offset="1" stop-color="#F7AC00"/>
</linearGradient>
</defs>
</svg>
