<svg width="60" height="60" viewBox="0 0 60 60" fill="none" xmlns="http://www.w3.org/2000/svg">
<rect width="60" height="60" rx="30" fill="url(#paint0_linear_762_3508)"/>
<g clip-path="url(#clip0_762_3508)">
<path d="M40.9791 19.0043C38.3053 16.3319 33.956 16.3319 31.2822 19.0043L25.6289 24.6575L32.0474 31.076C33.3684 29.9759 35.0432 29.2871 36.8925 29.2871C37.9532 29.2871 38.9626 29.5075 39.881 29.9009L40.9791 28.7013C43.6522 26.0281 43.6522 21.6782 40.9791 19.0043Z" fill="white"/>
<path d="M30.9789 32.1617L24.5515 25.7344L19.0185 31.2728C16.3454 33.9459 16.3454 38.2959 19.0185 40.9698C21.6923 43.642 26.0923 43.693 28.7662 41.0205L29.8878 39.8935C29.4944 38.975 29.2741 37.9656 29.2741 36.9049C29.2741 35.1031 29.9292 33.4675 30.9789 32.1617Z" fill="white"/>
<path d="M30.7979 36.9055C30.7979 40.0105 33.1284 42.5445 36.1306 42.9233V30.8877C33.1284 31.2665 30.7979 33.8004 30.7979 36.9055Z" fill="white"/>
<path d="M37.6543 30.8877V42.9233C40.6566 42.5445 42.9871 40.0105 42.9871 36.9055C42.9871 33.8005 40.6566 31.2665 37.6543 30.8877Z" fill="white"/>
</g>
<defs>
<linearGradient id="paint0_linear_762_3508" x1="30" y1="0" x2="30" y2="60" gradientUnits="userSpaceOnUse">
<stop stop-color="#466DFB"/>
<stop offset="0.520833" stop-color="#466DFB" stop-opacity="0.8"/>
<stop offset="1" stop-color="#466DFB"/>
</linearGradient>
<clipPath id="clip0_762_3508">
<rect width="26" height="26" fill="white" transform="translate(17 17)"/>
</clipPath>
</defs>
</svg>
