<svg width="24" height="25" viewBox="0 0 24 25" fill="none" xmlns="http://www.w3.org/2000/svg">
<g id="chat (1) 1">
<g id="Layer 2">
<path id="Vector" d="M10.9938 1.32173C9.21815 1.48806 7.51184 2.09369 6.02869 3.08402C4.54554 4.07434 3.33217 5.41823 2.498 6.99451C1.66383 8.57078 1.23507 10.3299 1.2504 12.1132C1.26572 13.8965 1.72463 15.648 2.58577 17.2097C2.66405 17.361 2.70885 17.5274 2.71713 17.6975C2.72541 17.8676 2.69698 18.0376 2.63377 18.1957L2.01677 19.8417C1.9013 20.1485 1.87438 20.4816 1.93908 20.803C2.00378 21.1243 2.15748 21.421 2.38267 21.6593C2.60786 21.8975 2.89547 22.0676 3.21268 22.1503C3.5299 22.2329 3.86396 22.2248 4.17677 22.1267L6.14577 21.5117C6.44934 21.409 6.78092 21.428 7.07077 21.5647C8.59001 22.3594 10.2793 22.7739 11.9938 22.7727C12.7545 22.7719 13.5131 22.6931 14.2578 22.5377C16.9298 21.953 19.2787 20.372 20.8262 18.1165C22.3737 15.861 23.0036 13.1006 22.5877 10.3971C22.1718 7.69361 20.7413 5.25019 18.5874 3.56418C16.4335 1.87817 13.718 1.07628 10.9938 1.32173Z" fill="#FFB91D"/>
<path id="Vector_2" d="M12 10.7715H8C7.80109 10.7715 7.61032 10.6925 7.46967 10.5518C7.32902 10.4112 7.25 10.2204 7.25 10.0215C7.25 9.82257 7.32902 9.63181 7.46967 9.49115C7.61032 9.3505 7.80109 9.27148 8 9.27148H12C12.1989 9.27148 12.3897 9.3505 12.5303 9.49115C12.671 9.63181 12.75 9.82257 12.75 10.0215C12.75 10.2204 12.671 10.4112 12.5303 10.5518C12.3897 10.6925 12.1989 10.7715 12 10.7715Z" fill="white"/>
<path id="Vector_3" d="M16 14.7715H8C7.80109 14.7715 7.61032 14.6925 7.46967 14.5518C7.32902 14.4112 7.25 14.2204 7.25 14.0215C7.25 13.8226 7.32902 13.6318 7.46967 13.4912C7.61032 13.3505 7.80109 13.2715 8 13.2715H16C16.1989 13.2715 16.3897 13.3505 16.5303 13.4912C16.671 13.6318 16.75 13.8226 16.75 14.0215C16.75 14.2204 16.671 14.4112 16.5303 14.5518C16.3897 14.6925 16.1989 14.7715 16 14.7715Z" fill="white"/>
<path id="Vector_4" d="M11.9919 22.7734C10.8992 22.774 9.81296 22.6053 8.77188 22.2734C8.58225 22.2129 8.42441 22.0796 8.33308 21.9028C8.24175 21.7259 8.22441 21.52 8.28488 21.3304C8.34535 21.1408 8.47867 20.9829 8.65552 20.8916C8.83236 20.8003 9.03825 20.7829 9.22788 20.8434C11.2779 21.4874 13.4883 21.3975 15.4793 20.5891C17.4703 19.7807 19.1176 18.3043 20.1385 16.4135C21.1593 14.5226 21.4899 12.3353 21.0735 10.2272C20.657 8.11905 19.5196 6.22173 17.8564 4.86105C16.1933 3.50038 14.1082 2.76126 11.9594 2.77065C9.81059 2.78004 7.73209 3.53735 6.08089 4.91251C4.42969 6.28767 3.30884 8.19486 2.91085 10.3065C2.51285 12.4182 2.86255 14.6025 3.89988 16.4844C4.08356 16.825 4.1912 17.2014 4.21537 17.5876C4.23954 17.9737 4.17967 18.3606 4.03988 18.7214L3.42288 20.3684C3.40499 20.4119 3.40039 20.4597 3.40964 20.5058C3.4189 20.5519 3.4416 20.5942 3.47488 20.6274C3.50647 20.6622 3.54743 20.6871 3.59285 20.6992C3.63826 20.7112 3.68619 20.7099 3.73088 20.6954L6.54588 19.8154C6.6399 19.7861 6.73879 19.7755 6.83689 19.7844C6.93499 19.7933 7.03039 19.8214 7.11763 19.8671C7.20487 19.9128 7.28225 19.9753 7.34535 20.0509C7.40844 20.1266 7.45603 20.2139 7.48538 20.3079C7.51473 20.4019 7.52527 20.5008 7.51641 20.5989C7.50754 20.697 7.47944 20.7924 7.4337 20.8797C7.38797 20.9669 7.3255 21.0443 7.24987 21.1074C7.17423 21.1705 7.0869 21.2181 6.99288 21.2474L4.17888 22.1264C3.86607 22.2245 3.53201 22.2326 3.21479 22.15C2.89758 22.0673 2.60997 21.8972 2.38478 21.6589C2.15959 21.4207 2.00589 21.124 1.94119 20.8027C1.87649 20.4813 1.90341 20.1482 2.01888 19.8414L2.63588 18.1954C2.69909 18.0372 2.72752 17.8673 2.71924 17.6972C2.71096 17.5271 2.66616 17.3607 2.58788 17.2094C1.49826 15.2295 1.06034 12.9565 1.33634 10.7135C1.61233 8.4705 2.58821 6.37151 4.1253 4.7148C5.66239 3.0581 7.6825 1.92795 9.89859 1.48494C12.1147 1.04193 14.414 1.30861 16.4699 2.24706C18.5258 3.18552 20.2336 4.74803 21.3507 6.71257C22.4678 8.6771 22.9374 10.9437 22.6927 13.1904C22.448 15.437 21.5014 17.5494 19.9876 19.2274C18.4737 20.9054 16.4696 22.0636 14.2599 22.5374C13.5139 22.6931 12.7539 22.7722 11.9919 22.7734Z" fill="#381313"/>
</g>
</g>
</svg>
