<svg width="29" height="30" viewBox="0 0 29 30" fill="none" xmlns="http://www.w3.org/2000/svg">
<g id="chat (3) 1" clip-path="url(#clip0_2874_99517)">
<g id="Group">
<path id="Vector" d="M14.5003 0.978516C6.53512 0.978516 0.078125 7.43542 0.078125 15.4007C0.078125 18.9919 1.39116 22.2763 3.56281 24.8009C2.91056 26.6757 1.70476 28.2914 0.140789 29.452C1.1344 29.7915 2.19875 29.9785 3.30747 29.9785C5.2037 29.9785 6.97367 29.439 8.47319 28.5059C10.3072 29.3508 12.3485 29.8229 14.5003 29.8229C22.4654 29.8229 28.9224 23.3658 28.9224 15.4007C28.9225 7.43542 22.4655 0.978516 14.5003 0.978516Z" fill="#FB7598"/>
<path id="Vector_2" d="M14.5013 11.0192C12.981 9.49888 10.5161 9.49888 8.99573 11.0191C7.47538 12.5395 7.47538 15.0045 8.99573 16.5248L14.5012 22.0303L20.0068 16.5246C21.5272 15.0043 21.5273 12.5394 20.0069 11.019C18.4866 9.49878 16.0216 9.49888 14.5013 11.0192Z" fill="white"/>
</g>
</g>
<defs>
<clipPath id="clip0_2874_99517">
<rect width="29" height="29" fill="white" transform="translate(0 0.978516)"/>
</clipPath>
</defs>
</svg>
