<svg width="22" height="23" viewBox="0 0 22 23" fill="none" xmlns="http://www.w3.org/2000/svg">
<g id="comment-alt-middle 1" clip-path="url(#clip0_1871_217809)">
<path id="Vector" d="M11.0073 21.7144C10.571 21.7144 10.1319 21.5604 9.78175 21.2497L6.34608 18.3557H3.66667C1.6445 18.3557 3.83036e-07 16.7112 3.83036e-07 14.6891V3.68815C-0.000916284 1.66598 1.64358 0.0214844 3.66575 0.0214844H18.3324C20.3546 0.0214844 21.9991 1.66598 21.9991 3.68815V14.6882C21.9991 16.7103 20.3546 18.3548 18.3324 18.3548H15.7181L12.1917 21.2698C11.8598 21.565 11.4354 21.7135 11.0064 21.7135L11.0073 21.7144ZM3.66575 1.85482C2.65467 1.85482 1.83242 2.67707 1.83242 3.68815V14.6882C1.83242 15.6992 2.65467 16.5215 3.66575 16.5215H6.68067C6.897 16.5215 7.106 16.5976 7.27192 16.7369L10.9817 19.8627L14.8042 16.7314C14.9692 16.5957 15.1754 16.5215 15.389 16.5215H18.3333C19.3444 16.5215 20.1667 15.6992 20.1667 14.6882V3.68815C20.1667 2.67707 19.3444 1.85482 18.3333 1.85482H3.66575Z" fill="white"/>
</g>
<defs>
<clipPath id="clip0_1871_217809">
<rect width="22" height="22" fill="white" transform="translate(0 0.0214844)"/>
</clipPath>
</defs>
</svg>
