<svg width="22" height="23" viewBox="0 0 22 23" fill="none" xmlns="http://www.w3.org/2000/svg">
<g id="social-network 1" clip-path="url(#clip0_1871_217804)">
<path id="Vector" d="M20.8753 7.09884C20.4454 6.60348 19.9142 6.20627 19.3174 5.93409C18.7207 5.66191 18.0725 5.52112 17.4167 5.52126H13.7601L14.0681 3.65034C14.1771 2.9915 14.0456 2.31543 13.6976 1.74546C13.3497 1.17548 12.8084 0.749564 12.1726 0.545403C11.5368 0.341242 10.8488 0.372437 10.234 0.633296C9.61927 0.894156 9.11879 1.3673 8.82383 1.96643L7.06933 5.52126H4.58333C3.3682 5.52272 2.20326 6.00607 1.34403 6.8653C0.484808 7.72452 0.00145554 8.88947 0 10.1046L0 14.6879C0.00145554 15.9031 0.484808 17.068 1.34403 17.9272C2.20326 18.7865 3.3682 19.2698 4.58333 19.2713H16.775C17.8782 19.2667 18.9431 18.8664 19.776 18.143C20.6089 17.4196 21.1544 16.4213 21.3134 15.3296L21.9597 10.7463C22.0507 10.0961 22.001 9.43397 21.8139 8.8047C21.6268 8.17542 21.3067 7.59368 20.8753 7.09884ZM1.83333 14.6879V10.1046C1.83333 9.37525 2.12306 8.67578 2.63879 8.16005C3.15451 7.64433 3.85399 7.35459 4.58333 7.35459H6.41667V17.4379H4.58333C3.85399 17.4379 3.15451 17.1482 2.63879 16.6325C2.12306 16.1167 1.83333 15.4173 1.83333 14.6879ZM20.1401 10.4887L19.4929 15.072C19.3983 15.7265 19.0719 16.3253 18.5731 16.7595C18.0743 17.1937 17.4363 17.4344 16.775 17.4379H8.25V7.11076C8.33639 7.0355 8.4079 6.94471 8.46083 6.84309L10.4674 2.77768C10.5427 2.64195 10.649 2.52601 10.7778 2.43939C10.9066 2.35278 11.0541 2.29795 11.2082 2.27943C11.3623 2.26091 11.5185 2.27921 11.6642 2.33284C11.8098 2.38647 11.9406 2.4739 12.0459 2.58793C12.136 2.69265 12.2018 2.81597 12.2387 2.94906C12.2757 3.08216 12.2827 3.22177 12.2595 3.35793L11.7755 6.29126C11.7543 6.42233 11.7617 6.55644 11.7974 6.68433C11.8331 6.81222 11.8962 6.93083 11.9822 7.03195C12.0683 7.13308 12.1752 7.2143 12.2958 7.27001C12.4163 7.32572 12.5475 7.35458 12.6803 7.35459H17.4167C17.8103 7.35454 18.1993 7.43899 18.5575 7.60223C18.9157 7.76547 19.2346 8.00369 19.4928 8.30081C19.751 8.59792 19.9424 8.947 20.0541 9.32445C20.1657 9.7019 20.1951 10.0989 20.1401 10.4887Z" fill="white"/>
</g>
<defs>
<clipPath id="clip0_1871_217804">
<rect width="22" height="22" fill="white" transform="translate(0 0.0214844)"/>
</clipPath>
</defs>
</svg>
