<svg width="20" height="21" viewBox="0 0 20 21" fill="none" xmlns="http://www.w3.org/2000/svg">
<g id="tags 1" clip-path="url(#clip0_1871_217793)">
<path id="Vector" d="M6.42336 7.73448C6.7492 8.06031 6.7492 8.58781 6.42336 8.91281C6.09753 9.23865 5.57003 9.23865 5.24503 8.91281C4.9192 8.58698 4.9192 8.05948 5.24503 7.73448C5.57086 7.40865 6.09836 7.40865 6.42336 7.73448ZM17.9667 12.8053L17.4959 13.2761C17.4734 14.3036 17.075 15.3236 16.3 16.1086L13.6609 18.782C12.875 19.5778 11.8267 20.0178 10.7084 20.0211H10.6942C9.5817 20.0211 8.53586 19.5878 7.7492 18.8011L1.5692 12.6736C1.02753 12.1328 0.765864 11.3886 0.849197 10.6295L1.4867 4.86615C1.5292 4.48615 1.82336 4.18365 2.2017 4.13198L7.94253 3.34698C8.7192 3.24365 9.50086 3.50781 10.0492 4.05615L16.2784 10.2328C16.6009 10.5553 16.8592 10.9186 17.0542 11.3061C17.7309 10.3345 17.6359 8.97698 16.7692 8.11031L10.4434 1.93948C10.2525 1.74865 9.9892 1.66031 9.7342 1.69615L3.99336 2.48115C3.53586 2.54281 3.1167 2.22365 3.0542 1.76865C2.99253 1.31281 3.3117 0.892813 3.7667 0.830313L9.50836 0.04448C10.2759 -0.0646867 11.0659 0.203647 11.615 0.75448L17.9392 6.92531C19.5609 8.54615 19.57 11.1811 17.9659 12.8061L17.9667 12.8053ZM15.1017 11.4136L8.87253 5.23698C8.6867 5.05115 8.42586 4.96531 8.1667 4.99781L3.07086 5.69531L2.50503 10.812C2.47753 11.0645 2.5642 11.3128 2.7442 11.492L8.9242 17.6195C9.39836 18.0945 10.0259 18.3536 10.6934 18.3536H10.7017C11.3734 18.352 12.0025 18.0878 12.4734 17.6095L15.1125 14.9361C16.075 13.9611 16.07 12.3803 15.1009 11.412L15.1017 11.4136Z" fill="white"/>
</g>
<defs>
<clipPath id="clip0_1871_217793">
<rect width="20" height="20" fill="white" transform="translate(0 0.0214844)"/>
</clipPath>
</defs>
</svg>
