<svg width="1920" height="568" viewBox="0 0 1920 568" fill="none" xmlns="http://www.w3.org/2000/svg">
<path fill-rule="evenodd" clip-rule="evenodd" d="M1938 72.5924C1829.23 48.9656 1636.36 7.77696 1356.28 7.77698C1207.63 7.77698 1073.11 18.9568 950.828 29.1202C820.152 39.9808 703.442 49.6806 598.382 43.3373C590.807 42.8799 583.1 42.4093 575.274 41.9314C376.185 29.7738 100.471 12.9371 -15.9521 91.5913V386.252H-14.9998V568H1937V386.251H1938L1938 72.5924Z" fill="#007983"/>
<path fill-rule="evenodd" clip-rule="evenodd" d="M42.1233 71.6396C153.068 46.2053 320.692 7.77709 565.772 7.7771C714.417 7.77711 848.934 18.9569 971.221 29.1203C1101.9 39.9809 1218.61 49.6808 1323.67 43.3374C1388.58 39.418 1469.32 31.4899 1550.95 23.4737C1721.18 6.75801 1895.32 -10.3408 1938 7.72605V386.252H1937V568H-19V262H-10.2618L-2.00006 81.5914C11.5922 78.639 26.2798 75.2718 42.1233 71.6396Z" fill="#007983" fill-opacity="0.2"/>
</svg>
