<svg width="428" height="498" viewBox="0 0 428 498" fill="none" xmlns="http://www.w3.org/2000/svg">
<path fill-rule="evenodd" clip-rule="evenodd" d="M9.42062 35.0902C34.325 22.6321 71.9526 3.80936 126.967 3.80936C160.334 3.80936 190.53 9.2854 217.981 14.2636C247.314 19.5832 273.513 24.3344 297.096 21.2273C311.668 19.3075 329.792 15.4243 348.117 11.4978C386.329 3.3102 425.418 -5.06505 434.999 3.78436V128H435V498H-4.29736V128H-2.33162L-0.484005 39.9647C2.56712 38.5185 5.86414 36.8692 9.42062 35.0902Z" fill="#E6F2F3"/>
<path fill-rule="evenodd" clip-rule="evenodd" d="M434.999 35.5576C410.582 23.9848 367.287 3.81005 304.416 3.81006C271.049 3.81006 240.853 9.2861 213.403 14.2643C184.069 19.5839 157.871 24.3351 134.287 21.228C132.587 21.004 130.857 20.7735 129.1 20.5394C84.4094 14.5844 22.5183 6.33756 -3.61594 44.8635L-3.61597 189.192H-3.18539V402H435V128H434.999L434.999 35.5576Z" fill="#007983"/>
<path fill-rule="evenodd" clip-rule="evenodd" d="M-6.24692 466.121C18.1698 477.694 61.4649 497.868 124.336 497.868C157.703 497.868 187.899 492.392 215.349 487.414C244.683 482.094 270.881 477.343 294.465 480.45C296.165 480.674 297.895 480.905 299.652 481.139C344.343 487.094 406.234 495.341 432.368 456.815L432.368 408L433.888 408L433.888 243L-4.29767 243L-4.29768 312.486L-6.24703 312.486L-6.24692 466.121Z" fill="#007983" fill-opacity="0.2"/>
<path fill-rule="evenodd" clip-rule="evenodd" d="M421.59 445.588C396.686 458.046 359.058 476.869 304.044 476.869C270.676 476.869 240.481 471.393 213.03 466.415C183.697 461.095 157.498 456.344 133.915 459.451C119.343 461.371 101.219 465.254 82.8941 469.18C44.6815 477.368 5.59314 485.743 -3.98849 476.894L-3.98848 408L-4.29759 408L-4.29756 243L435 243L435 408L432.181 408L431.495 440.714C428.444 442.16 425.147 443.809 421.59 445.588Z" fill="#007983"/>
</svg>
