<svg width="343" height="92" viewBox="0 0 343 92" fill="none" xmlns="http://www.w3.org/2000/svg">
<rect width="343" height="92" rx="10" fill="url(#paint0_linear_762_8243)"/>
<g opacity="0.35">
<mask id="mask0_762_8243" style="mask-type:alpha" maskUnits="userSpaceOnUse" x="0" y="0" width="343" height="92">
<rect width="343" height="92" rx="10" fill="url(#paint1_linear_762_8243)"/>
</mask>
<g mask="url(#mask0_762_8243)">
<g clip-path="url(#clip0_762_8243)">
<path d="M297.82 23.7254C290.509 32.0817 287.024 42.7474 281.916 52.4536C276.803 62.1597 268.913 71.7144 257.688 73.9504C246.532 76.1726 234.975 70.5803 223.723 72.3113C213.525 73.8815 205.52 81.0762 197.666 87.4214C189.813 93.7667 180.285 99.887 170.046 98.6152C153.111 96.5124 145.312 76.2736 129.339 70.5482C111.278 64.0698 90.0789 78.4499 72.2958 71.3149C54.6998 64.2534 51.8538 41.2139 37.3957 29.3911C31.9545 24.9421 24.2693 22.2562 17.4553 24.4325C7.33005 27.6694 3.78165 39.2947 2.15797 49.281C-0.428077 65.1946 -1.87845 81.4343 0.506913 97.3755C2.89228 113.317 9.3551 129.038 20.9763 140.805C40.5974 160.677 71.1465 166.352 99.6568 169.873C149.576 176.044 200.54 178.84 250.076 170.365C265.492 167.729 280.844 163.955 294.773 157.183C308.707 150.41 321.217 140.438 328.788 127.472C337.153 113.156 338.996 96.3057 339.602 79.9605C340.195 63.932 339.767 47.8714 338.316 31.8934C337.5 22.9127 333.96 15.6216 324.077 13.4637C314.262 11.3195 303.94 16.719 297.82 23.7162V23.7254Z" fill="url(#paint2_linear_762_8243)"/>
<path d="M308.643 26.3058C298.837 29.9605 292.68 39.1249 288.187 48.1378C283.695 57.1506 279.977 66.8705 272.493 73.8862C266.696 79.3223 258.833 82.7567 250.696 83.3995C241.611 84.1203 232.494 81.4849 223.413 82.2975C211.979 83.3168 201.972 89.6116 191.947 94.9146C181.922 100.218 170.319 104.791 159.213 102.022C142.671 97.899 133.636 79.1754 116.988 75.4518C99.4015 71.517 80.1407 85.9844 63.84 78.6061C48.269 71.5583 47.3021 49.8687 33.7789 39.7218C24.8395 33.0138 10.9287 33.124 2.10788 39.9789C-5.17591 45.6401 -8.50538 54.6254 -10.5076 63.3352C-13.8234 77.7521 -14.3981 92.7383 -12.1952 107.348C-9.80524 123.188 -3.82588 139.074 8.02796 150.493C22.2215 164.166 42.8004 169.74 62.5675 173.969C143.145 191.209 230.633 194.171 305.519 161.186C321.003 154.364 336.36 145.553 345.363 131.829C354.453 117.977 355.921 100.801 354.562 84.5473C352.897 64.708 346.435 40.1304 328.693 27.3985C323.366 23.5785 314.709 24.0423 308.643 26.3058Z" fill="url(#paint3_linear_762_8243)"/>
</g>
</g>
</g>
<defs>
<linearGradient id="paint0_linear_762_8243" x1="343.5" y1="-2.7059" x2="4.11837" y2="75.1015" gradientUnits="userSpaceOnUse">
<stop stop-color="#007983"/>
<stop offset="1" stop-color="#09C4D3"/>
</linearGradient>
<linearGradient id="paint1_linear_762_8243" x1="343.5" y1="-2.7059" x2="4.11837" y2="75.1015" gradientUnits="userSpaceOnUse">
<stop stop-color="#007983"/>
<stop offset="1" stop-color="#E0FBF9"/>
<stop offset="1" stop-color="#007983"/>
</linearGradient>
<linearGradient id="paint2_linear_762_8243" x1="-0.706292" y1="94.3452" x2="339.862" y2="94.3452" gradientUnits="userSpaceOnUse">
<stop stop-color="#07B3C1"/>
<stop offset="1" stop-color="#007983"/>
</linearGradient>
<linearGradient id="paint3_linear_762_8243" x1="-13.5087" y1="105.58" x2="355" y2="105.58" gradientUnits="userSpaceOnUse">
<stop stop-color="#007983"/>
<stop offset="1" stop-color="#04A5B3"/>
</linearGradient>
<clipPath id="clip0_762_8243">
<rect width="368.509" height="173.595" fill="white" transform="translate(-13.5088 13)"/>
</clipPath>
</defs>
</svg>
