<svg width="16" height="16" viewBox="0 0 16 16" fill="none" xmlns="http://www.w3.org/2000/svg">
<path d="M11.3332 1.33337H4.6665C3.56364 1.33337 2.6665 2.23051 2.6665 3.33337V10C2.6665 10.9024 3.1665 12.1094 3.80452 12.7474L4.58577 13.5287C5.2238 14.1667 6.43083 14.6667 7.33317 14.6667H11.3332C12.436 14.6667 13.3332 13.7696 13.3332 12.6667V3.33337C13.3332 2.23051 12.436 1.33337 11.3332 1.33337Z" fill="url(#paint0_linear_762_7767)"/>
<path d="M5.99984 9.33337H2.6665V10C2.6665 10.9024 3.1652 12.1081 3.80192 12.7448L4.58838 13.5313C5.2251 14.168 6.43083 14.6667 7.33317 14.6667H7.99984V11.3334C7.99984 10.2305 7.1027 9.33337 5.99984 9.33337Z" fill="url(#paint1_linear_762_7767)"/>
<path d="M9.99967 5.33333H5.99967C5.63118 5.33333 5.33301 5.03516 5.33301 4.66667C5.33301 4.29818 5.63118 4 5.99967 4H9.99967C10.3682 4 10.6663 4.29818 10.6663 4.66667C10.6663 5.03516 10.3682 5.33333 9.99967 5.33333Z" fill="url(#paint2_linear_762_7767)"/>
<path d="M9.99967 8.00008H5.99967C5.63118 8.00008 5.33301 7.7019 5.33301 7.33341C5.33301 6.96493 5.63118 6.66675 5.99967 6.66675H9.99967C10.3682 6.66675 10.6663 6.96493 10.6663 7.33341C10.6663 7.7019 10.3682 8.00008 9.99967 8.00008Z" fill="url(#paint3_linear_762_7767)"/>
<defs>
<linearGradient id="paint0_linear_762_7767" x1="2.6665" y1="8.00004" x2="13.3332" y2="8.00004" gradientUnits="userSpaceOnUse">
<stop stop-color="#BBDEFB"/>
<stop offset="1" stop-color="#64B5F6"/>
</linearGradient>
<linearGradient id="paint1_linear_762_7767" x1="2.6665" y1="12" x2="7.99984" y2="12" gradientUnits="userSpaceOnUse">
<stop stop-color="#42A5F5"/>
<stop offset="1" stop-color="#1E88E5"/>
</linearGradient>
<linearGradient id="paint2_linear_762_7767" x1="5.33301" y1="4.66667" x2="10.6663" y2="4.66667" gradientUnits="userSpaceOnUse">
<stop stop-color="#42A5F5"/>
<stop offset="1" stop-color="#1E88E5"/>
</linearGradient>
<linearGradient id="paint3_linear_762_7767" x1="5.33301" y1="7.33341" x2="10.6663" y2="7.33341" gradientUnits="userSpaceOnUse">
<stop stop-color="#42A5F5"/>
<stop offset="1" stop-color="#1E88E5"/>
</linearGradient>
</defs>
</svg>
