<svg width="428" height="255" viewBox="0 0 428 255" fill="none" xmlns="http://www.w3.org/2000/svg">
<path fill-rule="evenodd" clip-rule="evenodd" d="M-6.24692 223.121C18.1698 234.694 61.4649 254.868 124.336 254.868C157.703 254.868 187.899 249.392 215.349 244.414C244.683 239.094 270.881 234.343 294.465 237.45C296.165 237.674 297.895 237.905 299.652 238.139C344.343 244.094 406.234 252.341 432.368 213.815L432.368 165L433.888 165L433.888 0.00014549L-4.29767 7.66004e-05L-4.29768 69.4864L-6.24703 69.4864L-6.24692 223.121Z" fill="#007983" fill-opacity="0.2"/>
<path fill-rule="evenodd" clip-rule="evenodd" d="M421.59 202.588C396.686 215.046 359.058 233.869 304.044 233.869C270.676 233.869 240.481 228.393 213.03 223.415C183.697 218.095 157.498 213.344 133.915 216.451C119.343 218.371 101.219 222.254 82.8941 226.18C44.6815 234.368 5.59314 242.743 -3.98849 233.894L-3.98848 165L-4.29759 165L-4.29756 7.22994e-06L435 7.62939e-05L435 165L432.181 165L431.495 197.714C428.444 199.16 425.147 200.809 421.59 202.588Z" fill="#007983"/>
</svg>
