<svg width="16" height="16" viewBox="0 0 16 16" fill="none" xmlns="http://www.w3.org/2000/svg">
<g clip-path="url(#clip0_762_7509)">
<path d="M1.33325 6.43574L7.33544 1.63399C7.83644 1.23317 8.54842 1.23317 9.04941 1.63399L15.0516 6.43574" stroke="#333333" stroke-linecap="round" stroke-linejoin="round"/>
<path d="M6.46204 2.35412L3.71837 4.58335C3.22022 4.9881 2.97114 5.19047 2.83798 5.47022C2.70483 5.74998 2.70483 6.0709 2.70483 6.71276V9.17939C2.70483 11.7661 2.70483 13.0596 3.50843 13.8631C4.31204 14.6667 5.60541 14.6667 8.19217 14.6667C10.7789 14.6667 12.0723 14.6667 12.8759 13.8631C13.6795 13.0596 13.6795 11.7661 13.6795 9.17939V6.71276C13.6795 6.0709 13.6795 5.74998 13.5464 5.47022C13.4132 5.19047 13.1641 4.9881 12.666 4.58335L9.92233 2.35412C9.09361 1.68078 8.67924 1.34412 8.19217 1.34412C7.7051 1.34412 7.29074 1.68078 6.46204 2.35412Z" stroke="#333333"/>
<path d="M6.64893 10.7228H9.73555" stroke="#333333" stroke-linecap="round"/>
</g>
<defs>
<clipPath id="clip0_762_7509">
<rect width="16" height="16" fill="white"/>
</clipPath>
</defs>
</svg>
