<svg width="16" height="16" viewBox="0 0 16 16" fill="none" xmlns="http://www.w3.org/2000/svg">
<g clip-path="url(#clip0_762_7758)">
<path d="M8 0.5C3.8645 0.5 0.5 3.8645 0.5 8C0.5 9.70923 1.08911 11.3708 2.16284 12.7024L2.00122 14.9644C1.9895 15.1289 2.05981 15.2886 2.18872 15.3914C2.27832 15.4626 2.38843 15.5 2.5 15.5C2.54932 15.5 2.59888 15.4927 2.64697 15.4778L4.8501 14.8C5.8479 15.2646 6.90674 15.5 8 15.5C12.1355 15.5 15.5 12.1355 15.5 8C15.5 3.8645 12.1355 0.5 8 0.5Z" fill="url(#paint0_linear_762_7758)"/>
<path d="M8 2.5C4.96729 2.5 2.5 4.96729 2.5 8C2.5 11.0327 4.96729 13.5 8 13.5C11.0327 13.5 13.5 11.0327 13.5 8C13.5 4.96729 11.0327 2.5 8 2.5Z" fill="url(#paint1_linear_762_7758)"/>
<path d="M10.5 8C10.5 7.49512 10.4751 6.99512 10.4351 6.5H13.29C13.1951 6.1499 13.0601 5.81494 12.8999 5.5H10.3201C10.1599 4.40991 9.88989 3.42993 9.51489 2.70996C9.03491 2.57495 8.5249 2.5 8 2.5C8.375 2.5 9 3.54492 9.31494 5.5H6.68506C7 3.54492 7.625 2.5 8 2.5C7.4751 2.5 6.96509 2.57495 6.48511 2.70996C6.11011 3.42993 5.84009 4.40991 5.67993 5.5H3.1001C2.93994 5.81494 2.80493 6.1499 2.70996 6.5H5.56494C5.5249 6.99512 5.5 7.49512 5.5 8C5.5 8.50488 5.5249 9.00488 5.56494 9.5H2.70996C2.80493 9.8501 2.93994 10.1851 3.1001 10.5H5.67993C5.84009 11.5901 6.11011 12.5701 6.48511 13.29C6.96509 13.425 7.4751 13.5 8 13.5C7.625 13.5 7 12.4551 6.68506 10.5H9.31494C9 12.4551 8.375 13.5 8 13.5C8.5249 13.5 9.03491 13.425 9.51489 13.29C9.88989 12.5701 10.1599 11.5901 10.3201 10.5H12.8999C13.0601 10.1851 13.1951 9.8501 13.29 9.5H10.4351C10.4751 9.00488 10.5 8.50488 10.5 8ZM9.43506 9.5H6.56494C6.5249 9.03491 6.5 8.54004 6.5 8C6.5 7.45996 6.5249 6.96509 6.56494 6.5H9.43506C9.4751 6.96509 9.5 7.45996 9.5 8C9.5 8.54004 9.4751 9.03491 9.43506 9.5Z" fill="url(#paint2_linear_762_7758)"/>
</g>
<defs>
<linearGradient id="paint0_linear_762_7758" x1="0.5" y1="8" x2="15.5" y2="8" gradientUnits="userSpaceOnUse">
<stop stop-color="#BBDEFB"/>
<stop offset="1" stop-color="#64B5F6"/>
</linearGradient>
<linearGradient id="paint1_linear_762_7758" x1="2.5" y1="8" x2="13.5" y2="8" gradientUnits="userSpaceOnUse">
<stop stop-color="#42A5F5"/>
<stop offset="1" stop-color="#1E88E5"/>
</linearGradient>
<linearGradient id="paint2_linear_762_7758" x1="2.71" y1="8" x2="13.29" y2="8" gradientUnits="userSpaceOnUse">
<stop stop-color="#BBDEFB"/>
<stop offset="1" stop-color="#64B5F6"/>
</linearGradient>
<clipPath id="clip0_762_7758">
<rect width="16" height="16" fill="white"/>
</clipPath>
</defs>
</svg>
