<svg width="808" height="790" viewBox="0 0 808 790" fill="none" xmlns="http://www.w3.org/2000/svg">
<mask id="mask0_4016_12608" style="mask-type:alpha" maskUnits="userSpaceOnUse" x="20" y="3" width="768" height="763">
<rect x="20" y="3" width="768" height="762.617" fill="white"/>
</mask>
<g mask="url(#mask0_4016_12608)">
<path fill-rule="evenodd" clip-rule="evenodd" d="M26.3246 72.8159C72.1856 47.3017 141.476 8.75275 242.785 8.75276C304.23 8.75277 359.835 19.9677 410.385 30.163C464.402 41.0577 512.646 50.788 556.075 44.4247C582.908 40.493 616.283 32.5401 650.029 24.4987C720.397 7.73048 792.377 -9.42205 810.022 8.70154L810.022 263.097H810.023V1020.86H1.0625V263.097H4.68309L8.08547 82.7989C13.704 79.8372 19.7754 76.4594 26.3246 72.8159Z" fill="#E6F2F3"/>
<path fill-rule="evenodd" clip-rule="evenodd" d="M810.021 73.7757C765.058 50.0748 685.33 8.75684 569.554 8.75685C508.109 8.75686 452.504 19.9718 401.955 30.1671C347.937 41.0618 299.693 50.7921 256.265 44.4288C253.133 43.97 249.947 43.4979 246.712 43.0185C164.415 30.8228 50.4436 13.9331 2.31769 92.8344L2.31763 388.42H3.11041V783.288H810.022V263.096H810.021L810.021 73.7757Z" fill="#007983"/>
<path fill-rule="evenodd" clip-rule="evenodd" d="M-2.52846 918.705C42.4345 942.406 122.162 983.724 237.938 983.724C299.383 983.724 354.988 972.509 405.538 962.314C459.555 951.419 507.799 941.689 551.228 948.052C554.359 948.511 557.545 948.983 560.78 949.462C643.077 961.658 757.049 978.548 805.175 899.646L805.175 799.675L807.973 799.675L807.973 461.755L1.06068 461.755L1.06066 604.062L-2.52867 604.062L-2.52846 918.705Z" fill="#007983" fill-opacity="0.2"/>
<path fill-rule="evenodd" clip-rule="evenodd" d="M785.329 876.655C739.468 902.169 670.177 940.718 568.868 940.718C507.423 940.718 451.818 929.503 401.268 919.308C347.251 908.413 299.007 898.683 255.578 905.046C228.745 908.978 195.37 916.931 161.624 924.972C91.2565 941.74 19.2758 958.893 1.63141 940.769L1.63143 799.673L1.06192 799.673L1.06197 461.753L810.022 461.753L810.022 799.673L804.832 799.673L803.568 866.672C797.949 869.634 791.878 873.011 785.329 876.655Z" fill="#007983"/>
</g>
</svg>
