<svg width="397" height="421" viewBox="0 0 397 421" fill="none" xmlns="http://www.w3.org/2000/svg">
<mask id="mask0_762_4226" style="mask-type:alpha" maskUnits="userSpaceOnUse" x="11" y="1" width="375" height="396">
<rect x="11" y="1" width="375" height="396" rx="16" fill="white"/>
</mask>
<g mask="url(#mask0_762_4226)">
<path fill-rule="evenodd" clip-rule="evenodd" d="M14.0876 35.0902C36.4806 22.6321 70.314 3.80936 119.781 3.80936C149.784 3.80936 176.935 9.28541 201.617 14.2636C227.993 19.5832 251.549 24.3344 272.755 21.2273C285.857 19.3076 302.153 15.4243 318.63 11.4978C352.99 3.31021 388.137 -5.06505 396.752 3.78436V128H396.753V498H1.75293V128H3.52044L5.18175 39.9647C7.9252 38.5185 10.8897 36.8693 14.0876 35.0902Z" fill="#E6F2F3"/>
<path fill-rule="evenodd" clip-rule="evenodd" d="M396.752 35.5581C374.797 23.9853 335.868 3.81054 279.337 3.81055C249.334 3.81055 222.183 9.28659 197.501 14.2648C171.125 19.5844 147.569 24.3356 126.363 21.2285C124.834 21.0045 123.279 20.774 121.699 20.5399C81.5148 14.5849 25.8647 6.33804 2.36569 44.864V189.193H2.75293V382H396.753V128H396.752L396.752 35.5581Z" fill="#007983"/>
<path fill-rule="evenodd" clip-rule="evenodd" d="M0.000135168 448.121C21.9547 459.693 60.8841 479.868 117.415 479.868C147.418 479.868 174.569 474.392 199.251 469.414C225.627 464.094 249.184 459.343 270.389 462.45C271.918 462.674 273.474 462.905 275.053 463.139C315.237 469.094 370.887 477.341 394.386 438.815L394.386 390L395.753 390L395.753 225L1.75296 225L1.75295 294.486L3.24132e-05 294.486L0.000135168 448.121Z" fill="#007983" fill-opacity="0.2"/>
<path fill-rule="evenodd" clip-rule="evenodd" d="M384.695 427.588C362.302 440.046 328.469 458.868 279.002 458.868C248.999 458.868 221.848 453.392 197.166 448.414C170.79 443.094 147.233 438.343 126.028 441.45C112.926 443.37 96.6296 447.253 80.1523 451.18C45.7929 459.367 10.6461 467.743 2.03064 458.893L2.03065 389.999L1.75288 389.999L1.75291 224.999L396.753 225L396.753 389.999L394.218 389.999L393.601 422.713C390.858 424.159 387.893 425.808 384.695 427.588Z" fill="#007983"/>
</g>
</svg>
