<svg width="344" height="92" viewBox="0 0 344 92" fill="none" xmlns="http://www.w3.org/2000/svg">
<rect x="0.75293" width="343" height="92" rx="10" fill="url(#paint0_linear_762_4194)"/>
<rect x="0.75293" width="343" height="92" rx="10" fill="url(#paint1_linear_762_4194)"/>
<g opacity="0.35">
<mask id="mask0_762_4194" style="mask-type:alpha" maskUnits="userSpaceOnUse" x="0" y="0" width="344" height="92">
<rect x="0.75293" width="343" height="92" rx="10" fill="url(#paint2_linear_762_4194)"/>
</mask>
<g mask="url(#mask0_762_4194)">
<g clip-path="url(#clip0_762_4194)">
<path d="M298.573 23.7258C291.262 32.0821 287.777 42.7478 282.669 52.454C277.556 62.1601 269.666 71.7147 258.441 73.9507C247.285 76.173 235.728 70.5807 224.476 72.3116C214.278 73.8819 206.273 81.0765 198.419 87.4218C190.565 93.7671 181.038 99.8874 170.798 98.6156C153.864 96.5127 146.065 76.274 130.092 70.5485C112.031 64.0701 90.8318 78.4503 73.0488 71.3153C55.4527 64.2538 52.6067 41.2143 38.1486 29.3915C32.7074 24.9425 25.0222 22.2565 18.2082 24.4328C8.08298 27.6697 4.53458 39.2951 2.9109 49.2813C0.324853 65.195 -1.12552 81.4347 1.25984 97.3759C3.64521 113.317 10.108 129.038 21.7293 140.806C41.3504 160.677 71.8994 166.352 100.41 169.874C150.329 176.044 201.293 178.841 250.829 170.365C266.245 167.729 281.597 163.955 295.526 157.183C309.46 150.411 321.97 140.438 329.541 127.472C337.906 113.156 339.749 96.3061 340.355 79.9608C340.948 63.9324 340.52 47.8718 339.069 31.8938C338.253 22.9131 334.713 15.622 324.83 13.4641C315.015 11.3199 304.693 16.7193 298.573 23.7166V23.7258Z" fill="url(#paint3_linear_762_4194)"/>
<path d="M309.396 26.3056C299.59 29.9603 293.433 39.1247 288.94 48.1375C284.448 57.1504 280.73 66.8703 273.246 73.8859C267.449 79.3221 259.586 82.7564 251.449 83.3992C242.364 84.1201 233.247 81.4846 224.166 82.2973C212.732 83.3166 202.725 89.6113 192.7 94.9144C182.675 100.217 171.072 104.79 159.966 102.022C143.424 97.8988 134.389 79.1752 117.741 75.4516C100.154 71.5168 80.8936 85.9842 64.5929 78.6058C49.0219 71.5581 48.055 49.8685 34.5318 39.7215C25.5924 33.0135 11.6816 33.1237 2.86081 39.9787C-4.42298 45.6398 -7.75245 54.6251 -9.7547 63.3349C-13.0705 77.7518 -13.6452 92.7381 -11.4422 107.348C-9.05232 123.188 -3.07295 139.074 8.78089 150.493C22.9745 164.166 43.5534 169.74 63.3204 173.969C143.898 191.209 231.386 194.171 306.272 161.186C321.756 154.363 337.113 145.553 346.116 131.829C355.206 117.977 356.674 100.801 355.315 84.5471C353.65 64.7078 347.188 40.1302 329.446 27.3983C324.118 23.5783 315.462 24.042 309.396 26.3056Z" fill="url(#paint4_linear_762_4194)"/>
</g>
</g>
</g>
<rect x="0.75293" width="343" height="92" rx="10" fill="black" fill-opacity="0.35"/>
<defs>
<linearGradient id="paint0_linear_762_4194" x1="344.253" y1="-2.7059" x2="4.8713" y2="75.1015" gradientUnits="userSpaceOnUse">
<stop stop-color="#007983"/>
<stop offset="1" stop-color="#09C4D3"/>
</linearGradient>
<linearGradient id="paint1_linear_762_4194" x1="344.253" y1="-2.7059" x2="4.8713" y2="75.1015" gradientUnits="userSpaceOnUse">
<stop stop-color="#007983"/>
<stop offset="1" stop-color="#09C4D3"/>
</linearGradient>
<linearGradient id="paint2_linear_762_4194" x1="344.253" y1="-2.7059" x2="4.8713" y2="75.1015" gradientUnits="userSpaceOnUse">
<stop stop-color="#007983"/>
<stop offset="1" stop-color="#E0FBF9"/>
<stop offset="1" stop-color="#007983"/>
</linearGradient>
<linearGradient id="paint3_linear_762_4194" x1="0.0466372" y1="94.3456" x2="340.615" y2="94.3456" gradientUnits="userSpaceOnUse">
<stop stop-color="#07B3C1"/>
<stop offset="1" stop-color="#007983"/>
</linearGradient>
<linearGradient id="paint4_linear_762_4194" x1="-12.7558" y1="105.58" x2="355.753" y2="105.58" gradientUnits="userSpaceOnUse">
<stop stop-color="#007983"/>
<stop offset="1" stop-color="#04A5B3"/>
</linearGradient>
<clipPath id="clip0_762_4194">
<rect width="368.509" height="173.595" fill="white" transform="translate(-12.7559 13)"/>
</clipPath>
</defs>
</svg>
