<svg width="17" height="16" viewBox="0 0 17 16" fill="none" xmlns="http://www.w3.org/2000/svg">
<g clip-path="url(#clip0_762_4281)">
<path d="M12.7529 8C10.5436 8 8.75293 9.79067 8.75293 12C8.75293 14.2093 10.5436 16 12.7529 16C14.9623 16 16.7529 14.2093 16.7529 12C16.7529 9.79067 14.9623 8 12.7529 8ZM13.1096 13.6787C12.9043 13.8847 12.6249 14 12.3276 14C12.0303 14 11.7516 13.884 11.5416 13.674L10.3116 12.482L11.2403 11.5247L12.3269 12.578L14.4789 10.4613L15.4136 11.412L13.1096 13.6787ZM7.4196 12C7.4196 10.4067 8.11826 8.97733 9.2256 8H3.4196V6.66667H10.0863V7.38067C10.8709 6.92667 11.7816 6.66667 12.7529 6.66667V2C12.7529 0.897333 11.8556 0 10.7529 0H2.75293C1.65026 0 0.75293 0.897333 0.75293 2V16H9.2256C8.11826 15.0227 7.4196 13.5933 7.4196 12ZM3.4196 3.33333H10.0863V4.66667H3.4196V3.33333ZM6.08626 11.3333H3.4196V10H6.08626V11.3333Z" fill="#F04A7C"/>
</g>
<defs>
<clipPath id="clip0_762_4281">
<rect width="16" height="16" fill="white" transform="translate(0.75293)"/>
</clipPath>
</defs>
</svg>
