<svg width="15" height="14" viewBox="0 0 15 14" fill="none" xmlns="http://www.w3.org/2000/svg">
<g clip-path="url(#clip0_762_4189)">
<path d="M11.8363 2.33333H11.5399L10.2659 0.681333C10.1017 0.470054 9.89162 0.29891 9.65149 0.180865C9.41135 0.06282 9.14751 0.000970109 8.87993 0L6.62593 0C6.35835 0.000970109 6.09451 0.06282 5.85437 0.180865C5.61424 0.29891 5.40412 0.470054 5.23993 0.681333L3.96593 2.33333H3.6696C2.89633 2.33426 2.15501 2.64185 1.60822 3.18863C1.06144 3.73541 0.753856 4.47674 0.75293 5.25L0.75293 11.0833C0.753856 11.8566 1.06144 12.5979 1.60822 13.1447C2.15501 13.6915 2.89633 13.9991 3.6696 14H11.8363C12.6095 13.9991 13.3509 13.6915 13.8976 13.1447C14.4444 12.5979 14.752 11.8566 14.7529 11.0833V5.25C14.752 4.47674 14.4444 3.73541 13.8976 3.18863C13.3509 2.64185 12.6095 2.33426 11.8363 2.33333ZM6.16393 1.39417C6.21857 1.32361 6.28858 1.26645 6.36864 1.22703C6.4487 1.18761 6.53669 1.16696 6.62593 1.16667H8.87993C8.96915 1.16705 9.05712 1.18773 9.13716 1.22715C9.2172 1.26656 9.28723 1.32368 9.34193 1.39417L10.0664 2.33333H5.43943L6.16393 1.39417ZM13.5863 11.0833C13.5863 11.5475 13.4019 11.9926 13.0737 12.3208C12.7455 12.649 12.3004 12.8333 11.8363 12.8333H3.6696C3.20547 12.8333 2.76035 12.649 2.43216 12.3208C2.10397 11.9926 1.9196 11.5475 1.9196 11.0833V5.25C1.9196 4.78587 2.10397 4.34075 2.43216 4.01256C2.76035 3.68437 3.20547 3.5 3.6696 3.5H11.8363C12.3004 3.5 12.7455 3.68437 13.0737 4.01256C13.4019 4.34075 13.5863 4.78587 13.5863 5.25V11.0833Z" fill="black"/>
<path d="M7.75293 4.66699C7.0607 4.66699 6.38401 4.87226 5.80844 5.25685C5.23286 5.64143 4.78426 6.18806 4.51935 6.8276C4.25445 7.46714 4.18513 8.17087 4.32018 8.84981C4.45523 9.52874 4.78857 10.1524 5.27806 10.6419C5.76754 11.1314 6.39118 11.4647 7.07012 11.5997C7.74905 11.7348 8.45278 11.6655 9.09232 11.4006C9.73186 11.1357 10.2785 10.6871 10.6631 10.1115C11.0477 9.53592 11.2529 8.85923 11.2529 8.16699C11.252 7.23902 10.883 6.34932 10.2268 5.69314C9.57061 5.03697 8.6809 4.66792 7.75293 4.66699ZM7.75293 10.5003C7.29144 10.5003 6.84032 10.3635 6.4566 10.1071C6.07289 9.8507 5.77382 9.48628 5.59721 9.05992C5.42061 8.63356 5.3744 8.1644 5.46443 7.71178C5.55446 7.25916 5.77669 6.8434 6.10302 6.51708C6.42934 6.19075 6.8451 5.96853 7.29772 5.87849C7.75034 5.78846 8.2195 5.83467 8.64586 6.01127C9.07222 6.18788 9.43664 6.48695 9.69303 6.87066C9.94942 7.25438 10.0863 7.7055 10.0863 8.16699C10.0863 8.78583 9.84043 9.37932 9.40285 9.81691C8.96526 10.2545 8.37177 10.5003 7.75293 10.5003Z" fill="black"/>
</g>
<defs>
<clipPath id="clip0_762_4189">
<rect width="14" height="14" fill="white" transform="translate(0.75293)"/>
</clipPath>
</defs>
</svg>
