<svg width="25" height="24" viewBox="0 0 25 24" fill="none" xmlns="http://www.w3.org/2000/svg">
<g clip-path="url(#clip0_762_4219)">
<path d="M21.7529 4H18.6529C18.4208 2.87141 17.8068 1.85735 16.9142 1.12872C16.0216 0.40009 14.9051 0.00145452 13.7529 0L11.7529 0C10.6007 0.00145452 9.48425 0.40009 8.59168 1.12872C7.69911 1.85735 7.08503 2.87141 6.85293 4H3.75293C3.48771 4 3.23336 4.10536 3.04582 4.29289C2.85829 4.48043 2.75293 4.73478 2.75293 5C2.75293 5.26522 2.85829 5.51957 3.04582 5.70711C3.23336 5.89464 3.48771 6 3.75293 6H4.75293V19C4.75452 20.3256 5.28181 21.5964 6.21915 22.5338C7.15649 23.4711 8.42733 23.9984 9.75293 24H15.7529C17.0785 23.9984 18.3494 23.4711 19.2867 22.5338C20.224 21.5964 20.7513 20.3256 20.7529 19V6H21.7529C22.0181 6 22.2725 5.89464 22.46 5.70711C22.6476 5.51957 22.7529 5.26522 22.7529 5C22.7529 4.73478 22.6476 4.48043 22.46 4.29289C22.2725 4.10536 22.0181 4 21.7529 4ZM11.7529 2H13.7529C14.3732 2.00076 14.9781 2.19338 15.4845 2.55144C15.991 2.90951 16.3743 3.41549 16.5819 4H8.92393C9.13151 3.41549 9.51483 2.90951 10.0213 2.55144C10.5278 2.19338 11.1327 2.00076 11.7529 2ZM18.7529 19C18.7529 19.7956 18.4369 20.5587 17.8743 21.1213C17.3116 21.6839 16.5486 22 15.7529 22H9.75293C8.95728 22 8.19422 21.6839 7.63161 21.1213C7.069 20.5587 6.75293 19.7956 6.75293 19V6H18.7529V19Z" fill="white"/>
<path d="M10.7529 18C11.0181 18 11.2725 17.8946 11.46 17.7071C11.6476 17.5196 11.7529 17.2652 11.7529 17V11C11.7529 10.7348 11.6476 10.4804 11.46 10.2929C11.2725 10.1054 11.0181 10 10.7529 10C10.4877 10 10.2334 10.1054 10.0458 10.2929C9.85829 10.4804 9.75293 10.7348 9.75293 11V17C9.75293 17.2652 9.85829 17.5196 10.0458 17.7071C10.2334 17.8946 10.4877 18 10.7529 18Z" fill="white"/>
<path d="M14.7529 18C15.0181 18 15.2725 17.8946 15.46 17.7071C15.6476 17.5196 15.7529 17.2652 15.7529 17V11C15.7529 10.7348 15.6476 10.4804 15.46 10.2929C15.2725 10.1054 15.0181 10 14.7529 10C14.4877 10 14.2334 10.1054 14.0458 10.2929C13.8583 10.4804 13.7529 10.7348 13.7529 11V17C13.7529 17.2652 13.8583 17.5196 14.0458 17.7071C14.2334 17.8946 14.4877 18 14.7529 18Z" fill="white"/>
</g>
<defs>
<clipPath id="clip0_762_4219">
<rect width="24" height="24" fill="white" transform="translate(0.75293)"/>
</clipPath>
</defs>
</svg>
