<svg width="25" height="24" viewBox="0 0 25 24" fill="none" xmlns="http://www.w3.org/2000/svg">
<g clip-path="url(#clip0_762_4207)">
<path d="M24.3626 10.8362L22.6446 7.2442C22.4266 6.7892 21.9026 6.5662 21.4256 6.7272L12.7486 9.6232L4.05964 6.7282C3.58264 6.5692 3.05864 6.7902 2.84064 7.2462L1.18864 10.7192C0.711637 11.5112 0.621637 12.4622 0.941637 13.3282C1.25164 14.1682 1.90564 14.8192 2.74264 15.1232L2.73664 17.4382C2.73664 19.5952 4.10964 21.5032 6.15564 22.1852L10.5206 23.6412C11.2346 23.8782 11.9846 23.9972 12.7346 23.9972C13.4846 23.9972 14.2346 23.8782 14.9486 23.6402L19.3176 22.1842C21.3616 21.5022 22.7356 19.5982 22.7366 17.4462L22.7426 15.1242C23.5886 14.8282 24.2506 14.1792 24.5616 13.3362C24.8776 12.4782 24.7886 11.5362 24.3626 10.8362ZM2.94664 11.6662L4.26464 8.9032L11.3296 11.2572L9.70964 14.5132C9.46764 14.9192 8.98064 15.0972 8.53564 14.9492L3.45464 13.2542C3.15664 13.1552 2.92464 12.9302 2.81564 12.6362C2.70764 12.3432 2.73864 12.0202 2.94664 11.6662ZM6.78864 20.2892C5.56064 19.8792 4.73564 18.7342 4.73664 17.4412L4.74064 15.7912L7.90464 16.8462C9.25064 17.2922 10.6976 16.7562 11.4636 15.4742L11.7406 14.9192L11.7366 21.8982C11.5396 21.8582 11.3456 21.8072 11.1546 21.7442L6.78964 20.2892H6.78864ZM18.6846 20.2872L14.3156 21.7432C14.1256 21.8062 13.9316 21.8582 13.7356 21.8982L13.7396 14.9032L14.0586 15.5432C14.6156 16.4712 15.5906 17.0032 16.6206 17.0032C16.9386 17.0032 17.2636 16.9522 17.5806 16.8462L20.7406 15.7932L20.7366 17.4442C20.7366 18.7362 19.9116 19.8782 18.6846 20.2872ZM22.6846 12.6422C22.5796 12.9272 22.3536 13.1462 22.0656 13.2432L16.9476 14.9482C16.5096 15.0952 16.0126 14.9122 15.8116 14.5832L14.1576 11.2612L21.2216 8.9042L22.6036 11.7842C22.7596 12.0452 22.7906 12.3572 22.6846 12.6422ZM5.96664 5.8962C5.57564 5.5052 5.57564 4.8732 5.96664 4.4822L9.86364 0.586203C10.6426 -0.192797 11.9126 -0.192797 12.6916 0.586203L14.2876 2.1822C15.0406 1.7972 16.0256 1.9122 16.6406 2.5272L18.8956 4.7822C19.2866 5.1732 19.2866 5.8052 18.8956 6.1962C18.5046 6.5872 17.8726 6.5872 17.4816 6.1962L15.2266 3.9412L12.0756 7.0922C11.8806 7.2872 11.6246 7.3852 11.3686 7.3852C11.1126 7.3852 10.8566 7.2872 10.6616 7.0922C10.2706 6.7012 10.2706 6.0692 10.6616 5.6782L12.8086 3.5312L11.2786 2.0012L7.38164 5.8972C7.18664 6.0922 6.93064 6.1902 6.67464 6.1902C6.41864 6.1902 6.16264 6.0922 5.96764 5.8972L5.96664 5.8962Z" fill="white"/>
</g>
<defs>
<clipPath id="clip0_762_4207">
<rect width="24" height="24" fill="white" transform="translate(0.75293)"/>
</clipPath>
</defs>
</svg>
