<svg width="25" height="24" viewBox="0 0 25 24" fill="none" xmlns="http://www.w3.org/2000/svg">
<g clip-path="url(#clip0_762_4215)">
<path d="M20.7529 0H4.75293C2.54693 0 0.75293 1.794 0.75293 4V5C0.75293 5.886 1.13993 6.684 1.75293 7.234V19C1.75293 21.757 3.99593 24 6.75293 24H9.75293C10.3049 24 10.7529 23.552 10.7529 23C10.7529 22.448 10.3049 22 9.75293 22H6.75293C5.09893 22 3.75293 20.654 3.75293 19V8H21.7529V9C21.7529 9.552 22.2009 10 22.7529 10C23.3049 10 23.7529 9.552 23.7529 9V7.234C24.3659 6.684 24.7529 5.887 24.7529 5V4C24.7529 1.794 22.9589 0 20.7529 0ZM3.75293 6C3.20193 6 2.75293 5.551 2.75293 5V4C2.75293 2.897 3.64993 2 4.75293 2H20.7529C21.8559 2 22.7529 2.897 22.7529 4V5C22.7529 5.551 22.3039 6 21.7529 6H3.75293ZM17.7529 10C13.8929 10 10.7529 13.14 10.7529 17C10.7529 20.86 13.8929 24 17.7529 24C21.6129 24 24.7529 20.86 24.7529 17C24.7529 13.14 21.6129 10 17.7529 10ZM17.7529 22C14.9959 22 12.7529 19.757 12.7529 17C12.7529 14.243 14.9959 12 17.7529 12C20.5099 12 22.7529 14.243 22.7529 17C22.7529 19.757 20.5099 22 17.7529 22ZM20.9739 15.788C21.3569 16.186 21.3439 16.819 20.9449 17.202L18.7329 19.326C18.2799 19.773 17.6809 19.997 17.0799 19.997C16.4789 19.997 15.8759 19.773 15.4159 19.323L14.2839 18.216C13.8889 17.829 13.8829 17.196 14.2689 16.801C14.6569 16.408 15.2899 16.401 15.6839 16.786L16.8159 17.894C16.9599 18.037 17.1939 18.035 17.3379 17.894L19.5609 15.76C19.9589 15.377 20.5919 15.39 20.9749 15.789L20.9739 15.788Z" fill="white"/>
</g>
<defs>
<clipPath id="clip0_762_4215">
<rect width="24" height="24" fill="white" transform="translate(0.75293)"/>
</clipPath>
</defs>
</svg>
