<svg width="1445" height="344" viewBox="0 0 1445 344" fill="none" xmlns="http://www.w3.org/2000/svg">
<path d="M465.76 115.81C474.08 119.84 479.41 127.51 479.41 137.26C479.41 144.54 476.81 150.65 471.74 155.59C466.67 160.53 460.43 163 453.02 163H413.76V72H450.16C457.31 72 463.29 74.34 468.23 79.15C473.17 83.96 475.64 89.81 475.64 96.83C475.64 104.89 472.39 111.26 465.76 115.81ZM450.16 83.31H425.85V111.13H450.16C457.83 111.13 463.68 105.02 463.68 97.22C463.68 93.45 462.38 90.2 459.65 87.47C457.05 84.74 453.93 83.31 450.16 83.31ZM425.85 151.69H453.02C461.21 151.69 467.45 145.19 467.45 136.87C467.45 132.84 466.02 129.33 463.16 126.47C460.43 123.61 457.05 122.18 453.02 122.18H425.85V151.69ZM532.22 46H545.87L532.74 63.16H521.82L532.22 46ZM570.44 163H557.57L550.16 142.59H509.21L501.8 163H488.93L522.86 72H536.51L570.44 163ZM529.62 86.43L513.37 131.28H546L529.62 86.43ZM627.845 164.69C614.065 164.69 602.625 160.14 593.655 151.04C584.685 141.94 580.265 130.76 580.265 117.5C580.265 104.24 584.685 93.06 593.655 83.96C602.625 74.86 614.065 70.31 627.845 70.31C644.485 70.31 659.305 78.89 667.105 92.41L656.575 98.52C651.375 88.51 640.325 82.01 627.845 82.01C617.315 82.01 608.735 85.39 602.105 92.15C595.475 98.91 592.225 107.36 592.225 117.5C592.225 127.51 595.475 135.96 602.105 142.72C608.735 149.48 617.315 152.86 627.845 152.86C640.325 152.86 651.375 146.36 656.575 136.48L667.105 142.46C663.335 149.22 657.875 154.68 650.855 158.71C643.835 162.74 636.165 164.69 627.845 164.69ZM750.859 164.69C733.829 164.69 721.219 156.24 716.409 142.33L726.809 136.35C730.319 147.4 738.509 152.86 751.119 152.86C763.599 152.86 770.359 147.27 770.359 138.82C770.359 134.53 768.669 131.28 765.419 129.07C762.169 126.86 756.579 124.65 748.909 122.18L740.199 119.32C738.249 118.54 735.649 117.37 732.659 115.94C729.669 114.38 727.459 112.82 726.029 111.26C723.039 108.01 720.309 102.68 720.309 96.05C720.309 88.12 723.039 81.88 728.629 77.33C734.219 72.65 740.979 70.31 748.909 70.31C763.339 70.31 774.389 78.24 779.719 90.2L769.579 96.05C765.679 86.69 758.789 82.01 748.909 82.01C739.029 82.01 732.399 87.21 732.399 95.53C732.399 99.56 733.829 102.55 736.689 104.63C739.549 106.71 744.489 108.92 751.509 111.13L756.839 112.82C757.879 113.21 759.439 113.73 761.649 114.64C766.199 116.33 767.239 116.98 770.749 118.93C774.389 120.88 775.559 122.31 777.769 124.91C781.019 128.16 782.319 132.84 782.319 138.56C782.319 146.49 779.459 152.86 773.609 157.67C767.759 162.35 760.219 164.69 750.859 164.69ZM800.535 163V72H812.625V163H800.535ZM796.635 62.51H787.145C787.145 45.09 797.545 42.75 807.165 49.64C813.535 54.84 816.525 54.97 816.525 46.65H826.015C826.015 63.94 815.875 66.28 805.995 59.39C799.755 54.19 796.635 54.06 796.635 62.51ZM914.696 117.89H960.196V123.35C960.196 135.18 956.166 145.06 947.976 152.99C939.786 160.79 928.996 164.69 915.606 164.69C901.696 164.69 890.256 160.14 881.156 151.04C872.186 141.81 867.636 130.63 867.636 117.5C867.636 104.37 872.186 93.19 881.156 84.09C890.256 74.86 901.696 70.31 915.346 70.31C923.796 70.31 931.466 72.39 938.486 76.42C945.506 80.45 950.966 85.65 954.736 92.28L944.336 98.39C939.136 88.51 927.826 82.01 915.216 82.01C904.816 82.01 896.236 85.39 889.606 92.28C882.976 99.04 879.596 107.49 879.596 117.5C879.596 127.51 882.976 135.96 889.606 142.72C896.366 149.48 905.076 152.86 915.736 152.86C933.936 152.86 945.636 142.98 948.106 128.81H914.696V117.89ZM978.798 163V72H990.888V163H978.798ZM1087.11 163H1074.24L1066.83 142.59H1025.88L1018.47 163H1005.6L1039.53 72H1053.18L1087.11 163ZM1046.29 86.43L1030.04 131.28H1062.67L1046.29 86.43ZM1141.39 72H1176.88C1189.23 72 1199.5 76.42 1207.69 85.26C1215.88 93.97 1220.04 104.76 1220.04 117.5C1220.04 130.24 1215.88 141.03 1207.69 149.87C1199.5 158.58 1189.23 163 1176.88 163H1141.39V123.87H1133.2V113.47H1141.39V72ZM1153.48 151.56H1176.88C1186.11 151.56 1193.78 148.31 1199.63 141.81C1205.48 135.31 1208.47 127.25 1208.47 117.5C1208.47 107.75 1205.48 99.69 1199.63 93.19C1193.78 86.69 1186.11 83.44 1176.88 83.44H1153.48V113.47H1176.36V123.87H1153.48V151.56ZM1253.35 63.16L1242.95 46H1229.3L1242.43 63.16H1253.35ZM1238.66 72H1250.75V163H1238.66V72ZM1330.72 139.86V72H1342.81V163H1333.06L1286.26 95.01V163H1274.17V72H1283.92L1330.72 139.86ZM1422.46 110.61V72H1434.42V163H1422.46V122.05H1378.26V163H1366.17V72H1378.26V110.61H1422.46Z" fill="#007983"/>
<path d="M426.943 262.399V275H423.158V262.399L410.06 237.248H414.243L425.001 258.415L436.058 237.248H440.191L426.943 262.399ZM450.892 275V237.248H471.536V240.685H454.678V254.231H470.989V257.668H454.678V271.588H471.536V275H450.892ZM465.485 234.11L461.102 230.375L456.595 234.11H451.963L459.359 227.735H462.721L470.017 234.11H465.485ZM511.323 260.781C511.323 262.192 511.224 263.528 511.025 264.79C510.776 266.268 510.402 267.546 509.904 268.625C507.713 273.323 503.903 275.672 498.474 275.672C493.045 275.672 489.235 273.323 487.044 268.625C486.546 267.546 486.18 266.268 485.948 264.79C485.732 263.528 485.624 262.192 485.624 260.781V237.248H489.409V260.781C489.409 262.009 489.492 263.171 489.658 264.267C489.874 265.662 490.215 266.774 490.679 267.604C492.373 270.692 494.971 272.236 498.474 272.236C501.977 272.236 504.575 270.692 506.268 267.604C506.733 266.774 507.073 265.662 507.289 264.267C507.472 263.171 507.563 262.009 507.563 260.781V237.248H511.323V260.781ZM556.408 240.685V275H552.622V240.685H543.956V237.248H565.024V240.685H556.408ZM599.681 275V257.294H580.158V275H576.372V237.248H580.158V253.883H599.681V237.248H603.441V275H599.681ZM643.975 241.531V260.781C643.975 262.192 643.867 263.528 643.652 264.79C643.419 266.268 643.046 267.546 642.531 268.625C640.356 273.323 636.554 275.672 631.126 275.672C625.697 275.672 621.887 273.323 619.695 268.625C619.197 267.546 618.824 266.268 618.575 264.79C618.376 263.528 618.276 262.192 618.276 260.781V237.248H622.036V260.781C622.036 262.009 622.119 263.171 622.285 264.267C622.518 265.662 622.858 266.774 623.306 267.604C625.016 270.692 627.623 272.236 631.126 272.236C634.629 272.236 637.227 270.692 638.92 267.604C639.385 266.774 639.725 265.662 639.941 264.267C640.107 263.171 640.19 262.009 640.19 260.781V237.248H643.975V238.145C644.606 237.663 644.963 237.082 645.046 236.401H643.427V231.919H648.134V236.551C648.018 237.364 647.81 238.045 647.511 238.593C647.213 239.124 646.847 239.572 646.416 239.938C646.001 240.303 645.635 240.585 645.32 240.784C645.005 240.983 644.556 241.232 643.975 241.531ZM693.375 256.174C693.375 251.741 691.781 247.939 688.593 244.769C685.406 241.598 681.596 240.012 677.163 240.012C672.681 240.012 668.862 241.614 665.708 244.818C662.57 248.022 661.001 251.857 661.001 256.323C661.001 260.673 662.612 264.417 665.833 267.554C669.02 270.675 672.797 272.236 677.163 272.236C681.579 272.236 685.381 270.667 688.568 267.529C691.772 264.392 693.375 260.606 693.375 256.174ZM690.287 241.432C690.602 241.697 690.909 241.979 691.208 242.278C695.176 246.097 697.16 250.712 697.16 256.124C697.16 261.536 695.167 266.16 691.183 269.995C687.265 273.78 682.592 275.672 677.163 275.672C671.817 275.672 667.169 273.796 663.218 270.044C659.217 266.226 657.216 261.652 657.216 256.323C657.216 250.845 659.167 246.18 663.068 242.328C666.953 238.51 671.651 236.601 677.163 236.601C681.064 236.601 684.576 237.572 687.697 239.514C688.062 239.348 688.353 239.215 688.568 239.116C688.9 238.966 689.39 238.651 690.038 238.169C690.685 237.688 691.05 237.099 691.133 236.401H689.515V231.919H694.221V236.551C694.105 237.364 693.897 238.045 693.599 238.593C693.3 239.124 692.935 239.572 692.503 239.938C692.088 240.303 691.723 240.585 691.407 240.784C691.142 240.967 690.768 241.183 690.287 241.432ZM736.573 275L714.186 241.805H714.086V275H710.301V237.248H715.406L736.474 268.575H736.573V237.248H740.333V275H736.573ZM793.593 257.668C793.177 262.798 791.036 267.089 787.168 270.542C783.333 273.962 778.825 275.672 773.646 275.672C768.217 275.672 763.502 273.78 759.501 269.995C755.434 266.143 753.4 261.52 753.4 256.124C753.4 250.679 755.417 246.047 759.451 242.229C763.403 238.477 768.117 236.601 773.596 236.601C779.822 236.601 784.96 238.908 789.01 243.523C790.106 244.752 790.92 246.014 791.451 247.309H787.068C785.773 245.067 783.856 243.274 781.316 241.93C778.875 240.651 776.319 240.012 773.646 240.012C769.147 240.012 765.287 241.581 762.066 244.719C758.812 247.873 757.185 251.691 757.185 256.174C757.185 260.689 758.829 264.508 762.116 267.629C765.37 270.7 769.263 272.236 773.795 272.236C777.198 272.236 780.361 271.198 783.283 269.123C786.304 266.981 788.23 264.3 789.06 261.08H767.993V257.668H793.593ZM825.802 262.35V258.938H839.673V262.35H825.802ZM893.772 264.591C893.772 267.712 892.651 270.343 890.41 272.485C888.202 274.61 885.529 275.672 882.391 275.672C879.021 275.672 876.257 274.643 874.099 272.584C871.924 270.526 870.812 267.812 870.762 264.441H874.547C874.763 269.638 877.378 272.236 882.391 272.236C884.5 272.236 886.284 271.522 887.745 270.094C889.239 268.633 889.987 266.849 889.987 264.74C889.987 262.466 889.098 260.64 887.322 259.262C886.608 258.714 885.712 258.208 884.633 257.743C883.819 257.411 882.798 257.062 881.57 256.697C879.992 256.232 878.731 255.792 877.784 255.377C876.523 254.846 875.485 254.248 874.672 253.584C872.746 251.99 871.783 249.708 871.783 246.736C871.783 243.797 872.82 241.365 874.896 239.439C876.938 237.547 879.436 236.601 882.391 236.601C885.313 236.601 887.779 237.572 889.787 239.514C891.829 241.49 892.85 243.938 892.85 246.86H889.065C889.065 245.001 888.418 243.399 887.123 242.054C885.811 240.693 884.234 240.012 882.391 240.012C880.482 240.012 878.872 240.635 877.56 241.88C876.232 243.125 875.568 244.694 875.568 246.586C875.568 248.778 876.581 250.446 878.606 251.592C879.353 252.007 880.324 252.405 881.52 252.787L884.533 253.684C887.405 254.547 889.621 255.833 891.182 257.543C892.908 259.436 893.772 261.785 893.772 264.591ZM905.743 275V237.248H926.387V240.685H909.528V254.231H925.839V257.668H909.528V271.588H926.387V275H905.743ZM921.406 228.084C921.406 228.848 921.174 229.595 920.709 230.325C920.593 230.508 920.402 230.74 920.136 231.022L919.813 231.371L918.792 232.367C918.592 232.6 918.401 232.849 918.219 233.114C917.92 233.562 917.746 234.285 917.696 235.281H914.533V234.608C914.533 233.762 914.766 232.94 915.23 232.143C915.363 231.911 915.587 231.612 915.903 231.247C916.036 231.097 916.251 230.881 916.55 230.599L917.223 229.952C917.439 229.719 917.638 229.487 917.82 229.254C918.086 228.889 918.219 228.482 918.219 228.034C918.219 227.337 918.003 226.789 917.571 226.391C917.09 225.942 916.584 225.718 916.052 225.718C915.289 225.718 914.674 226.067 914.21 226.764C914.043 227.013 913.936 227.295 913.886 227.611C913.853 227.793 913.836 228.3 913.836 229.13H910.624V228.159C910.624 226.814 911.18 225.619 912.292 224.573C913.321 223.626 914.591 223.153 916.102 223.153C917.646 223.153 918.899 223.618 919.862 224.548C920.892 225.561 921.406 226.739 921.406 228.084ZM997.27 265.114C993.435 272.153 987.641 275.672 979.888 275.672C974.443 275.672 969.794 273.788 965.943 270.02C962.074 266.218 960.14 261.603 960.14 256.174C960.14 250.679 962.05 246.047 965.868 242.278C969.67 238.526 974.326 236.65 979.838 236.65C985.798 236.65 990.762 238.892 994.73 243.374C995.825 244.603 996.622 245.798 997.12 246.96H992.887C989.799 242.361 985.425 240.062 979.763 240.062C975.464 240.062 971.737 241.689 968.582 244.943C965.478 248.147 963.926 251.907 963.926 256.224C963.926 260.474 965.511 264.201 968.682 267.405C971.869 270.625 975.588 272.236 979.838 272.236C982.478 272.236 984.96 271.588 987.284 270.293C989.442 269.065 991.36 267.338 993.036 265.114H997.27ZM1033.74 275V257.294H1014.22V275H1010.44V237.248H1014.22V253.883H1033.74V237.248H1037.51V275H1033.74ZM1052.39 275V237.248H1056.17V275H1052.39ZM1100.22 275L1094.74 262.3H1077.21L1071.71 275H1067.77L1083.88 237.248H1088.12L1104.33 275H1100.22ZM1086.03 241.556L1078.63 258.888H1093.27L1086.03 241.556ZM1134.87 262.35V258.938H1148.74V262.35H1134.87ZM1220.92 257.668C1220.5 262.798 1218.36 267.089 1214.49 270.542C1210.66 273.962 1206.15 275.672 1200.97 275.672C1195.54 275.672 1190.83 273.78 1186.83 269.995C1182.76 266.143 1180.73 261.52 1180.73 256.124C1180.73 250.679 1182.74 246.047 1186.78 242.229C1190.73 238.477 1195.44 236.601 1200.92 236.601C1207.15 236.601 1212.29 238.908 1216.34 243.523C1217.43 244.752 1218.25 246.014 1218.78 247.309H1214.39C1213.1 245.067 1211.18 243.274 1208.64 241.93C1206.2 240.651 1203.64 240.012 1200.97 240.012C1196.47 240.012 1192.61 241.581 1189.39 244.719C1186.14 247.873 1184.51 251.691 1184.51 256.174C1184.51 260.689 1186.16 264.508 1189.44 267.629C1192.7 270.7 1196.59 272.236 1201.12 272.236C1204.52 272.236 1207.69 271.198 1210.61 269.123C1213.63 266.981 1215.56 264.3 1216.39 261.08H1195.32V257.668H1220.92ZM1263.37 275L1257.89 262.3H1240.36L1234.86 275H1230.92L1247.03 237.248H1251.27L1267.48 275H1263.37ZM1249.18 241.556L1241.78 258.888H1256.42L1249.18 241.556ZM1249.57 230.101L1247.88 227.163L1258.04 221.584L1259.66 224.647L1249.57 230.101ZM1258.12 229.603C1257.45 231.446 1256.27 232.815 1254.58 233.712C1253.1 234.476 1251.31 234.857 1249.2 234.857C1247.08 234.857 1245.29 234.476 1243.85 233.712C1242.17 232.832 1240.99 231.462 1240.31 229.603H1243.65C1244.79 231.164 1246.64 231.944 1249.2 231.944C1250.33 231.944 1251.36 231.77 1252.29 231.421C1253.37 231.022 1254.21 230.417 1254.8 229.603H1258.12ZM1305.3 275L1282.91 241.805H1282.81V275H1279.03V237.248H1284.13L1305.2 268.575H1305.3V237.248H1309.06V275H1305.3ZM1366.77 275L1354.17 258.639L1349.29 264.641V275H1345.5V237.248H1349.29V258.938H1349.39L1366.67 237.248H1371.5L1356.56 255.676L1371.5 275H1366.77ZM1382.23 275V237.248H1402.87V240.685H1386.01V254.231H1402.32V257.668H1386.01V271.588H1402.87V275H1382.23ZM1398.94 230.35L1397.24 227.412L1407.4 221.833L1409.02 224.896L1398.94 230.35ZM1396.82 234.11L1392.44 230.375L1387.93 234.11H1383.3L1390.69 227.735H1394.05L1401.35 234.11H1396.82ZM1425.9 240.685V275H1422.11V240.685H1413.45V237.248H1434.51V240.685H1425.9Z" fill="black"/>
<path fill-rule="evenodd" clip-rule="evenodd" d="M191.976 68.8753C177.348 77.8485 151.912 59.6514 143.95 72.4875C139.864 80.6938 146.028 115.741 155.488 140.51C140.416 117.984 118.306 69.6637 138.431 57.0354C154.485 48.8507 172.023 68.9757 191.969 68.8753" fill="#FFC800"/>
<path opacity="0.5" fill-rule="evenodd" clip-rule="evenodd" d="M156.255 74.0712C150.973 78.4718 149.31 87.9896 151.195 102.531C147.777 92.4761 145.956 83.1017 148.673 75.6623C151.074 73.806 153.618 73.4692 156.255 74.064" fill="#FFC800"/>
<path fill-rule="evenodd" clip-rule="evenodd" d="M191.259 132.267C207.063 116.744 229.617 48.8647 195.588 46.9941C184.845 48.0549 175.535 56.0174 165.501 58.232C174.309 61.0988 185.554 55.7164 193.252 56.8201C209.349 60.9125 204.977 96.7906 191.252 132.275" fill="#007983"/>
<path fill-rule="evenodd" clip-rule="evenodd" d="M151.747 283.127C166.375 274.153 191.811 292.351 199.774 279.514C203.859 271.308 197.695 236.261 188.235 211.492C203.307 234.011 225.417 282.338 205.292 294.967C189.238 303.151 171.7 283.026 151.754 283.119" fill="#FFC800"/>
<path opacity="0.5" fill-rule="evenodd" clip-rule="evenodd" d="M187.475 277.923C192.757 273.523 194.42 264.005 192.535 249.463C195.954 259.518 197.774 268.893 195.058 276.332C192.657 278.188 190.113 278.525 187.475 277.93" fill="#FFC800"/>
<path fill-rule="evenodd" clip-rule="evenodd" d="M152.464 219.734C136.661 235.258 114.106 303.136 148.128 305.007C158.871 303.946 168.181 295.984 178.215 293.769C169.407 290.902 158.162 296.285 150.464 295.181C134.367 291.089 138.739 255.21 152.464 219.727" fill="#007983"/>
<path fill-rule="evenodd" clip-rule="evenodd" d="M278.991 196.111C270.017 181.484 288.215 156.048 275.378 148.085C267.172 144 232.125 150.164 207.356 159.624C229.882 144.552 278.202 122.442 290.831 142.567C299.015 158.621 278.89 176.158 278.991 196.104" fill="#FFC800"/>
<path opacity="0.5" fill-rule="evenodd" clip-rule="evenodd" d="M273.787 160.391C269.387 155.109 259.869 153.446 245.327 155.331C255.382 151.912 264.757 150.092 272.196 152.808C274.053 155.209 274.389 157.753 273.787 160.391Z" fill="#FFC800"/>
<path fill-rule="evenodd" clip-rule="evenodd" d="M215.598 195.395C231.122 211.198 299.001 233.753 300.872 199.731C299.811 188.987 291.848 179.677 289.634 169.644C286.767 178.452 292.149 189.697 291.046 197.394C286.953 213.491 251.075 209.12 215.591 195.395" fill="#007983"/>
<path fill-rule="evenodd" clip-rule="evenodd" d="M64.7396 155.883C73.7127 170.511 55.5156 195.946 68.3518 203.909C76.558 207.994 111.605 201.831 136.374 192.37C113.855 207.442 65.528 229.553 52.8997 209.428C44.7149 193.374 64.8399 175.836 64.7396 155.89" fill="#FFC800"/>
<path opacity="0.5" fill-rule="evenodd" clip-rule="evenodd" d="M69.9357 191.61C74.3363 196.892 83.8541 198.555 98.396 196.67C88.3406 200.089 78.9662 201.909 71.5268 199.193C69.6705 196.792 69.3337 194.248 69.9285 191.61" fill="#FFC800"/>
<path fill-rule="evenodd" clip-rule="evenodd" d="M128.132 156.599C112.608 140.796 44.7292 118.241 42.8586 152.263C43.9194 163.007 51.8819 172.317 54.0965 182.35C56.9634 173.542 51.5809 162.297 52.6846 154.6C56.777 138.503 92.6551 142.874 128.139 156.599" fill="#007983"/>
<mask id="mask0_4229_5208" style="mask-type:alpha" maskUnits="userSpaceOnUse" x="0" y="0" width="345" height="345">
<path fill-rule="evenodd" clip-rule="evenodd" d="M140.187 14.6709C122.685 14.6709 108.373 28.9906 108.373 46.4853V108.373H46.4853C28.9834 108.373 14.6709 122.692 14.6709 140.187V203.823C14.6709 221.325 28.9906 235.637 46.4853 235.637H108.373V297.525C108.373 315.027 122.692 329.339 140.187 329.339H203.823C221.325 329.339 235.637 315.019 235.637 297.525V235.637H297.525C315.027 235.637 329.339 221.318 329.339 203.823V140.187C329.339 122.685 315.019 108.373 297.525 108.373H235.637V46.4853C235.637 28.9834 221.318 14.6709 203.823 14.6709H140.187ZM140.187 0H203.823C229.424 0 250.308 20.8919 250.308 46.4853V93.7017H297.525C323.125 93.7017 344.01 114.594 344.01 140.187V203.823C344.01 229.424 323.118 250.308 297.525 250.308H250.308V297.525C250.308 323.125 229.416 344.01 203.823 344.01H140.187C114.594 344.01 93.7017 323.118 93.7017 297.525V250.308H46.4853C20.8847 250.308 0 229.416 0 203.823V140.187C0 114.586 20.8919 93.7017 46.4853 93.7017H93.7017V46.4853C93.7017 20.8919 114.594 0 140.187 0Z" fill="#007983"/>
</mask>
<g mask="url(#mask0_4229_5208)">
<path fill-rule="evenodd" clip-rule="evenodd" d="M140.738 17.4146C123.542 17.4146 109.479 31.4841 109.479 48.6732V109.479H48.6732C31.4771 109.479 17.4146 123.549 17.4146 140.738V203.262C17.4146 220.458 31.4841 234.521 48.6732 234.521H109.479V295.327C109.479 312.523 123.549 326.585 140.738 326.585H203.262C220.458 326.585 234.521 312.516 234.521 295.327V234.521H295.327C312.523 234.521 326.585 220.451 326.585 203.262V140.738C326.585 123.542 312.516 109.479 295.327 109.479H234.521V48.6732C234.521 31.4771 220.451 17.4146 203.262 17.4146H140.738ZM140.738 3H203.262C228.416 3 248.935 23.5269 248.935 48.6732V95.0647H295.327C320.48 95.0647 341 115.592 341 140.738V203.262C341 228.416 320.473 248.935 295.327 248.935H248.935V295.327C248.935 320.48 228.408 341 203.262 341H140.738C115.592 341 95.0647 320.473 95.0647 295.327V248.935H48.6732C23.5198 248.935 3 228.408 3 203.262V140.738C3 115.585 23.5269 95.0647 48.6732 95.0647H95.0647V48.6732C95.0647 23.5269 115.592 3 140.738 3Z" fill="#007983"/>
</g>
</svg>
