<svg width="17" height="16" viewBox="0 0 17 16" fill="none" xmlns="http://www.w3.org/2000/svg">
<g clip-path="url(#clip0_762_4262)">
<path d="M13.4193 5.33333V4.66667C13.4193 3.42899 12.9276 2.242 12.0524 1.36684C11.1773 0.491665 9.99028 0 8.7526 0C7.51493 0 6.32794 0.491665 5.45277 1.36684C4.5776 2.242 4.08594 3.42899 4.08594 4.66667V5.33333H2.08594V14C2.08594 14.5304 2.29665 15.0391 2.67172 15.4142C3.0468 15.7893 3.5555 16 4.08594 16H13.4193C13.9497 16 14.4584 15.7893 14.8335 15.4142C15.2086 15.0391 15.4193 14.5304 15.4193 14V5.33333H13.4193ZM9.41927 12H8.08594V9.33333H9.41927V12ZM12.0859 5.33333H5.41927V4.66667C5.41927 3.78261 5.77046 2.93477 6.39558 2.30964C7.0207 1.68452 7.86855 1.33333 8.7526 1.33333C9.63666 1.33333 10.4845 1.68452 11.1096 2.30964C11.7347 2.93477 12.0859 3.78261 12.0859 4.66667V5.33333Z" fill="#FF0019" fill-opacity="0.97"/>
</g>
<defs>
<clipPath id="clip0_762_4262">
<rect width="16" height="16" fill="white" transform="translate(0.75293)"/>
</clipPath>
</defs>
</svg>
