<svg width="17" height="16" viewBox="0 0 17 16" fill="none" xmlns="http://www.w3.org/2000/svg">
<g clip-path="url(#clip0_762_4274)">
<path d="M2.75293 2H6.08626V0H2.75293C2.2225 0 1.71379 0.210714 1.33872 0.585786C0.963643 0.960859 0.75293 1.46957 0.75293 2L0.75293 14C0.75293 14.5304 0.963643 15.0391 1.33872 15.4142C1.71379 15.7893 2.2225 16 2.75293 16H6.08626V14H2.75293V2Z" fill="#36A100"/>
<path d="M16.0513 6.3503L12.9939 3.29297L11.5799 4.70764L13.8553 6.9823L4.08594 7.0003V9.0003L13.8859 8.9823L11.5753 11.293L12.9893 12.7076L16.0473 9.6503C16.4845 9.21272 16.7304 8.61968 16.7311 8.00113C16.7319 7.38257 16.4874 6.78894 16.0513 6.3503Z" fill="#36A100"/>
</g>
<defs>
<clipPath id="clip0_762_4274">
<rect width="16" height="16" fill="white" transform="translate(0.75293)"/>
</clipPath>
</defs>
</svg>
