<svg width="17" height="16" viewBox="0 0 17 16" fill="none" xmlns="http://www.w3.org/2000/svg">
<g clip-path="url(#clip0_762_4287)">
<path d="M16.7529 6.33333C16.7545 5.91539 16.6438 5.5047 16.4324 5.14417C16.221 4.78365 15.9166 4.48652 15.5511 4.28385C15.1856 4.08118 14.7723 3.98041 14.3546 3.99206C13.9368 4.00372 13.5298 4.12737 13.1761 4.3501C12.8225 4.57283 12.5352 4.88646 12.3442 5.25821C12.1532 5.62996 12.0655 6.04618 12.0904 6.46339C12.1153 6.88059 12.2518 7.28345 12.4856 7.62987C12.7194 7.97629 13.042 8.25355 13.4196 8.43267V10.6667C13.4196 11.5507 13.0684 12.3986 12.4433 13.0237C11.8182 13.6488 10.9703 14 10.0863 14C9.20221 14 8.35436 13.6488 7.72924 13.0237C7.10412 12.3986 6.75293 11.5507 6.75293 10.6667V10.566C7.88143 10.334 8.89545 9.72002 9.62408 8.82757C10.3527 7.93513 10.7514 6.81877 10.7529 5.66667V3.66667C10.7519 2.69453 10.3652 1.76252 9.67782 1.07511C8.99041 0.387707 8.0584 0.00105878 7.08626 0C6.82105 0 6.56669 0.105357 6.37916 0.292893C6.19162 0.48043 6.08626 0.734784 6.08626 1C6.08626 1.26522 6.19162 1.51957 6.37916 1.70711C6.56669 1.89464 6.82105 2 7.08626 2C7.30513 2 7.52186 2.04311 7.72407 2.12687C7.92628 2.21063 8.11001 2.33339 8.26477 2.48816C8.41954 2.64292 8.5423 2.82665 8.62606 3.02886C8.70982 3.23107 8.75293 3.4478 8.75293 3.66667V5.66667C8.75293 6.46232 8.43686 7.22538 7.87425 7.78799C7.31164 8.3506 6.54858 8.66667 5.75293 8.66667C4.95728 8.66667 4.19422 8.3506 3.63161 7.78799C3.069 7.22538 2.75293 6.46232 2.75293 5.66667V3.66667C2.75293 3.22464 2.92852 2.80072 3.24109 2.48816C3.55365 2.17559 3.97757 2 4.4196 2C4.68481 2 4.93917 1.89464 5.1267 1.70711C5.31424 1.51957 5.4196 1.26522 5.4196 1C5.4196 0.734784 5.31424 0.48043 5.1267 0.292893C4.93917 0.105357 4.68481 0 4.4196 0C3.44746 0.00105878 2.51544 0.387707 1.82804 1.07511C1.14064 1.76252 0.753988 2.69453 0.75293 3.66667L0.75293 5.66667C0.754475 6.81877 1.15316 7.93513 1.88178 8.82757C2.61041 9.72002 3.62443 10.334 4.75293 10.566V10.6667C4.75293 12.0812 5.31483 13.4377 6.31503 14.4379C7.31522 15.4381 8.67178 16 10.0863 16C11.5008 16 12.8573 15.4381 13.8575 14.4379C14.8577 13.4377 15.4196 12.0812 15.4196 10.6667V8.43267C15.8172 8.24408 16.1533 7.9469 16.3893 7.57544C16.6252 7.20398 16.7513 6.77338 16.7529 6.33333Z" fill="#1470F5"/>
</g>
<defs>
<clipPath id="clip0_762_4287">
<rect width="16" height="16" fill="white" transform="translate(0.75293)"/>
</clipPath>
</defs>
</svg>
