<svg width="184" height="165" viewBox="0 0 184 165" fill="none" xmlns="http://www.w3.org/2000/svg">
<g clip-path="url(#clip0_1721_3485)">
<mask id="mask0_1721_3485" style="mask-type:luminance" maskUnits="userSpaceOnUse" x="0" y="0" width="185" height="159">
<path d="M92.0012 158.919C142.812 158.919 184.002 123.343 184.002 79.4593C184.002 35.5751 142.812 0 92.0012 0C41.1903 0 0 35.5751 0 79.4593C0 123.343 41.1903 158.919 92.0012 158.919Z" fill="white"/>
</mask>
<g mask="url(#mask0_1721_3485)">
<path d="M184 79.4593C184 123.345 142.81 158.919 91.9988 158.919C41.1874 158.919 0 123.345 0 79.4593C0 35.5738 41.1898 88.2933 92.0012 88.2933C142.813 88.2933 184.002 35.5761 184.002 79.4593H184Z" fill="url(#paint0_linear_1721_3485)"/>
<path d="M125.897 159.097H39.4133C35.4215 159.097 32.2839 155.677 32.6148 151.689L40.6359 55.2792C40.9316 51.7338 43.8861 49.0095 47.4344 49.0095H115.86L125.897 159.1V159.097Z" fill="url(#paint1_linear_1721_3485)"/>
<path d="M40.5256 56.5942L48.6711 65.6753L65.0138 49.0071H47.4344C43.8862 49.0071 40.9316 51.7338 40.6359 55.2768L40.5256 56.5942Z" fill="url(#paint2_linear_1721_3485)"/>
<path d="M65.0138 49.0071V165H48.6711V65.6753L65.0138 49.0071Z" fill="url(#paint3_linear_1721_3485)"/>
<path d="M68.5786 60.3373C67.3911 60.3373 66.429 59.3727 66.429 58.1823V40.1331C66.429 30.0452 74.6167 21.8369 84.6795 21.8369C85.8669 21.8369 86.8291 22.8015 86.8291 23.9919C86.8291 25.1823 85.8669 26.1469 84.6795 26.1469C76.9892 26.1469 70.7305 32.4189 70.7305 40.1308V58.18C70.7305 59.3704 69.7683 60.3349 68.5809 60.3349L68.5786 60.3373Z" fill="url(#paint4_linear_1721_3485)"/>
<path d="M141.82 159.097H55.3945L56.8284 49.0071H133.031C136.559 49.0071 139.504 51.7032 139.825 55.225L148.614 151.635C148.98 155.641 145.833 159.097 141.82 159.097Z" fill="url(#paint5_linear_1721_3485)"/>
<path d="M118.496 61.2095C120.164 59.5374 120.164 56.8264 118.496 55.1542C116.828 53.4821 114.124 53.4821 112.456 55.1542C110.788 56.8264 110.788 59.5374 112.456 61.2095C114.124 62.8817 116.828 62.8817 118.496 61.2095Z" fill="url(#paint6_linear_1721_3485)"/>
<path d="M84.9104 62.1371C87.0897 61.2321 88.1246 58.7275 87.2219 56.5427C86.3192 54.358 83.8208 53.3205 81.6415 54.2255C79.4622 55.1304 78.4273 57.6351 79.33 59.8198C80.2327 62.0046 82.7311 63.042 84.9104 62.1371Z" fill="url(#paint7_linear_1721_3485)"/>
<path d="M115.475 60.3373C114.288 60.3373 113.326 59.3727 113.326 58.1823V40.1331C113.326 32.4213 107.067 26.1492 99.3768 26.1492C91.6866 26.1492 85.4279 32.4213 85.4279 40.1331V58.1823C85.4279 59.3727 84.4657 60.3373 83.2783 60.3373C82.0908 60.3373 81.1287 59.3727 81.1287 58.1823V40.1331C81.1287 30.0452 89.3164 21.8369 99.3792 21.8369C109.442 21.8369 117.63 30.0428 117.63 40.1331V58.1823C117.63 59.3727 116.668 60.3373 115.48 60.3373H115.475Z" fill="url(#paint8_linear_1721_3485)"/>
<path d="M88.3403 98.0896C90.3622 98.0896 92.0012 96.4465 92.0012 94.4196C92.0012 92.3927 90.3622 90.7495 88.3403 90.7495C86.3185 90.7495 84.6794 92.3927 84.6794 94.4196C84.6794 96.4465 86.3185 98.0896 88.3403 98.0896Z" fill="url(#paint9_linear_1721_3485)"/>
<path d="M111.204 98.0896C113.226 98.0896 114.865 96.4465 114.865 94.4196C114.865 92.3927 113.226 90.7495 111.204 90.7495C109.182 90.7495 107.543 92.3927 107.543 94.4196C107.543 96.4465 109.182 98.0896 111.204 98.0896Z" fill="url(#paint10_linear_1721_3485)"/>
<path d="M113.34 130.49C112.113 130.49 111.118 129.492 111.118 128.262C111.118 125.641 106.734 122.721 100.442 122.721C94.1508 122.721 89.7694 125.641 89.7694 128.262C89.7694 129.492 88.7744 130.49 87.5471 130.49C86.3197 130.49 85.3247 129.492 85.3247 128.262C85.3247 122.655 91.9659 118.263 100.445 118.263C108.923 118.263 115.565 122.655 115.565 128.262C115.565 129.492 114.57 130.49 113.342 130.49H113.34Z" fill="url(#paint11_linear_1721_3485)"/>
<path d="M150.477 30.2498C139.405 30.2498 130.429 39.2485 130.429 50.3481C130.429 54.244 131.553 57.8693 133.468 60.9513L128.127 70.4464L141.691 68.4184L141.634 68.369C144.303 69.6865 147.297 70.4487 150.472 70.4487C161.544 70.4487 170.52 61.45 170.52 50.3504C170.52 39.2508 161.544 30.2521 150.472 30.2521L150.477 30.2498Z" fill="#FFC800"/>
<path d="M150.834 37.757C152.58 37.757 154.084 38.1852 155.346 39.0439C156.609 39.9026 157.585 41.2153 158.273 42.9798C158.96 44.7466 159.305 47.2051 159.305 50.3552C159.305 53.5053 158.956 56.0179 158.256 57.7871C157.557 59.5586 156.616 60.8596 155.436 61.6901C154.255 62.5205 152.763 62.9369 150.965 62.9369C149.168 62.9369 147.654 62.5182 146.429 61.683C145.204 60.8455 144.244 59.5751 143.552 57.8694C142.857 56.1638 142.512 53.7335 142.512 50.5834C142.512 46.1817 143.19 42.9939 144.544 41.0154C146.051 38.8415 148.149 37.7546 150.836 37.7546L150.834 37.757ZM150.939 42.0928C150.172 42.0928 149.489 42.3399 148.895 42.8339C148.302 43.328 147.846 44.1796 147.532 45.3841C147.22 46.591 147.063 48.3555 147.063 50.6822C147.063 53.7147 147.422 55.8085 148.142 56.966C148.862 58.1235 149.794 58.7022 150.942 58.7022C152.089 58.7022 152.922 58.1541 153.57 57.0554C154.361 55.7285 154.755 53.5124 154.755 50.4046C154.755 47.2968 154.401 45.0807 153.692 43.8855C152.983 42.6904 152.066 42.0928 150.942 42.0928H150.939Z" fill="white"/>
</g>
</g>
<defs>
<linearGradient id="paint0_linear_1721_3485" x1="0" y1="110.464" x2="184" y2="110.464" gradientUnits="userSpaceOnUse">
<stop stop-color="#007983"/>
<stop offset="1" stop-color="#F1FAFE"/>
</linearGradient>
<linearGradient id="paint1_linear_1721_3485" x1="32.589" y1="104.051" x2="125.897" y2="104.051" gradientUnits="userSpaceOnUse">
<stop stop-color="#007983"/>
<stop offset="1" stop-color="#AFD3F0"/>
</linearGradient>
<linearGradient id="paint2_linear_1721_3485" x1="40.5256" y1="57.34" x2="65.0138" y2="57.34" gradientUnits="userSpaceOnUse">
<stop stop-color="#B6D7E3"/>
<stop offset="0.99" stop-color="#007983"/>
</linearGradient>
<linearGradient id="paint3_linear_1721_3485" x1="48.6711" y1="107.004" x2="65.0138" y2="107.004" gradientUnits="userSpaceOnUse">
<stop stop-color="#A2D1E2"/>
<stop offset="1" stop-color="#007983"/>
</linearGradient>
<linearGradient id="paint4_linear_1721_3485" x1="66.429" y1="41.0859" x2="86.8291" y2="41.0859" gradientUnits="userSpaceOnUse">
<stop stop-color="#B6D7E3"/>
<stop offset="1" stop-color="#007983"/>
</linearGradient>
<linearGradient id="paint5_linear_1721_3485" x1="55.3945" y1="104.051" x2="148.642" y2="104.051" gradientUnits="userSpaceOnUse">
<stop stop-color="#E9F7FE"/>
<stop offset="1" stop-color="#DFF3FD"/>
</linearGradient>
<linearGradient id="paint6_linear_1721_3485" x1="115.474" y1="62.4628" x2="115.474" y2="53.9017" gradientUnits="userSpaceOnUse">
<stop stop-color="#B6D7E3"/>
<stop offset="0.99" stop-color="#007983"/>
</linearGradient>
<linearGradient id="paint7_linear_1721_3485" x1="83.2755" y1="62.4618" x2="83.2755" y2="53.9007" gradientUnits="userSpaceOnUse">
<stop stop-color="#B6D7E3"/>
<stop offset="0.04" stop-color="#B0D5E3"/>
<stop offset="0.26" stop-color="#96CDE7"/>
<stop offset="0.49" stop-color="#84C7EA"/>
<stop offset="0.73" stop-color="#79C4EC"/>
<stop offset="0.99" stop-color="#76C3ED"/>
</linearGradient>
<linearGradient id="paint8_linear_1721_3485" x1="81.1263" y1="41.0859" x2="117.625" y2="41.0859" gradientUnits="userSpaceOnUse">
<stop stop-color="#B6D7E3"/>
<stop offset="1" stop-color="#007983"/>
</linearGradient>
<linearGradient id="paint9_linear_1721_3485" x1="84.6794" y1="94.4196" x2="92.0012" y2="94.4196" gradientUnits="userSpaceOnUse">
<stop stop-color="#007983"/>
<stop offset="1" stop-color="#AFD3F0"/>
</linearGradient>
<linearGradient id="paint10_linear_1721_3485" x1="107.543" y1="94.4196" x2="114.865" y2="94.4196" gradientUnits="userSpaceOnUse">
<stop stop-color="#007983"/>
<stop offset="1" stop-color="#AFD3F0"/>
</linearGradient>
<linearGradient id="paint11_linear_1721_3485" x1="85.3247" y1="124.375" x2="115.562" y2="124.375" gradientUnits="userSpaceOnUse">
<stop stop-color="#007983"/>
<stop offset="1" stop-color="#C4D8E0"/>
</linearGradient>
<clipPath id="clip0_1721_3485">
<rect width="184" height="165" fill="white"/>
</clipPath>
</defs>
</svg>
