<svg width="17" height="16" viewBox="0 0 17 16" fill="none" xmlns="http://www.w3.org/2000/svg">
<path d="M14.2074 2.78773C13.3136 2.69263 12.434 2.49382 11.5863 2.19531C10.8083 1.92044 10.0621 1.56293 9.36035 1.1289C9.17724 1.01776 8.96714 0.958984 8.75293 0.958984C8.53872 0.958984 8.32862 1.01776 8.14551 1.1289L8.14484 1.12957C7.44327 1.56324 6.69727 1.92052 5.9196 2.19531C5.07205 2.49376 4.19266 2.69258 3.29916 2.78775C3.01214 2.81715 2.74625 2.952 2.55296 3.16621C2.35968 3.38041 2.25277 3.65872 2.25293 3.94724V7.41078C2.2534 8.68869 2.59538 9.94325 3.24347 11.0446C3.89157 12.146 4.82223 13.0542 5.93913 13.6751L8.18587 14.9238C8.3589 15.0211 8.55408 15.0722 8.7526 15.0722C8.95113 15.0722 9.1463 15.0211 9.31934 14.9238L11.5667 13.6751C12.6836 13.0542 13.6143 12.146 14.2624 11.0446C14.9105 9.94325 15.2525 8.68869 15.2529 7.41078V3.94724C15.2531 3.65882 15.1463 3.38058 14.9532 3.16639C14.76 2.95219 14.4943 2.81727 14.2074 2.78773ZM11.4059 6.78907L8.90592 9.45573C8.78721 9.58262 8.6236 9.65808 8.45002 9.66598C8.27644 9.67389 8.10664 9.61362 7.97689 9.49805L6.47689 8.16472C6.3448 8.04731 6.26476 7.88223 6.25438 7.70581C6.24401 7.52938 6.30414 7.35606 6.42155 7.22397C6.53896 7.09188 6.70404 7.01184 6.88047 7.00146C7.05689 6.99108 7.23021 7.05121 7.3623 7.16863L8.37728 8.07032L10.4333 5.87761C10.4957 5.81115 10.571 5.75814 10.6546 5.72186C10.7383 5.68558 10.8284 5.66679 10.9196 5.66664C11.0496 5.66671 11.1767 5.70476 11.2853 5.77612C11.3939 5.84748 11.4793 5.94903 11.531 6.06828C11.5827 6.18753 11.5984 6.31929 11.5761 6.44734C11.5539 6.5754 11.4948 6.6942 11.4059 6.78907Z" fill="#007983"/>
</svg>
