<svg width="25" height="24" viewBox="0 0 25 24" fill="none" xmlns="http://www.w3.org/2000/svg">
<g clip-path="url(#clip0_762_4211)">
<path d="M19.7529 5H17.6759C17.3399 3.097 15.9229 1.526 14.0019 1.032C13.4729 0.895 12.9229 1.217 12.7839 1.751C12.6459 2.286 12.9689 2.831 13.5039 2.968C14.8279 3.309 15.7529 4.504 15.7529 5.874V17H4.75293C3.64993 17 2.75293 16.103 2.75293 15V11H5.25293C5.80593 11 6.25293 10.552 6.25293 10C6.25293 9.448 5.80593 9 5.25293 9H2.75293C1.64993 9 0.75293 9.897 0.75293 11V15C0.75293 16.88 2.05693 18.461 3.80793 18.887C3.77193 19.088 3.75293 19.293 3.75293 19.5C3.75293 21.43 5.32293 23 7.25293 23C9.18293 23 10.7529 21.43 10.7529 19.5C10.7529 19.331 10.7399 19.165 10.7159 19H14.7899C14.7659 19.165 14.7529 19.331 14.7529 19.5C14.7529 21.43 16.3229 23 18.2529 23C20.1829 23 21.7529 21.43 21.7529 19.5C21.7529 19.293 21.7339 19.088 21.6979 18.887C23.4489 18.461 24.7529 16.88 24.7529 15V10C24.7529 7.243 22.5099 5 19.7529 5ZM22.7529 10V11H17.7529V7H19.7529C21.4069 7 22.7529 8.346 22.7529 10ZM8.75293 19.5C8.75293 20.327 8.07993 21 7.25293 21C6.42593 21 5.75293 20.327 5.75293 19.5C5.75293 19.311 5.78993 19.144 5.84393 19H8.66293C8.71693 19.144 8.75393 19.311 8.75393 19.5H8.75293ZM18.2529 21C17.4259 21 16.7529 20.327 16.7529 19.5C16.7529 19.311 16.7899 19.144 16.8439 19H19.6629C19.7169 19.144 19.7539 19.311 19.7539 19.5C19.7539 20.327 19.0799 21 18.2529 21ZM20.7529 17H17.7529V13H22.7529V15C22.7529 16.103 21.8559 17 20.7529 17ZM0.75293 2C0.75293 1.448 1.19993 1 1.75293 1H9.90693C10.4599 1 10.9069 1.448 10.9069 2C10.9069 2.552 10.4599 3 9.90693 3H1.75293C1.19993 3 0.75293 2.552 0.75293 2ZM0.75293 6C0.75293 5.448 1.19993 5 1.75293 5H7.90693C8.45993 5 8.90693 5.448 8.90693 6C8.90693 6.552 8.45993 7 7.90693 7H1.75293C1.19993 7 0.75293 6.552 0.75293 6Z" fill="white"/>
</g>
<defs>
<clipPath id="clip0_762_4211">
<rect width="24" height="24" fill="white" transform="translate(0.75293)"/>
</clipPath>
</defs>
</svg>
