<svg width="20" height="21" viewBox="0 0 20 21" fill="none" xmlns="http://www.w3.org/2000/svg">
<g clip-path="url(#clip0_1152_172)">
<path d="M18.4251 13.2711L19.0001 9.24944C19.0597 8.83213 19.0343 8.40707 18.9254 7.99984C18.8164 7.5926 18.6262 7.21162 18.3662 6.87981C18.1062 6.54801 17.7817 6.27224 17.4124 6.06911C17.043 5.86598 16.6363 5.73968 16.2168 5.69782L6.31259 4.70719C6.14763 4.69062 5.98284 4.74025 5.85447 4.84518C5.7261 4.95011 5.64467 5.10173 5.62809 5.2667C5.61152 5.43166 5.66115 5.59645 5.76608 5.72482C5.87101 5.85319 6.02263 5.93462 6.18759 5.95119L16.0926 6.9417C16.3443 6.96681 16.5882 7.04257 16.8099 7.16444C17.0315 7.2863 17.2261 7.45174 17.3822 7.6508C17.5382 7.84985 17.6523 8.07842 17.7177 8.32274C17.7831 8.56705 17.7983 8.82207 17.7626 9.07244L17.1876 13.0941C17.1221 13.5401 16.8989 13.9478 16.5585 14.2433C16.218 14.5387 15.7829 14.7022 15.3321 14.7042H7.26259C6.79733 14.7054 6.34833 14.5331 6.00338 14.2209C5.65843 13.9087 5.44234 13.479 5.39734 13.0159L4.50859 4.13782C4.45748 3.61258 4.27351 3.109 3.97403 2.6745C3.67454 2.24 3.26938 1.88887 2.79672 1.65419L1.52959 1.02007C1.3813 0.945942 1.20964 0.933758 1.05237 0.986197C0.895096 1.03864 0.765096 1.15141 0.690968 1.29969C0.61684 1.44798 0.604656 1.61965 0.657096 1.77692C0.709536 1.93419 0.822304 2.06419 0.970593 2.13832L2.23759 2.77182C2.52129 2.91267 2.76448 3.12339 2.9443 3.38413C3.12411 3.64488 3.23464 3.94709 3.26547 4.26232L4.15409 13.1398C4.19531 13.5539 4.31949 13.9555 4.51921 14.3206C4.71893 14.6856 4.99011 15.0068 5.31659 15.2648C4.93991 15.5633 4.65709 15.9639 4.50192 16.4187C4.34675 16.8736 4.32577 17.3635 4.4415 17.83C4.55724 18.2964 4.80478 18.7197 5.15458 19.0493C5.50438 19.3789 5.94164 19.6008 6.41416 19.6886C6.88668 19.7764 7.37448 19.7263 7.81931 19.5444C8.26414 19.3624 8.6472 19.0563 8.92274 18.6625C9.19828 18.2687 9.35467 17.804 9.37322 17.3237C9.39176 16.8435 9.2717 16.368 9.02734 15.9542H13.4728C13.2477 16.3325 13.1276 16.764 13.1251 17.2042C13.1224 17.6257 13.2262 18.0411 13.4271 18.4117C13.628 18.7824 13.9193 19.0962 14.274 19.324C14.6287 19.5518 15.0353 19.6862 15.4559 19.7147C15.8764 19.7433 16.2974 19.665 16.6796 19.4871C17.0618 19.3093 17.3929 19.0377 17.642 18.6976C17.891 18.3575 18.0501 17.96 18.1043 17.5419C18.1585 17.1239 18.1061 16.6989 17.952 16.3065C17.7979 15.9142 17.5471 15.5671 17.2228 15.2977C17.8736 14.8057 18.3053 14.078 18.4251 13.2711ZM6.87509 18.4542C6.62787 18.4542 6.38619 18.3809 6.18063 18.2435C5.97507 18.1062 5.81485 17.911 5.72024 17.6825C5.62564 17.4541 5.60088 17.2028 5.64911 16.9603C5.69734 16.7179 5.8164 16.4951 5.99121 16.3203C6.16603 16.1455 6.38875 16.0264 6.63123 15.9782C6.87371 15.93 7.12504 15.9547 7.35345 16.0493C7.58186 16.144 7.77708 16.3042 7.91443 16.5097C8.05178 16.7153 8.12509 16.957 8.12509 17.2042C8.1248 17.5356 7.993 17.8534 7.75865 18.0877C7.52429 18.3221 7.20652 18.4539 6.87509 18.4542ZM15.6251 18.4542C15.3779 18.4542 15.1362 18.3809 14.9306 18.2435C14.7251 18.1062 14.5649 17.911 14.4702 17.6825C14.3756 17.4541 14.3509 17.2028 14.3991 16.9603C14.4473 16.7179 14.5664 16.4951 14.7412 16.3203C14.916 16.1455 15.1388 16.0264 15.3812 15.9782C15.6237 15.93 15.875 15.9547 16.1034 16.0493C16.3319 16.144 16.5271 16.3042 16.6644 16.5097C16.8018 16.7153 16.8751 16.957 16.8751 17.2042C16.8748 17.5356 16.743 17.8534 16.5086 18.0877C16.2743 18.3221 15.9565 18.4539 15.6251 18.4542Z" fill="#007983"/>
</g>
<defs>
<clipPath id="clip0_1152_172">
<rect width="20" height="20" fill="white" transform="translate(0 0.329102)"/>
</clipPath>
</defs>
</svg>
