<svg width="17" height="16" viewBox="0 0 17 16" fill="none" xmlns="http://www.w3.org/2000/svg">
<g clip-path="url(#clip0_762_4268)">
<path d="M12.0859 2.66667V1.33333C12.0859 0.979711 11.9455 0.640573 11.6954 0.390524C11.4454 0.140476 11.1062 0 10.7526 0L6.7526 0C6.39898 0 6.05984 0.140476 5.8098 0.390524C5.55975 0.640573 5.41927 0.979711 5.41927 1.33333V2.66667H2.08594V4H3.41927V14C3.41927 14.5304 3.62998 15.0391 4.00506 15.4142C4.38013 15.7893 4.88884 16 5.41927 16H12.0859C12.6164 16 13.1251 15.7893 13.5002 15.4142C13.8752 15.0391 14.0859 14.5304 14.0859 14V4H15.4193V2.66667H12.0859ZM8.08594 11.3333H6.7526V7.33333H8.08594V11.3333ZM10.7526 11.3333H9.41927V7.33333H10.7526V11.3333ZM10.7526 2.66667H6.7526V1.33333H10.7526V2.66667Z" fill="black"/>
</g>
<defs>
<clipPath id="clip0_762_4268">
<rect width="16" height="16" fill="white" transform="translate(0.75293)"/>
</clipPath>
</defs>
</svg>
