<svg width="17" height="16" viewBox="0 0 17 16" fill="none" xmlns="http://www.w3.org/2000/svg">
<g clip-path="url(#clip0_762_4248)">
<path d="M11.4483 9.33301H6.0576C5.18147 9.33407 4.34153 9.68258 3.72201 10.3021C3.1025 10.9216 2.75399 11.7615 2.75293 12.6377V15.9997H14.7529V12.6377C14.7519 11.7615 14.4034 10.9216 13.7838 10.3021C13.1643 9.68258 12.3244 9.33407 11.4483 9.33301Z" fill="#FFC133"/>
<path d="M8.75293 8C10.9621 8 12.7529 6.20914 12.7529 4C12.7529 1.79086 10.9621 0 8.75293 0C6.54379 0 4.75293 1.79086 4.75293 4C4.75293 6.20914 6.54379 8 8.75293 8Z" fill="#FFC133"/>
</g>
<defs>
<clipPath id="clip0_762_4248">
<rect width="16" height="16" fill="white" transform="translate(0.75293)"/>
</clipPath>
</defs>
</svg>
